G04 #@! TF.GenerationSoftware,KiCad,Pcbnew,(5.1.5)-3*
G04 #@! TF.CreationDate,2020-05-12T18:18:00+01:00*
G04 #@! TF.ProjectId,VCO440,56434f34-3430-42e6-9b69-6361645f7063,rev?*
G04 #@! TF.SameCoordinates,Original*
G04 #@! TF.FileFunction,Soldermask,Bot*
G04 #@! TF.FilePolarity,Negative*
%FSLAX46Y46*%
G04 Gerber Fmt 4.6, Leading zero omitted, Abs format (unit mm)*
G04 Created by KiCad (PCBNEW (5.1.5)-3) date 2020-05-12 18:18:00*
%MOMM*%
%LPD*%
G04 APERTURE LIST*
%ADD10C,0.100000*%
G04 APERTURE END LIST*
D10*
G36*
X119897985Y-242633860D02*
G01*
X120010748Y-242656290D01*
X120142741Y-242710963D01*
X120329408Y-242788283D01*
X120616196Y-242979909D01*
X120860091Y-243223804D01*
X121051717Y-243510592D01*
X121183710Y-243829253D01*
X121251000Y-244167540D01*
X121251000Y-244512460D01*
X121183710Y-244850747D01*
X121051717Y-245169408D01*
X120860091Y-245456196D01*
X120616196Y-245700091D01*
X120329408Y-245891717D01*
X120186285Y-245951000D01*
X120010748Y-246023710D01*
X119897985Y-246046140D01*
X119672460Y-246091000D01*
X119327540Y-246091000D01*
X119102015Y-246046140D01*
X118989252Y-246023710D01*
X118813715Y-245951000D01*
X118670592Y-245891717D01*
X118383804Y-245700091D01*
X118139909Y-245456196D01*
X117948283Y-245169408D01*
X117816290Y-244850747D01*
X117749000Y-244512460D01*
X117749000Y-244167540D01*
X117816290Y-243829253D01*
X117948283Y-243510592D01*
X118139909Y-243223804D01*
X118383804Y-242979909D01*
X118670592Y-242788283D01*
X118857259Y-242710963D01*
X118989252Y-242656290D01*
X119102015Y-242633860D01*
X119327540Y-242589000D01*
X119672460Y-242589000D01*
X119897985Y-242633860D01*
G37*
G36*
X101877985Y-242493860D02*
G01*
X101990748Y-242516290D01*
X102122741Y-242570963D01*
X102309408Y-242648283D01*
X102596196Y-242839909D01*
X102840091Y-243083804D01*
X103031717Y-243370592D01*
X103163710Y-243689253D01*
X103231000Y-244027540D01*
X103231000Y-244372460D01*
X103163710Y-244710747D01*
X103031717Y-245029408D01*
X102840091Y-245316196D01*
X102596196Y-245560091D01*
X102309408Y-245751717D01*
X102122741Y-245829037D01*
X101990748Y-245883710D01*
X101877985Y-245906140D01*
X101652460Y-245951000D01*
X101307540Y-245951000D01*
X101082015Y-245906140D01*
X100969252Y-245883710D01*
X100837259Y-245829037D01*
X100650592Y-245751717D01*
X100363804Y-245560091D01*
X100119909Y-245316196D01*
X99928283Y-245029408D01*
X99796290Y-244710747D01*
X99729000Y-244372460D01*
X99729000Y-244027540D01*
X99796290Y-243689253D01*
X99928283Y-243370592D01*
X100119909Y-243083804D01*
X100363804Y-242839909D01*
X100650592Y-242648283D01*
X100837259Y-242570963D01*
X100969252Y-242516290D01*
X101082015Y-242493860D01*
X101307540Y-242449000D01*
X101652460Y-242449000D01*
X101877985Y-242493860D01*
G37*
G36*
X119757985Y-49083860D02*
G01*
X119870748Y-49106290D01*
X119947988Y-49138284D01*
X120189408Y-49238283D01*
X120476196Y-49429909D01*
X120720091Y-49673804D01*
X120911717Y-49960592D01*
X120989037Y-50147259D01*
X121002289Y-50179252D01*
X121043710Y-50279253D01*
X121111000Y-50617540D01*
X121111000Y-50962460D01*
X121043710Y-51300747D01*
X120911717Y-51619408D01*
X120720091Y-51906196D01*
X120476196Y-52150091D01*
X120189408Y-52341717D01*
X120002741Y-52419037D01*
X119870748Y-52473710D01*
X119757985Y-52496140D01*
X119532460Y-52541000D01*
X119187540Y-52541000D01*
X118962015Y-52496140D01*
X118849252Y-52473710D01*
X118717259Y-52419037D01*
X118530592Y-52341717D01*
X118243804Y-52150091D01*
X117999909Y-51906196D01*
X117808283Y-51619408D01*
X117676290Y-51300747D01*
X117609000Y-50962460D01*
X117609000Y-50617540D01*
X117676290Y-50279253D01*
X117717712Y-50179252D01*
X117730963Y-50147259D01*
X117808283Y-49960592D01*
X117999909Y-49673804D01*
X118243804Y-49429909D01*
X118530592Y-49238283D01*
X118772012Y-49138284D01*
X118849252Y-49106290D01*
X118962015Y-49083860D01*
X119187540Y-49039000D01*
X119532460Y-49039000D01*
X119757985Y-49083860D01*
G37*
G36*
X101137985Y-48983860D02*
G01*
X101250748Y-49006290D01*
X101382741Y-49060963D01*
X101569408Y-49138283D01*
X101856196Y-49329909D01*
X102100091Y-49573804D01*
X102291717Y-49860592D01*
X102423710Y-50179253D01*
X102491000Y-50517540D01*
X102491000Y-50862460D01*
X102446140Y-51087985D01*
X102423710Y-51200748D01*
X102369037Y-51332741D01*
X102291717Y-51519408D01*
X102100091Y-51806196D01*
X101856196Y-52050091D01*
X101569408Y-52241717D01*
X101382741Y-52319037D01*
X101250748Y-52373710D01*
X101137985Y-52396140D01*
X100912460Y-52441000D01*
X100567540Y-52441000D01*
X100342015Y-52396140D01*
X100229252Y-52373710D01*
X100097259Y-52319037D01*
X99910592Y-52241717D01*
X99623804Y-52050091D01*
X99379909Y-51806196D01*
X99188283Y-51519408D01*
X99110963Y-51332741D01*
X99056290Y-51200748D01*
X99033860Y-51087985D01*
X98989000Y-50862460D01*
X98989000Y-50517540D01*
X99056290Y-50179253D01*
X99188283Y-49860592D01*
X99379909Y-49573804D01*
X99623804Y-49329909D01*
X99910592Y-49138283D01*
X100097259Y-49060963D01*
X100229252Y-49006290D01*
X100342015Y-48983860D01*
X100567540Y-48939000D01*
X100912460Y-48939000D01*
X101137985Y-48983860D01*
G37*
M02*
