G04 #@! TF.GenerationSoftware,KiCad,Pcbnew,(5.1.5)-3*
G04 #@! TF.CreationDate,2020-05-12T18:18:00+01:00*
G04 #@! TF.ProjectId,VCO440,56434f34-3430-42e6-9b69-6361645f7063,rev?*
G04 #@! TF.SameCoordinates,Original*
G04 #@! TF.FileFunction,Copper,L2,Bot*
G04 #@! TF.FilePolarity,Positive*
%FSLAX46Y46*%
G04 Gerber Fmt 4.6, Leading zero omitted, Abs format (unit mm)*
G04 Created by KiCad (PCBNEW (5.1.5)-3) date 2020-05-12 18:18:00*
%MOMM*%
%LPD*%
G04 APERTURE LIST*
%ADD10C,0.300000*%
%ADD11C,3.400000*%
G04 APERTURE END LIST*
D10*
X121395714Y-181452500D02*
X121467142Y-181532857D01*
X121538571Y-181756071D01*
X121538571Y-181898928D01*
X121467142Y-182104285D01*
X121324285Y-182229285D01*
X121181428Y-182282857D01*
X120895714Y-182318571D01*
X120681428Y-182291785D01*
X120395714Y-182184642D01*
X120252857Y-182095357D01*
X120110000Y-181934642D01*
X120038571Y-181711428D01*
X120038571Y-181568571D01*
X120110000Y-181363214D01*
X120181428Y-181300714D01*
X121538571Y-180113214D02*
X121538571Y-180827500D01*
X120038571Y-180640000D01*
X121110000Y-179631071D02*
X121110000Y-178916785D01*
X121538571Y-179827500D02*
X120038571Y-179140000D01*
X121538571Y-178827500D01*
X120824285Y-177952500D02*
X121538571Y-178041785D01*
X120038571Y-178354285D02*
X120824285Y-177952500D01*
X120038571Y-177354285D01*
X120038571Y-177068571D02*
X120038571Y-176211428D01*
X121538571Y-176827500D02*
X120038571Y-176640000D01*
X120038571Y-175711428D02*
X121252857Y-175863214D01*
X121395714Y-175809642D01*
X121467142Y-175747142D01*
X121538571Y-175613214D01*
X121538571Y-175327500D01*
X121467142Y-175175714D01*
X121395714Y-175095357D01*
X121252857Y-175006071D01*
X120038571Y-174854285D01*
X121538571Y-174327500D02*
X120038571Y-174140000D01*
X121538571Y-173470357D01*
X120038571Y-173282857D01*
X120752857Y-172657857D02*
X120752857Y-172157857D01*
X121538571Y-172041785D02*
X121538571Y-172756071D01*
X120038571Y-172568571D01*
X120038571Y-171854285D01*
X120967142Y-170184642D02*
X120967142Y-169041785D01*
X121467142Y-167318571D02*
X121538571Y-167113214D01*
X121538571Y-166756071D01*
X121467142Y-166604285D01*
X121395714Y-166523928D01*
X121252857Y-166434642D01*
X121110000Y-166416785D01*
X120967142Y-166470357D01*
X120895714Y-166532857D01*
X120824285Y-166666785D01*
X120752857Y-166943571D01*
X120681428Y-167077500D01*
X120610000Y-167140000D01*
X120467142Y-167193571D01*
X120324285Y-167175714D01*
X120181428Y-167086428D01*
X120110000Y-167006071D01*
X120038571Y-166854285D01*
X120038571Y-166497142D01*
X120110000Y-166291785D01*
X121538571Y-165827500D02*
X120038571Y-165640000D01*
X121538571Y-165113214D02*
X120038571Y-164925714D01*
X121110000Y-164559642D01*
X120038571Y-163925714D01*
X121538571Y-164113214D01*
X121538571Y-163398928D02*
X120038571Y-163211428D01*
X120038571Y-162640000D01*
X120110000Y-162506071D01*
X120181428Y-162443571D01*
X120324285Y-162390000D01*
X120538571Y-162416785D01*
X120681428Y-162506071D01*
X120752857Y-162586428D01*
X120824285Y-162738214D01*
X120824285Y-163309642D01*
X121538571Y-161184642D02*
X121538571Y-161898928D01*
X120038571Y-161711428D01*
X120752857Y-160586428D02*
X120752857Y-160086428D01*
X121538571Y-159970357D02*
X121538571Y-160684642D01*
X120038571Y-160497142D01*
X120038571Y-159782857D01*
X120038571Y-158211428D02*
X121538571Y-157898928D01*
X120038571Y-157211428D01*
X121395714Y-156023928D02*
X121467142Y-156104285D01*
X121538571Y-156327500D01*
X121538571Y-156470357D01*
X121467142Y-156675714D01*
X121324285Y-156800714D01*
X121181428Y-156854285D01*
X120895714Y-156890000D01*
X120681428Y-156863214D01*
X120395714Y-156756071D01*
X120252857Y-156666785D01*
X120110000Y-156506071D01*
X120038571Y-156282857D01*
X120038571Y-156140000D01*
X120110000Y-155934642D01*
X120181428Y-155872142D01*
X120038571Y-154925714D02*
X120038571Y-154640000D01*
X120110000Y-154506071D01*
X120252857Y-154381071D01*
X120538571Y-154345357D01*
X121038571Y-154407857D01*
X121324285Y-154515000D01*
X121467142Y-154675714D01*
X121538571Y-154827500D01*
X121538571Y-155113214D01*
X121467142Y-155247142D01*
X121324285Y-155372142D01*
X121038571Y-155407857D01*
X120538571Y-155345357D01*
X120252857Y-155238214D01*
X120110000Y-155077500D01*
X120038571Y-154925714D01*
X120038571Y-152711428D02*
X121538571Y-152398928D01*
X120038571Y-151711428D01*
X121538571Y-150613214D02*
X121538571Y-151470357D01*
X121538571Y-151041785D02*
X120038571Y-150854285D01*
X120252857Y-151023928D01*
X120395714Y-151184642D01*
X120467142Y-151336428D01*
X121395714Y-149952500D02*
X121467142Y-149890000D01*
X121538571Y-149970357D01*
X121467142Y-150032857D01*
X121395714Y-149952500D01*
X121538571Y-149970357D01*
X120038571Y-148782857D02*
X120038571Y-148640000D01*
X120110000Y-148506071D01*
X120181428Y-148443571D01*
X120324285Y-148390000D01*
X120610000Y-148354285D01*
X120967142Y-148398928D01*
X121252857Y-148506071D01*
X121395714Y-148595357D01*
X121467142Y-148675714D01*
X121538571Y-148827500D01*
X121538571Y-148970357D01*
X121467142Y-149104285D01*
X121395714Y-149166785D01*
X121252857Y-149220357D01*
X120967142Y-149256071D01*
X120610000Y-149211428D01*
X120324285Y-149104285D01*
X120181428Y-149015000D01*
X120110000Y-148934642D01*
X120038571Y-148782857D01*
X120967142Y-146613214D02*
X120967142Y-145470357D01*
X120752857Y-143086428D02*
X120824285Y-142881071D01*
X120895714Y-142818571D01*
X121038571Y-142765000D01*
X121252857Y-142791785D01*
X121395714Y-142881071D01*
X121467142Y-142961428D01*
X121538571Y-143113214D01*
X121538571Y-143684642D01*
X120038571Y-143497142D01*
X120038571Y-142997142D01*
X120110000Y-142863214D01*
X120181428Y-142800714D01*
X120324285Y-142747142D01*
X120467142Y-142765000D01*
X120610000Y-142854285D01*
X120681428Y-142934642D01*
X120752857Y-143086428D01*
X120752857Y-143586428D01*
X120538571Y-142202500D02*
X121538571Y-141970357D01*
X120538571Y-141488214D02*
X121538571Y-141970357D01*
X121895714Y-142157857D01*
X121967142Y-142238214D01*
X122038571Y-142390000D01*
X120038571Y-139925714D02*
X120038571Y-139068571D01*
X121538571Y-139684642D02*
X120038571Y-139497142D01*
X120538571Y-138773928D02*
X121538571Y-138613214D01*
X120824285Y-138238214D01*
X121538571Y-138041785D01*
X120538571Y-137631071D01*
X121538571Y-137184642D02*
X120538571Y-137059642D01*
X120038571Y-136997142D02*
X120110000Y-137077500D01*
X120181428Y-137015000D01*
X120110000Y-136934642D01*
X120038571Y-136997142D01*
X120181428Y-137015000D01*
X120538571Y-136345357D02*
X121538571Y-136470357D01*
X120681428Y-136363214D02*
X120610000Y-136282857D01*
X120538571Y-136131071D01*
X120538571Y-135916785D01*
X120610000Y-135782857D01*
X120752857Y-135729285D01*
X121538571Y-135827500D01*
X120038571Y-135140000D02*
X120038571Y-134282857D01*
X121538571Y-134898928D02*
X120038571Y-134711428D01*
X120538571Y-133202500D02*
X121538571Y-133327500D01*
X120538571Y-133845357D02*
X121324285Y-133943571D01*
X121467142Y-133890000D01*
X121538571Y-133756071D01*
X121538571Y-133541785D01*
X121467142Y-133390000D01*
X121395714Y-133309642D01*
X121538571Y-132613214D02*
X120538571Y-132488214D01*
X120824285Y-132523928D02*
X120681428Y-132434642D01*
X120610000Y-132354285D01*
X120538571Y-132202500D01*
X120538571Y-132059642D01*
X121538571Y-131684642D02*
X120038571Y-131497142D01*
X120610000Y-131568571D02*
X120538571Y-131416785D01*
X120538571Y-131131071D01*
X120610000Y-130997142D01*
X120681428Y-130934642D01*
X120824285Y-130881071D01*
X121252857Y-130934642D01*
X121395714Y-131023928D01*
X121467142Y-131104285D01*
X121538571Y-131256071D01*
X121538571Y-131541785D01*
X121467142Y-131675714D01*
X121538571Y-130113214D02*
X121467142Y-130247142D01*
X121395714Y-130309642D01*
X121252857Y-130363214D01*
X120824285Y-130309642D01*
X120681428Y-130220357D01*
X120610000Y-130140000D01*
X120538571Y-129988214D01*
X120538571Y-129773928D01*
X120610000Y-129640000D01*
X120681428Y-129577500D01*
X120824285Y-129523928D01*
X121252857Y-129577500D01*
X121395714Y-129666785D01*
X121467142Y-129747142D01*
X121538571Y-129898928D01*
X121538571Y-130113214D01*
D11*
X119360000Y-50790000D03*
X100740000Y-50690000D03*
X101480000Y-244200000D03*
X119500000Y-244340000D03*
M02*
