G04 #@! TF.GenerationSoftware,KiCad,Pcbnew,(5.1.5)-3*
G04 #@! TF.CreationDate,2020-05-12T18:18:00+01:00*
G04 #@! TF.ProjectId,VCO440,56434f34-3430-42e6-9b69-6361645f7063,rev?*
G04 #@! TF.SameCoordinates,Original*
G04 #@! TF.FileFunction,Legend,Top*
G04 #@! TF.FilePolarity,Positive*
%FSLAX46Y46*%
G04 Gerber Fmt 4.6, Leading zero omitted, Abs format (unit mm)*
G04 Created by KiCad (PCBNEW (5.1.5)-3) date 2020-05-12 18:18:00*
%MOMM*%
%LPD*%
G04 APERTURE LIST*
%ADD10C,0.300000*%
%ADD11C,0.150000*%
G04 APERTURE END LIST*
D10*
X101358571Y-136039523D02*
X101644285Y-136134761D01*
X102120476Y-136134761D01*
X102310952Y-136039523D01*
X102406190Y-135944285D01*
X102501428Y-135753809D01*
X102501428Y-135563333D01*
X102406190Y-135372857D01*
X102310952Y-135277619D01*
X102120476Y-135182380D01*
X101739523Y-135087142D01*
X101549047Y-134991904D01*
X101453809Y-134896666D01*
X101358571Y-134706190D01*
X101358571Y-134515714D01*
X101453809Y-134325238D01*
X101549047Y-134230000D01*
X101739523Y-134134761D01*
X102215714Y-134134761D01*
X102501428Y-134230000D01*
X103358571Y-136134761D02*
X103358571Y-134134761D01*
X104310952Y-136134761D02*
X104310952Y-134134761D01*
X104977619Y-135563333D01*
X105644285Y-134134761D01*
X105644285Y-136134761D01*
X106596666Y-136134761D02*
X106596666Y-134134761D01*
X107358571Y-134134761D01*
X107549047Y-134230000D01*
X107644285Y-134325238D01*
X107739523Y-134515714D01*
X107739523Y-134801428D01*
X107644285Y-134991904D01*
X107549047Y-135087142D01*
X107358571Y-135182380D01*
X106596666Y-135182380D01*
X109549047Y-136134761D02*
X108596666Y-136134761D01*
X108596666Y-134134761D01*
X110215714Y-135087142D02*
X110882380Y-135087142D01*
X111168095Y-136134761D02*
X110215714Y-136134761D01*
X110215714Y-134134761D01*
X111168095Y-134134761D01*
X113263333Y-134134761D02*
X113930000Y-136134761D01*
X114596666Y-134134761D01*
X116406190Y-135944285D02*
X116310952Y-136039523D01*
X116025238Y-136134761D01*
X115834761Y-136134761D01*
X115549047Y-136039523D01*
X115358571Y-135849047D01*
X115263333Y-135658571D01*
X115168095Y-135277619D01*
X115168095Y-134991904D01*
X115263333Y-134610952D01*
X115358571Y-134420476D01*
X115549047Y-134230000D01*
X115834761Y-134134761D01*
X116025238Y-134134761D01*
X116310952Y-134230000D01*
X116406190Y-134325238D01*
X117644285Y-134134761D02*
X118025238Y-134134761D01*
X118215714Y-134230000D01*
X118406190Y-134420476D01*
X118501428Y-134801428D01*
X118501428Y-135468095D01*
X118406190Y-135849047D01*
X118215714Y-136039523D01*
X118025238Y-136134761D01*
X117644285Y-136134761D01*
X117453809Y-136039523D01*
X117263333Y-135849047D01*
X117168095Y-135468095D01*
X117168095Y-134801428D01*
X117263333Y-134420476D01*
X117453809Y-134230000D01*
X117644285Y-134134761D01*
X100501428Y-138387142D02*
X100787142Y-138482380D01*
X100882380Y-138577619D01*
X100977619Y-138768095D01*
X100977619Y-139053809D01*
X100882380Y-139244285D01*
X100787142Y-139339523D01*
X100596666Y-139434761D01*
X99834761Y-139434761D01*
X99834761Y-137434761D01*
X100501428Y-137434761D01*
X100691904Y-137530000D01*
X100787142Y-137625238D01*
X100882380Y-137815714D01*
X100882380Y-138006190D01*
X100787142Y-138196666D01*
X100691904Y-138291904D01*
X100501428Y-138387142D01*
X99834761Y-138387142D01*
X101644285Y-138101428D02*
X102120476Y-139434761D01*
X102596666Y-138101428D02*
X102120476Y-139434761D01*
X101930000Y-139910952D01*
X101834761Y-140006190D01*
X101644285Y-140101428D01*
X104596666Y-137434761D02*
X105739523Y-137434761D01*
X105168095Y-139434761D02*
X105168095Y-137434761D01*
X106215714Y-138101428D02*
X106596666Y-139434761D01*
X106977619Y-138482380D01*
X107358571Y-139434761D01*
X107739523Y-138101428D01*
X108501428Y-139434761D02*
X108501428Y-138101428D01*
X108501428Y-137434761D02*
X108406190Y-137530000D01*
X108501428Y-137625238D01*
X108596666Y-137530000D01*
X108501428Y-137434761D01*
X108501428Y-137625238D01*
X109453809Y-138101428D02*
X109453809Y-139434761D01*
X109453809Y-138291904D02*
X109549047Y-138196666D01*
X109739523Y-138101428D01*
X110025238Y-138101428D01*
X110215714Y-138196666D01*
X110310952Y-138387142D01*
X110310952Y-139434761D01*
X112501428Y-137434761D02*
X113644285Y-137434761D01*
X113072857Y-139434761D02*
X113072857Y-137434761D01*
X115168095Y-138101428D02*
X115168095Y-139434761D01*
X114310952Y-138101428D02*
X114310952Y-139149047D01*
X114406190Y-139339523D01*
X114596666Y-139434761D01*
X114882380Y-139434761D01*
X115072857Y-139339523D01*
X115168095Y-139244285D01*
X116120476Y-139434761D02*
X116120476Y-138101428D01*
X116120476Y-138482380D02*
X116215714Y-138291904D01*
X116310952Y-138196666D01*
X116501428Y-138101428D01*
X116691904Y-138101428D01*
X117358571Y-139434761D02*
X117358571Y-137434761D01*
X117358571Y-138196666D02*
X117549047Y-138101428D01*
X117930000Y-138101428D01*
X118120476Y-138196666D01*
X118215714Y-138291904D01*
X118310952Y-138482380D01*
X118310952Y-139053809D01*
X118215714Y-139244285D01*
X118120476Y-139339523D01*
X117930000Y-139434761D01*
X117549047Y-139434761D01*
X117358571Y-139339523D01*
X119453809Y-139434761D02*
X119263333Y-139339523D01*
X119168095Y-139244285D01*
X119072857Y-139053809D01*
X119072857Y-138482380D01*
X119168095Y-138291904D01*
X119263333Y-138196666D01*
X119453809Y-138101428D01*
X119739523Y-138101428D01*
X119930000Y-138196666D01*
X120025238Y-138291904D01*
X120120476Y-138482380D01*
X120120476Y-139053809D01*
X120025238Y-139244285D01*
X119930000Y-139339523D01*
X119739523Y-139434761D01*
X119453809Y-139434761D01*
D11*
X104833333Y-229124761D02*
X105976190Y-229124761D01*
X105404761Y-231124761D02*
X105404761Y-229124761D01*
X107785714Y-231124761D02*
X107119047Y-230172380D01*
X106642857Y-231124761D02*
X106642857Y-229124761D01*
X107404761Y-229124761D01*
X107595238Y-229220000D01*
X107690476Y-229315238D01*
X107785714Y-229505714D01*
X107785714Y-229791428D01*
X107690476Y-229981904D01*
X107595238Y-230077142D01*
X107404761Y-230172380D01*
X106642857Y-230172380D01*
X108642857Y-231124761D02*
X108642857Y-229124761D01*
X111500000Y-229124761D02*
X111880952Y-229124761D01*
X112071428Y-229220000D01*
X112261904Y-229410476D01*
X112357142Y-229791428D01*
X112357142Y-230458095D01*
X112261904Y-230839047D01*
X112071428Y-231029523D01*
X111880952Y-231124761D01*
X111500000Y-231124761D01*
X111309523Y-231029523D01*
X111119047Y-230839047D01*
X111023809Y-230458095D01*
X111023809Y-229791428D01*
X111119047Y-229410476D01*
X111309523Y-229220000D01*
X111500000Y-229124761D01*
X113214285Y-229124761D02*
X113214285Y-230743809D01*
X113309523Y-230934285D01*
X113404761Y-231029523D01*
X113595238Y-231124761D01*
X113976190Y-231124761D01*
X114166666Y-231029523D01*
X114261904Y-230934285D01*
X114357142Y-230743809D01*
X114357142Y-229124761D01*
X115023809Y-229124761D02*
X116166666Y-229124761D01*
X115595238Y-231124761D02*
X115595238Y-229124761D01*
X104309523Y-212629523D02*
X104595238Y-212724761D01*
X105071428Y-212724761D01*
X105261904Y-212629523D01*
X105357142Y-212534285D01*
X105452380Y-212343809D01*
X105452380Y-212153333D01*
X105357142Y-211962857D01*
X105261904Y-211867619D01*
X105071428Y-211772380D01*
X104690476Y-211677142D01*
X104500000Y-211581904D01*
X104404761Y-211486666D01*
X104309523Y-211296190D01*
X104309523Y-211105714D01*
X104404761Y-210915238D01*
X104500000Y-210820000D01*
X104690476Y-210724761D01*
X105166666Y-210724761D01*
X105452380Y-210820000D01*
X106214285Y-212153333D02*
X107166666Y-212153333D01*
X106023809Y-212724761D02*
X106690476Y-210724761D01*
X107357142Y-212724761D01*
X107833333Y-210724761D02*
X108309523Y-212724761D01*
X108690476Y-211296190D01*
X109071428Y-212724761D01*
X109547619Y-210724761D01*
X112214285Y-210724761D02*
X112595238Y-210724761D01*
X112785714Y-210820000D01*
X112976190Y-211010476D01*
X113071428Y-211391428D01*
X113071428Y-212058095D01*
X112976190Y-212439047D01*
X112785714Y-212629523D01*
X112595238Y-212724761D01*
X112214285Y-212724761D01*
X112023809Y-212629523D01*
X111833333Y-212439047D01*
X111738095Y-212058095D01*
X111738095Y-211391428D01*
X111833333Y-211010476D01*
X112023809Y-210820000D01*
X112214285Y-210724761D01*
X113928571Y-210724761D02*
X113928571Y-212343809D01*
X114023809Y-212534285D01*
X114119047Y-212629523D01*
X114309523Y-212724761D01*
X114690476Y-212724761D01*
X114880952Y-212629523D01*
X114976190Y-212534285D01*
X115071428Y-212343809D01*
X115071428Y-210724761D01*
X115738095Y-210724761D02*
X116880952Y-210724761D01*
X116309523Y-212724761D02*
X116309523Y-210724761D01*
X105783333Y-158887142D02*
X105116666Y-158887142D01*
X105116666Y-159934761D02*
X105116666Y-157934761D01*
X106069047Y-157934761D01*
X106830952Y-159934761D02*
X106830952Y-157934761D01*
X107783333Y-159934761D02*
X107783333Y-157934761D01*
X108926190Y-159934761D01*
X108926190Y-157934761D01*
X109878571Y-158887142D02*
X110545238Y-158887142D01*
X110830952Y-159934761D02*
X109878571Y-159934761D01*
X109878571Y-157934761D01*
X110830952Y-157934761D01*
X112926190Y-157934761D02*
X114069047Y-157934761D01*
X113497619Y-159934761D02*
X113497619Y-157934761D01*
X114735714Y-157934761D02*
X114735714Y-159553809D01*
X114830952Y-159744285D01*
X114926190Y-159839523D01*
X115116666Y-159934761D01*
X115497619Y-159934761D01*
X115688095Y-159839523D01*
X115783333Y-159744285D01*
X115878571Y-159553809D01*
X115878571Y-157934761D01*
X116830952Y-159934761D02*
X116830952Y-157934761D01*
X117973809Y-159934761D01*
X117973809Y-157934761D01*
X118926190Y-158887142D02*
X119592857Y-158887142D01*
X119878571Y-159934761D02*
X118926190Y-159934761D01*
X118926190Y-157934761D01*
X119878571Y-157934761D01*
X107886190Y-77884285D02*
X107790952Y-77979523D01*
X107505238Y-78074761D01*
X107314761Y-78074761D01*
X107029047Y-77979523D01*
X106838571Y-77789047D01*
X106743333Y-77598571D01*
X106648095Y-77217619D01*
X106648095Y-76931904D01*
X106743333Y-76550952D01*
X106838571Y-76360476D01*
X107029047Y-76170000D01*
X107314761Y-76074761D01*
X107505238Y-76074761D01*
X107790952Y-76170000D01*
X107886190Y-76265238D01*
X108457619Y-76074761D02*
X109124285Y-78074761D01*
X109790952Y-76074761D01*
X111981428Y-78074761D02*
X111981428Y-76074761D01*
X112933809Y-78074761D02*
X112933809Y-76074761D01*
X114076666Y-78074761D01*
X114076666Y-76074761D01*
X105529523Y-118504761D02*
X106672380Y-118504761D01*
X106100952Y-120504761D02*
X106100952Y-118504761D01*
X107339047Y-118504761D02*
X107339047Y-120123809D01*
X107434285Y-120314285D01*
X107529523Y-120409523D01*
X107720000Y-120504761D01*
X108100952Y-120504761D01*
X108291428Y-120409523D01*
X108386666Y-120314285D01*
X108481904Y-120123809D01*
X108481904Y-118504761D01*
X109434285Y-120504761D02*
X109434285Y-118504761D01*
X110577142Y-120504761D01*
X110577142Y-118504761D01*
X111529523Y-120504761D02*
X111529523Y-118504761D01*
X112481904Y-120504761D02*
X112481904Y-118504761D01*
X113624761Y-120504761D01*
X113624761Y-118504761D01*
X115624761Y-118600000D02*
X115434285Y-118504761D01*
X115148571Y-118504761D01*
X114862857Y-118600000D01*
X114672380Y-118790476D01*
X114577142Y-118980952D01*
X114481904Y-119361904D01*
X114481904Y-119647619D01*
X114577142Y-120028571D01*
X114672380Y-120219047D01*
X114862857Y-120409523D01*
X115148571Y-120504761D01*
X115339047Y-120504761D01*
X115624761Y-120409523D01*
X115720000Y-120314285D01*
X115720000Y-119647619D01*
X115339047Y-119647619D01*
X118026666Y-47442380D02*
X117693333Y-46966190D01*
X117455238Y-47442380D02*
X117455238Y-46442380D01*
X117836190Y-46442380D01*
X117931428Y-46490000D01*
X117979047Y-46537619D01*
X118026666Y-46632857D01*
X118026666Y-46775714D01*
X117979047Y-46870952D01*
X117931428Y-46918571D01*
X117836190Y-46966190D01*
X117455238Y-46966190D01*
X118455238Y-46918571D02*
X118788571Y-46918571D01*
X118931428Y-47442380D02*
X118455238Y-47442380D01*
X118455238Y-46442380D01*
X118931428Y-46442380D01*
X119693333Y-46918571D02*
X119360000Y-46918571D01*
X119360000Y-47442380D02*
X119360000Y-46442380D01*
X119836190Y-46442380D01*
X120360000Y-46442380D02*
X120360000Y-46680476D01*
X120121904Y-46585238D02*
X120360000Y-46680476D01*
X120598095Y-46585238D01*
X120217142Y-46870952D02*
X120360000Y-46680476D01*
X120502857Y-46870952D01*
X121121904Y-46442380D02*
X121121904Y-46680476D01*
X120883809Y-46585238D02*
X121121904Y-46680476D01*
X121360000Y-46585238D01*
X120979047Y-46870952D02*
X121121904Y-46680476D01*
X121264761Y-46870952D01*
X99406666Y-47342380D02*
X99073333Y-46866190D01*
X98835238Y-47342380D02*
X98835238Y-46342380D01*
X99216190Y-46342380D01*
X99311428Y-46390000D01*
X99359047Y-46437619D01*
X99406666Y-46532857D01*
X99406666Y-46675714D01*
X99359047Y-46770952D01*
X99311428Y-46818571D01*
X99216190Y-46866190D01*
X98835238Y-46866190D01*
X99835238Y-46818571D02*
X100168571Y-46818571D01*
X100311428Y-47342380D02*
X99835238Y-47342380D01*
X99835238Y-46342380D01*
X100311428Y-46342380D01*
X101073333Y-46818571D02*
X100740000Y-46818571D01*
X100740000Y-47342380D02*
X100740000Y-46342380D01*
X101216190Y-46342380D01*
X101740000Y-46342380D02*
X101740000Y-46580476D01*
X101501904Y-46485238D02*
X101740000Y-46580476D01*
X101978095Y-46485238D01*
X101597142Y-46770952D02*
X101740000Y-46580476D01*
X101882857Y-46770952D01*
X102501904Y-46342380D02*
X102501904Y-46580476D01*
X102263809Y-46485238D02*
X102501904Y-46580476D01*
X102740000Y-46485238D01*
X102359047Y-46770952D02*
X102501904Y-46580476D01*
X102644761Y-46770952D01*
X100146666Y-240852380D02*
X99813333Y-240376190D01*
X99575238Y-240852380D02*
X99575238Y-239852380D01*
X99956190Y-239852380D01*
X100051428Y-239900000D01*
X100099047Y-239947619D01*
X100146666Y-240042857D01*
X100146666Y-240185714D01*
X100099047Y-240280952D01*
X100051428Y-240328571D01*
X99956190Y-240376190D01*
X99575238Y-240376190D01*
X100575238Y-240328571D02*
X100908571Y-240328571D01*
X101051428Y-240852380D02*
X100575238Y-240852380D01*
X100575238Y-239852380D01*
X101051428Y-239852380D01*
X101813333Y-240328571D02*
X101480000Y-240328571D01*
X101480000Y-240852380D02*
X101480000Y-239852380D01*
X101956190Y-239852380D01*
X102480000Y-239852380D02*
X102480000Y-240090476D01*
X102241904Y-239995238D02*
X102480000Y-240090476D01*
X102718095Y-239995238D01*
X102337142Y-240280952D02*
X102480000Y-240090476D01*
X102622857Y-240280952D01*
X103241904Y-239852380D02*
X103241904Y-240090476D01*
X103003809Y-239995238D02*
X103241904Y-240090476D01*
X103480000Y-239995238D01*
X103099047Y-240280952D02*
X103241904Y-240090476D01*
X103384761Y-240280952D01*
X118166666Y-240992380D02*
X117833333Y-240516190D01*
X117595238Y-240992380D02*
X117595238Y-239992380D01*
X117976190Y-239992380D01*
X118071428Y-240040000D01*
X118119047Y-240087619D01*
X118166666Y-240182857D01*
X118166666Y-240325714D01*
X118119047Y-240420952D01*
X118071428Y-240468571D01*
X117976190Y-240516190D01*
X117595238Y-240516190D01*
X118595238Y-240468571D02*
X118928571Y-240468571D01*
X119071428Y-240992380D02*
X118595238Y-240992380D01*
X118595238Y-239992380D01*
X119071428Y-239992380D01*
X119833333Y-240468571D02*
X119500000Y-240468571D01*
X119500000Y-240992380D02*
X119500000Y-239992380D01*
X119976190Y-239992380D01*
X120500000Y-239992380D02*
X120500000Y-240230476D01*
X120261904Y-240135238D02*
X120500000Y-240230476D01*
X120738095Y-240135238D01*
X120357142Y-240420952D02*
X120500000Y-240230476D01*
X120642857Y-240420952D01*
X121261904Y-239992380D02*
X121261904Y-240230476D01*
X121023809Y-240135238D02*
X121261904Y-240230476D01*
X121500000Y-240135238D01*
X121119047Y-240420952D02*
X121261904Y-240230476D01*
X121404761Y-240420952D01*
M02*
