<?xml version="1.0" standalone="no"?>
 <!DOCTYPE svg PUBLIC "-//W3C//DTD SVG 1.1//EN" 
 "http://www.w3.org/Graphics/SVG/1.1/DTD/svg11.dtd"> 
<svg xmlns="http://www.w3.org/2000/svg" version="1.1" 
    width="29.7002cm" height="21.0007cm" viewBox="0 0 116930 82680 ">
<title>SVG Picture created as VCO440C-PR-F_Fab.svg date 2020/04/14 11:12:49 </title>
  <desc>Picture generated by PCBNEW </desc>
<g style="fill:#000000; fill-opacity:1;stroke:#000000; stroke-opacity:1;
stroke-linecap:round; stroke-linejoin:round; "
 transform="translate(0 0) scale(1 1)">
</g>
<g style="fill:#000000; fill-opacity:0.0; 
stroke:#000000; stroke-width:-0.000393701; stroke-opacity:1; 
stroke-linecap:round; stroke-linejoin:round;">
</g>
<g style="fill:#000000; fill-opacity:0.0; 
stroke:#000000; stroke-width:39.3701; stroke-opacity:1; 
stroke-linecap:round; stroke-linejoin:round;">
</g>
<g style="fill:#000000; fill-opacity:0.0; 
stroke:#000000; stroke-width:59.0551; stroke-opacity:1; 
stroke-linecap:round; stroke-linejoin:round;">
<rect x="69685.9" y="65357.2" width="42519.7" height="12598.4" rx="0" />
</g>
<g style="fill:#000000; fill-opacity:0.0; 
stroke:#000000; stroke-width:39.3701; stroke-opacity:1; 
stroke-linecap:round; stroke-linejoin:round;">
</g>
<g style="fill:#000000; fill-opacity:0.0; 
stroke:#000000; stroke-width:59.0551; stroke-opacity:1; 
stroke-linecap:round; stroke-linejoin:round;">
<rect x="3937.01" y="3937.01" width="109056" height="74806" rx="0" />
</g>
<g style="fill:#000000; fill-opacity:0.0; 
stroke:#000000; stroke-width:39.3701; stroke-opacity:1; 
stroke-linecap:round; stroke-linejoin:round;">
</g>
<g style="fill:#000000; fill-opacity:0.0; 
stroke:#000000; stroke-width:59.0551; stroke-opacity:1; 
stroke-linecap:round; stroke-linejoin:round;">
<rect x="4724.41" y="4724.41" width="107481" height="73231.2" rx="0" />
</g>
<g style="fill:#000000; fill-opacity:0.0; 
stroke:#000000; stroke-width:39.3701; stroke-opacity:1; 
stroke-linecap:round; stroke-linejoin:round;">
</g>
<g style="fill:#000000; fill-opacity:0.0; 
stroke:#000000; stroke-width:59.0551; stroke-opacity:1; 
stroke-linecap:round; stroke-linejoin:round;">
<path d="M23622 4724
L23622 3937
" />
</g>
<g style="fill:#000000; fill-opacity:0.0; 
stroke:#000000; stroke-width:39.3701; stroke-opacity:1; 
stroke-linecap:round; stroke-linejoin:round;">
</g>
<g style="fill:#000000; fill-opacity:0.0; 
stroke:#000000; stroke-width:59.0551; stroke-opacity:1; 
stroke-linecap:round; stroke-linejoin:round;">
<path d="M43307 4724
L43307 3937
" />
</g>
<g style="fill:#000000; fill-opacity:0.0; 
stroke:#000000; stroke-width:39.3701; stroke-opacity:1; 
stroke-linecap:round; stroke-linejoin:round;">
</g>
<g style="fill:#000000; fill-opacity:0.0; 
stroke:#000000; stroke-width:59.0551; stroke-opacity:1; 
stroke-linecap:round; stroke-linejoin:round;">
<path d="M62992 4724
L62992 3937
" />
</g>
<g style="fill:#000000; fill-opacity:0.0; 
stroke:#000000; stroke-width:39.3701; stroke-opacity:1; 
stroke-linecap:round; stroke-linejoin:round;">
</g>
<g style="fill:#000000; fill-opacity:0.0; 
stroke:#000000; stroke-width:59.0551; stroke-opacity:1; 
stroke-linecap:round; stroke-linejoin:round;">
<path d="M82677 4724
L82677 3937
" />
</g>
<g style="fill:#000000; fill-opacity:0.0; 
stroke:#000000; stroke-width:39.3701; stroke-opacity:1; 
stroke-linecap:round; stroke-linejoin:round;">
</g>
<g style="fill:#000000; fill-opacity:0.0; 
stroke:#000000; stroke-width:59.0551; stroke-opacity:1; 
stroke-linecap:round; stroke-linejoin:round;">
<path d="M102362 4724
L102362 3937
" />
</g>
<g style="fill:#000000; fill-opacity:0.0; 
stroke:#000000; stroke-width:39.3701; stroke-opacity:1; 
stroke-linecap:round; stroke-linejoin:round;">
</g>
<g style="fill:#000000; fill-opacity:0.0; 
stroke:#000000; stroke-width:59.0551; stroke-opacity:1; 
stroke-linecap:round; stroke-linejoin:round;">
<text x="13779.5" y="4586.61"
textLength="564.211" font-size="682.415" lengthAdjust="spacingAndGlyphs"
text-anchor="start" opacity="0">1</text>
<path d="M14199 4562
L13906 4562
" />
<path d="M14052 4562
L14052 4050
L14004 4123
L13955 4172
L13906 4196
" />
</g>
<g style="fill:#000000; fill-opacity:0.0; 
stroke:#000000; stroke-width:39.3701; stroke-opacity:1; 
stroke-linecap:round; stroke-linejoin:round;">
</g>
<g style="fill:#000000; fill-opacity:0.0; 
stroke:#000000; stroke-width:59.0551; stroke-opacity:1; 
stroke-linecap:round; stroke-linejoin:round;">
<text x="33464.6" y="4586.61"
textLength="546.494" font-size="682.415" lengthAdjust="spacingAndGlyphs"
text-anchor="start" opacity="0">2</text>
<path d="M33591 4099
L33615 4074
L33664 4050
L33786 4050
L33835 4074
L33859 4099
L33884 4147
L33884 4196
L33859 4269
L33567 4562
L33884 4562
" />
</g>
<g style="fill:#000000; fill-opacity:0.0; 
stroke:#000000; stroke-width:39.3701; stroke-opacity:1; 
stroke-linecap:round; stroke-linejoin:round;">
</g>
<g style="fill:#000000; fill-opacity:0.0; 
stroke:#000000; stroke-width:59.0551; stroke-opacity:1; 
stroke-linecap:round; stroke-linejoin:round;">
<text x="53149.6" y="4586.61"
textLength="546.494" font-size="682.415" lengthAdjust="spacingAndGlyphs"
text-anchor="start" opacity="0">3</text>
<path d="M53252 4050
L53569 4050
L53398 4245
L53471 4245
L53520 4269
L53544 4294
L53569 4342
L53569 4464
L53544 4513
L53520 4537
L53471 4562
L53325 4562
L53276 4537
L53252 4513
" />
</g>
<g style="fill:#000000; fill-opacity:0.0; 
stroke:#000000; stroke-width:39.3701; stroke-opacity:1; 
stroke-linecap:round; stroke-linejoin:round;">
</g>
<g style="fill:#000000; fill-opacity:0.0; 
stroke:#000000; stroke-width:59.0551; stroke-opacity:1; 
stroke-linecap:round; stroke-linejoin:round;">
<text x="72834.6" y="4586.61"
textLength="546.494" font-size="682.415" lengthAdjust="spacingAndGlyphs"
text-anchor="start" opacity="0">4</text>
<path d="M73205 4221
L73205 4562
" />
<path d="M73083 4026
L72961 4391
L73278 4391
" />
</g>
<g style="fill:#000000; fill-opacity:0.0; 
stroke:#000000; stroke-width:39.3701; stroke-opacity:1; 
stroke-linecap:round; stroke-linejoin:round;">
</g>
<g style="fill:#000000; fill-opacity:0.0; 
stroke:#000000; stroke-width:59.0551; stroke-opacity:1; 
stroke-linecap:round; stroke-linejoin:round;">
<text x="92519.7" y="4586.61"
textLength="546.494" font-size="682.415" lengthAdjust="spacingAndGlyphs"
text-anchor="start" opacity="0">5</text>
<path d="M92914 4050
L92671 4050
L92646 4294
L92671 4269
L92719 4245
L92841 4245
L92890 4269
L92914 4294
L92939 4342
L92939 4464
L92914 4513
L92890 4537
L92841 4562
L92719 4562
L92671 4537
L92646 4513
" />
</g>
<g style="fill:#000000; fill-opacity:0.0; 
stroke:#000000; stroke-width:39.3701; stroke-opacity:1; 
stroke-linecap:round; stroke-linejoin:round;">
</g>
<g style="fill:#000000; fill-opacity:0.0; 
stroke:#000000; stroke-width:59.0551; stroke-opacity:1; 
stroke-linecap:round; stroke-linejoin:round;">
<text x="112205" y="4586.61"
textLength="546.494" font-size="682.415" lengthAdjust="spacingAndGlyphs"
text-anchor="start" opacity="0">6</text>
<path d="M112575 4050
L112477 4050
L112429 4074
L112404 4099
L112356 4172
L112331 4269
L112331 4464
L112356 4513
L112380 4537
L112429 4562
L112526 4562
L112575 4537
L112599 4513
L112624 4464
L112624 4342
L112599 4294
L112575 4269
L112526 4245
L112429 4245
L112380 4269
L112356 4294
L112331 4342
" />
</g>
<g style="fill:#000000; fill-opacity:0.0; 
stroke:#000000; stroke-width:39.3701; stroke-opacity:1; 
stroke-linecap:round; stroke-linejoin:round;">
</g>
<g style="fill:#000000; fill-opacity:0.0; 
stroke:#000000; stroke-width:59.0551; stroke-opacity:1; 
stroke-linecap:round; stroke-linejoin:round;">
<path d="M23622 77955
L23622 78742
" />
</g>
<g style="fill:#000000; fill-opacity:0.0; 
stroke:#000000; stroke-width:39.3701; stroke-opacity:1; 
stroke-linecap:round; stroke-linejoin:round;">
</g>
<g style="fill:#000000; fill-opacity:0.0; 
stroke:#000000; stroke-width:59.0551; stroke-opacity:1; 
stroke-linecap:round; stroke-linejoin:round;">
<path d="M43307 77955
L43307 78742
" />
</g>
<g style="fill:#000000; fill-opacity:0.0; 
stroke:#000000; stroke-width:39.3701; stroke-opacity:1; 
stroke-linecap:round; stroke-linejoin:round;">
</g>
<g style="fill:#000000; fill-opacity:0.0; 
stroke:#000000; stroke-width:59.0551; stroke-opacity:1; 
stroke-linecap:round; stroke-linejoin:round;">
<path d="M62992 77955
L62992 78742
" />
</g>
<g style="fill:#000000; fill-opacity:0.0; 
stroke:#000000; stroke-width:39.3701; stroke-opacity:1; 
stroke-linecap:round; stroke-linejoin:round;">
</g>
<g style="fill:#000000; fill-opacity:0.0; 
stroke:#000000; stroke-width:59.0551; stroke-opacity:1; 
stroke-linecap:round; stroke-linejoin:round;">
<path d="M82677 77955
L82677 78742
" />
</g>
<g style="fill:#000000; fill-opacity:0.0; 
stroke:#000000; stroke-width:39.3701; stroke-opacity:1; 
stroke-linecap:round; stroke-linejoin:round;">
</g>
<g style="fill:#000000; fill-opacity:0.0; 
stroke:#000000; stroke-width:59.0551; stroke-opacity:1; 
stroke-linecap:round; stroke-linejoin:round;">
<path d="M102362 77955
L102362 78742
" />
</g>
<g style="fill:#000000; fill-opacity:0.0; 
stroke:#000000; stroke-width:39.3701; stroke-opacity:1; 
stroke-linecap:round; stroke-linejoin:round;">
</g>
<g style="fill:#000000; fill-opacity:0.0; 
stroke:#000000; stroke-width:59.0551; stroke-opacity:1; 
stroke-linecap:round; stroke-linejoin:round;">
<text x="13779.5" y="78605.2"
textLength="546.494" font-size="682.415" lengthAdjust="spacingAndGlyphs"
text-anchor="start" opacity="0">1</text>
<path d="M14199 78580
L13906 78580
" />
<path d="M14052 78580
L14052 78069
L14004 78142
L13955 78190
L13906 78215
" />
</g>
<g style="fill:#000000; fill-opacity:0.0; 
stroke:#000000; stroke-width:39.3701; stroke-opacity:1; 
stroke-linecap:round; stroke-linejoin:round;">
</g>
<g style="fill:#000000; fill-opacity:0.0; 
stroke:#000000; stroke-width:59.0551; stroke-opacity:1; 
stroke-linecap:round; stroke-linejoin:round;">
<text x="33464.6" y="78605.2"
textLength="546.494" font-size="682.415" lengthAdjust="spacingAndGlyphs"
text-anchor="start" opacity="0">2</text>
<path d="M33591 78117
L33615 78093
L33664 78069
L33786 78069
L33835 78093
L33859 78117
L33884 78166
L33884 78215
L33859 78288
L33567 78580
L33884 78580
" />
</g>
<g style="fill:#000000; fill-opacity:0.0; 
stroke:#000000; stroke-width:39.3701; stroke-opacity:1; 
stroke-linecap:round; stroke-linejoin:round;">
</g>
<g style="fill:#000000; fill-opacity:0.0; 
stroke:#000000; stroke-width:59.0551; stroke-opacity:1; 
stroke-linecap:round; stroke-linejoin:round;">
<text x="53149.6" y="78605.2"
textLength="546.494" font-size="682.415" lengthAdjust="spacingAndGlyphs"
text-anchor="start" opacity="0">3</text>
<path d="M53252 78069
L53569 78069
L53398 78263
L53471 78263
L53520 78288
L53544 78312
L53569 78361
L53569 78483
L53544 78532
L53520 78556
L53471 78580
L53325 78580
L53276 78556
L53252 78532
" />
</g>
<g style="fill:#000000; fill-opacity:0.0; 
stroke:#000000; stroke-width:39.3701; stroke-opacity:1; 
stroke-linecap:round; stroke-linejoin:round;">
</g>
<g style="fill:#000000; fill-opacity:0.0; 
stroke:#000000; stroke-width:59.0551; stroke-opacity:1; 
stroke-linecap:round; stroke-linejoin:round;">
<text x="72834.6" y="78605.2"
textLength="546.494" font-size="682.415" lengthAdjust="spacingAndGlyphs"
text-anchor="start" opacity="0">4</text>
<path d="M73205 78239
L73205 78580
" />
<path d="M73083 78044
L72961 78410
L73278 78410
" />
</g>
<g style="fill:#000000; fill-opacity:0.0; 
stroke:#000000; stroke-width:39.3701; stroke-opacity:1; 
stroke-linecap:round; stroke-linejoin:round;">
</g>
<g style="fill:#000000; fill-opacity:0.0; 
stroke:#000000; stroke-width:59.0551; stroke-opacity:1; 
stroke-linecap:round; stroke-linejoin:round;">
<text x="92519.7" y="78605.2"
textLength="546.494" font-size="682.415" lengthAdjust="spacingAndGlyphs"
text-anchor="start" opacity="0">5</text>
<path d="M92914 78069
L92671 78069
L92646 78312
L92671 78288
L92719 78263
L92841 78263
L92890 78288
L92914 78312
L92939 78361
L92939 78483
L92914 78532
L92890 78556
L92841 78580
L92719 78580
L92671 78556
L92646 78532
" />
</g>
<g style="fill:#000000; fill-opacity:0.0; 
stroke:#000000; stroke-width:39.3701; stroke-opacity:1; 
stroke-linecap:round; stroke-linejoin:round;">
</g>
<g style="fill:#000000; fill-opacity:0.0; 
stroke:#000000; stroke-width:59.0551; stroke-opacity:1; 
stroke-linecap:round; stroke-linejoin:round;">
<text x="112205" y="78605.2"
textLength="546.494" font-size="682.415" lengthAdjust="spacingAndGlyphs"
text-anchor="start" opacity="0">6</text>
<path d="M112575 78069
L112477 78069
L112429 78093
L112404 78117
L112356 78190
L112331 78288
L112331 78483
L112356 78532
L112380 78556
L112429 78580
L112526 78580
L112575 78556
L112599 78532
L112624 78483
L112624 78361
L112599 78312
L112575 78288
L112526 78263
L112429 78263
L112380 78288
L112356 78312
L112331 78361
" />
</g>
<g style="fill:#000000; fill-opacity:0.0; 
stroke:#000000; stroke-width:39.3701; stroke-opacity:1; 
stroke-linecap:round; stroke-linejoin:round;">
</g>
<g style="fill:#000000; fill-opacity:0.0; 
stroke:#000000; stroke-width:59.0551; stroke-opacity:1; 
stroke-linecap:round; stroke-linejoin:round;">
<path d="M3937 23622
L4724 23622
" />
</g>
<g style="fill:#000000; fill-opacity:0.0; 
stroke:#000000; stroke-width:39.3701; stroke-opacity:1; 
stroke-linecap:round; stroke-linejoin:round;">
</g>
<g style="fill:#000000; fill-opacity:0.0; 
stroke:#000000; stroke-width:59.0551; stroke-opacity:1; 
stroke-linecap:round; stroke-linejoin:round;">
<path d="M3937 43307
L4724 43307
" />
</g>
<g style="fill:#000000; fill-opacity:0.0; 
stroke:#000000; stroke-width:39.3701; stroke-opacity:1; 
stroke-linecap:round; stroke-linejoin:round;">
</g>
<g style="fill:#000000; fill-opacity:0.0; 
stroke:#000000; stroke-width:59.0551; stroke-opacity:1; 
stroke-linecap:round; stroke-linejoin:round;">
<path d="M3937 62992
L4724 62992
" />
</g>
<g style="fill:#000000; fill-opacity:0.0; 
stroke:#000000; stroke-width:39.3701; stroke-opacity:1; 
stroke-linecap:round; stroke-linejoin:round;">
</g>
<g style="fill:#000000; fill-opacity:0.0; 
stroke:#000000; stroke-width:59.0551; stroke-opacity:1; 
stroke-linecap:round; stroke-linejoin:round;">
<text x="4330.71" y="14035.4"
textLength="497.75" font-size="682.415" lengthAdjust="spacingAndGlyphs"
text-anchor="middle" opacity="0">A</text>
<path d="M4208 13864
L4452 13864
" />
<path d="M4160 14011
L4330 13499
L4501 14011
" />
</g>
<g style="fill:#000000; fill-opacity:0.0; 
stroke:#000000; stroke-width:39.3701; stroke-opacity:1; 
stroke-linecap:round; stroke-linejoin:round;">
</g>
<g style="fill:#000000; fill-opacity:0.0; 
stroke:#000000; stroke-width:59.0551; stroke-opacity:1; 
stroke-linecap:round; stroke-linejoin:round;">
<text x="4330.71" y="33720.5"
textLength="570.866" font-size="682.415" lengthAdjust="spacingAndGlyphs"
text-anchor="middle" opacity="0">B</text>
<path d="M4367 33428
L4440 33452
L4464 33476
L4489 33525
L4489 33598
L4464 33647
L4440 33671
L4391 33696
L4196 33696
L4196 33184
L4367 33184
L4416 33208
L4440 33233
L4464 33281
L4464 33330
L4440 33379
L4416 33403
L4367 33428
L4196 33428
" />
</g>
<g style="fill:#000000; fill-opacity:0.0; 
stroke:#000000; stroke-width:39.3701; stroke-opacity:1; 
stroke-linecap:round; stroke-linejoin:round;">
</g>
<g style="fill:#000000; fill-opacity:0.0; 
stroke:#000000; stroke-width:59.0551; stroke-opacity:1; 
stroke-linecap:round; stroke-linejoin:round;">
<text x="4330.71" y="53405.5"
textLength="570.866" font-size="682.415" lengthAdjust="spacingAndGlyphs"
text-anchor="middle" opacity="0">C</text>
<path d="M4489 53332
L4464 53356
L4391 53381
L4342 53381
L4269 53356
L4221 53308
L4196 53259
L4172 53161
L4172 53088
L4196 52991
L4221 52942
L4269 52893
L4342 52869
L4391 52869
L4464 52893
L4489 52918
" />
</g>
<g style="fill:#000000; fill-opacity:0.0; 
stroke:#000000; stroke-width:39.3701; stroke-opacity:1; 
stroke-linecap:round; stroke-linejoin:round;">
</g>
<g style="fill:#000000; fill-opacity:0.0; 
stroke:#000000; stroke-width:59.0551; stroke-opacity:1; 
stroke-linecap:round; stroke-linejoin:round;">
<text x="4330.71" y="73090.6"
textLength="570.866" font-size="682.415" lengthAdjust="spacingAndGlyphs"
text-anchor="middle" opacity="0">D</text>
<path d="M4196 73066
L4196 72554
L4318 72554
L4391 72578
L4440 72627
L4464 72676
L4489 72773
L4489 72846
L4464 72944
L4440 72993
L4391 73041
L4318 73066
L4196 73066
" />
</g>
<g style="fill:#000000; fill-opacity:0.0; 
stroke:#000000; stroke-width:39.3701; stroke-opacity:1; 
stroke-linecap:round; stroke-linejoin:round;">
</g>
<g style="fill:#000000; fill-opacity:0.0; 
stroke:#000000; stroke-width:59.0551; stroke-opacity:1; 
stroke-linecap:round; stroke-linejoin:round;">
<path d="M112992 23622
L112205 23622
" />
</g>
<g style="fill:#000000; fill-opacity:0.0; 
stroke:#000000; stroke-width:39.3701; stroke-opacity:1; 
stroke-linecap:round; stroke-linejoin:round;">
</g>
<g style="fill:#000000; fill-opacity:0.0; 
stroke:#000000; stroke-width:59.0551; stroke-opacity:1; 
stroke-linecap:round; stroke-linejoin:round;">
<path d="M112992 43307
L112205 43307
" />
</g>
<g style="fill:#000000; fill-opacity:0.0; 
stroke:#000000; stroke-width:39.3701; stroke-opacity:1; 
stroke-linecap:round; stroke-linejoin:round;">
</g>
<g style="fill:#000000; fill-opacity:0.0; 
stroke:#000000; stroke-width:59.0551; stroke-opacity:1; 
stroke-linecap:round; stroke-linejoin:round;">
<path d="M112992 62992
L112205 62992
" />
</g>
<g style="fill:#000000; fill-opacity:0.0; 
stroke:#000000; stroke-width:39.3701; stroke-opacity:1; 
stroke-linecap:round; stroke-linejoin:round;">
</g>
<g style="fill:#000000; fill-opacity:0.0; 
stroke:#000000; stroke-width:59.0551; stroke-opacity:1; 
stroke-linecap:round; stroke-linejoin:round;">
<text x="112599" y="14035.4"
textLength="497.75" font-size="682.415" lengthAdjust="spacingAndGlyphs"
text-anchor="middle" opacity="0">A</text>
<path d="M112477 13864
L112721 13864
" />
<path d="M112428 14011
L112599 13499
L112769 14011
" />
</g>
<g style="fill:#000000; fill-opacity:0.0; 
stroke:#000000; stroke-width:39.3701; stroke-opacity:1; 
stroke-linecap:round; stroke-linejoin:round;">
</g>
<g style="fill:#000000; fill-opacity:0.0; 
stroke:#000000; stroke-width:59.0551; stroke-opacity:1; 
stroke-linecap:round; stroke-linejoin:round;">
<text x="112599" y="33720.5"
textLength="570.866" font-size="682.415" lengthAdjust="spacingAndGlyphs"
text-anchor="middle" opacity="0">B</text>
<path d="M112635 33428
L112708 33452
L112733 33476
L112757 33525
L112757 33598
L112733 33647
L112708 33671
L112660 33696
L112465 33696
L112465 33184
L112635 33184
L112684 33208
L112708 33233
L112733 33281
L112733 33330
L112708 33379
L112684 33403
L112635 33428
L112465 33428
" />
</g>
<g style="fill:#000000; fill-opacity:0.0; 
stroke:#000000; stroke-width:39.3701; stroke-opacity:1; 
stroke-linecap:round; stroke-linejoin:round;">
</g>
<g style="fill:#000000; fill-opacity:0.0; 
stroke:#000000; stroke-width:59.0551; stroke-opacity:1; 
stroke-linecap:round; stroke-linejoin:round;">
<text x="112599" y="53405.5"
textLength="570.866" font-size="682.415" lengthAdjust="spacingAndGlyphs"
text-anchor="middle" opacity="0">C</text>
<path d="M112757 53332
L112733 53356
L112660 53381
L112611 53381
L112538 53356
L112489 53308
L112465 53259
L112440 53161
L112440 53088
L112465 52991
L112489 52942
L112538 52893
L112611 52869
L112660 52869
L112733 52893
L112757 52918
" />
</g>
<g style="fill:#000000; fill-opacity:0.0; 
stroke:#000000; stroke-width:39.3701; stroke-opacity:1; 
stroke-linecap:round; stroke-linejoin:round;">
</g>
<g style="fill:#000000; fill-opacity:0.0; 
stroke:#000000; stroke-width:59.0551; stroke-opacity:1; 
stroke-linecap:round; stroke-linejoin:round;">
<text x="112599" y="73090.6"
textLength="570.866" font-size="682.415" lengthAdjust="spacingAndGlyphs"
text-anchor="middle" opacity="0">D</text>
<path d="M112465 73066
L112465 72554
L112587 72554
L112660 72578
L112708 72627
L112733 72676
L112757 72773
L112757 72846
L112733 72944
L112708 72993
L112660 73041
L112587 73066
L112465 73066
" />
</g>
<g style="fill:#000000; fill-opacity:0.0; 
stroke:#000000; stroke-width:39.3701; stroke-opacity:1; 
stroke-linecap:round; stroke-linejoin:round;">
</g>
<g style="fill:#000000; fill-opacity:0.0; 
stroke:#000000; stroke-width:59.0551; stroke-opacity:1; 
stroke-linecap:round; stroke-linejoin:round;">
<text x="78741" y="76321.7"
textLength="2758.72" font-size="787.402" lengthAdjust="spacingAndGlyphs"
text-anchor="start" opacity="0">Date: </text>
<path d="M78911 76293
L78911 75703
L79051 75703
L79136 75731
L79192 75787
L79220 75843
L79248 75956
L79248 76040
L79220 76153
L79192 76209
L79136 76265
L79051 76293
L78911 76293
" />
<path d="M79754 76293
L79754 75984
L79726 75928
L79670 75899
L79557 75899
L79501 75928
" />
<path d="M79754 76265
L79698 76293
L79557 76293
L79501 76265
L79473 76209
L79473 76153
L79501 76096
L79557 76068
L79698 76068
L79754 76040
" />
<path d="M79951 75899
L80176 75899
" />
<path d="M80036 75703
L80036 76209
L80064 76265
L80120 76293
L80176 76293
" />
<path d="M80598 76265
L80542 76293
L80429 76293
L80373 76265
L80345 76209
L80345 75984
L80373 75928
L80429 75899
L80542 75899
L80598 75928
L80626 75984
L80626 76040
L80345 76096
" />
<path d="M80879 76237
L80907 76265
L80879 76293
L80851 76265
L80879 76237
L80879 76293
" />
<path d="M80879 75928
L80907 75956
L80879 75984
L80851 75956
L80879 75928
L80879 75984
" />
</g>
<g style="fill:#000000; fill-opacity:0.0; 
stroke:#000000; stroke-width:39.3701; stroke-opacity:1; 
stroke-linecap:round; stroke-linejoin:round;">
</g>
<g style="fill:#000000; fill-opacity:0.0; 
stroke:#000000; stroke-width:59.0551; stroke-opacity:1; 
stroke-linecap:round; stroke-linejoin:round;">
<path d="M69685 76577
L112205 76577
" />
</g>
<g style="fill:#000000; fill-opacity:0.0; 
stroke:#000000; stroke-width:39.3701; stroke-opacity:1; 
stroke-linecap:round; stroke-linejoin:round;">
</g>
<g style="fill:#000000; fill-opacity:0.0; 
stroke:#000000; stroke-width:59.0551; stroke-opacity:1; 
stroke-linecap:round; stroke-linejoin:round;">
<text x="70079.6" y="77424.1"
textLength="14429.1" font-size="787.402" lengthAdjust="spacingAndGlyphs"
text-anchor="start" opacity="0">KiCad E.D.A.  pcbnew (5.1.5)-3</text>
<path d="M70249 77395
L70249 76805
" />
<path d="M70587 77395
L70334 77058
" />
<path d="M70587 76805
L70249 77142
" />
<path d="M70840 77395
L70840 77002
" />
<path d="M70840 76805
L70812 76833
L70840 76861
L70868 76833
L70840 76805
L70840 76861
" />
<path d="M71458 77339
L71430 77367
L71346 77395
L71290 77395
L71205 77367
L71149 77311
L71121 77255
L71093 77142
L71093 77058
L71121 76946
L71149 76889
L71205 76833
L71290 76805
L71346 76805
L71430 76833
L71458 76861
" />
<path d="M71965 77395
L71965 77086
L71937 77030
L71880 77002
L71768 77002
L71712 77030
" />
<path d="M71965 77367
L71908 77395
L71768 77395
L71712 77367
L71683 77311
L71683 77255
L71712 77199
L71768 77171
L71908 77171
L71965 77142
" />
<path d="M72499 77395
L72499 76805
" />
<path d="M72499 77367
L72443 77395
L72330 77395
L72274 77367
L72246 77339
L72218 77283
L72218 77114
L72246 77058
L72274 77030
L72330 77002
L72443 77002
L72499 77030
" />
<path d="M73230 77086
L73427 77086
" />
<path d="M73511 77395
L73230 77395
L73230 76805
L73511 76805
" />
<path d="M73764 77339
L73793 77367
L73764 77395
L73736 77367
L73764 77339
L73764 77395
" />
<path d="M74046 77395
L74046 76805
L74186 76805
L74271 76833
L74327 76889
L74355 76946
L74383 77058
L74383 77142
L74355 77255
L74327 77311
L74271 77367
L74186 77395
L74046 77395
" />
<path d="M74636 77339
L74664 77367
L74636 77395
L74608 77367
L74636 77339
L74636 77395
" />
<path d="M74889 77227
L75171 77227
" />
<path d="M74833 77395
L75030 76805
L75227 77395
" />
<path d="M75424 77339
L75452 77367
L75424 77395
L75395 77367
L75424 77339
L75424 77395
" />
<path d="M76605 77002
L76605 77592
" />
<path d="M76605 77030
L76661 77002
L76773 77002
L76830 77030
L76858 77058
L76886 77114
L76886 77283
L76858 77339
L76830 77367
L76773 77395
L76661 77395
L76605 77367
" />
<path d="M77392 77367
L77336 77395
L77223 77395
L77167 77367
L77139 77339
L77111 77283
L77111 77114
L77139 77058
L77167 77030
L77223 77002
L77336 77002
L77392 77030
" />
<path d="M77645 77395
L77645 76805
" />
<path d="M77645 77030
L77701 77002
L77814 77002
L77870 77030
L77898 77058
L77926 77114
L77926 77283
L77898 77339
L77870 77367
L77814 77395
L77701 77395
L77645 77367
" />
<path d="M78180 77002
L78180 77395
" />
<path d="M78180 77058
L78208 77030
L78264 77002
L78348 77002
L78404 77030
L78433 77086
L78433 77395
" />
<path d="M78939 77367
L78883 77395
L78770 77395
L78714 77367
L78686 77311
L78686 77086
L78714 77030
L78770 77002
L78883 77002
L78939 77030
L78967 77086
L78967 77142
L78686 77199
" />
<path d="M79164 77002
L79276 77395
L79389 77114
L79501 77395
L79614 77002
" />
<path d="M80457 77620
L80429 77592
L80373 77508
L80345 77452
L80317 77367
L80289 77227
L80289 77114
L80317 76974
L80345 76889
L80373 76833
L80429 76749
L80457 76721
" />
<path d="M80964 76805
L80682 76805
L80654 77086
L80682 77058
L80739 77030
L80879 77030
L80935 77058
L80964 77086
L80992 77142
L80992 77283
L80964 77339
L80935 77367
L80879 77395
L80739 77395
L80682 77367
L80654 77339
" />
<path d="M81245 77339
L81273 77367
L81245 77395
L81217 77367
L81245 77339
L81245 77395
" />
<path d="M81835 77395
L81498 77395
" />
<path d="M81667 77395
L81667 76805
L81610 76889
L81554 76946
L81498 76974
" />
<path d="M82088 77339
L82117 77367
L82088 77395
L82060 77367
L82088 77339
L82088 77395
" />
<path d="M82651 76805
L82370 76805
L82341 77086
L82370 77058
L82426 77030
L82566 77030
L82623 77058
L82651 77086
L82679 77142
L82679 77283
L82651 77339
L82623 77367
L82566 77395
L82426 77395
L82370 77367
L82341 77339
" />
<path d="M82876 77620
L82904 77592
L82960 77508
L82988 77452
L83016 77367
L83045 77227
L83045 77114
L83016 76974
L82988 76889
L82960 76833
L82904 76749
L82876 76721
" />
<path d="M83326 77171
L83776 77171
" />
<path d="M84001 76805
L84366 76805
L84169 77030
L84254 77030
L84310 77058
L84338 77086
L84366 77142
L84366 77283
L84338 77339
L84310 77367
L84254 77395
L84085 77395
L84029 77367
L84001 77339
" />
</g>
<g style="fill:#000000; fill-opacity:0.0; 
stroke:#000000; stroke-width:39.3701; stroke-opacity:1; 
stroke-linecap:round; stroke-linejoin:round;">
</g>
<g style="fill:#000000; fill-opacity:0.0; 
stroke:#000000; stroke-width:59.0551; stroke-opacity:1; 
stroke-linecap:round; stroke-linejoin:round;">
<path d="M69685 75396
L112205 75396
" />
</g>
<g style="fill:#000000; fill-opacity:0.0; 
stroke:#000000; stroke-width:39.3701; stroke-opacity:1; 
stroke-linecap:round; stroke-linejoin:round;">
</g>
<g style="fill:#000000; fill-opacity:0.0; 
stroke:#000000; stroke-width:118.11; stroke-opacity:1; 
stroke-linecap:round; stroke-linejoin:round;">
<text x="103544" y="76321.7"
textLength="2336.9" font-size="787.402" lengthAdjust="spacingAndGlyphs"
text-anchor="start" opacity="0">Rev: </text>
<path d="M104099 76293
L103902 76012
" />
<path d="M103761 76293
L103761 75703
L103986 75703
L104042 75731
L104070 75759
L104099 75815
L104099 75899
L104070 75956
L104042 75984
L103986 76012
L103761 76012
" />
<path d="M104577 76265
L104520 76293
L104408 76293
L104352 76265
L104323 76209
L104323 75984
L104352 75928
L104408 75899
L104520 75899
L104577 75928
L104605 75984
L104605 76040
L104323 76096
" />
<path d="M104802 75899
L104942 76293
L105083 75899
" />
<path d="M105308 76237
L105336 76265
L105308 76293
L105280 76265
L105308 76237
L105308 76293
" />
<path d="M105308 75928
L105336 75956
L105308 75984
L105280 75956
L105308 75928
L105308 75984
" />
</g>
<g style="fill:#000000; fill-opacity:0.0; 
stroke:#000000; stroke-width:39.3701; stroke-opacity:1; 
stroke-linecap:round; stroke-linejoin:round;">
</g>
<g style="fill:#000000; fill-opacity:0.0; 
stroke:#000000; stroke-width:59.0551; stroke-opacity:1; 
stroke-linecap:round; stroke-linejoin:round;">
<text x="70079.6" y="76321.7"
textLength="3781.21" font-size="787.402" lengthAdjust="spacingAndGlyphs"
text-anchor="start" opacity="0">Size: A4</text>
<path d="M70221 76265
L70305 76293
L70446 76293
L70502 76265
L70530 76237
L70559 76181
L70559 76124
L70530 76068
L70502 76040
L70446 76012
L70334 75984
L70277 75956
L70249 75928
L70221 75871
L70221 75815
L70249 75759
L70277 75731
L70334 75703
L70474 75703
L70559 75731
" />
<path d="M70812 76293
L70812 75899
" />
<path d="M70812 75703
L70784 75731
L70812 75759
L70840 75731
L70812 75703
L70812 75759
" />
<path d="M71037 75899
L71346 75899
L71037 76293
L71346 76293
" />
<path d="M71796 76265
L71740 76293
L71627 76293
L71571 76265
L71543 76209
L71543 75984
L71571 75928
L71627 75899
L71740 75899
L71796 75928
L71824 75984
L71824 76040
L71543 76096
" />
<path d="M72077 76237
L72105 76265
L72077 76293
L72049 76265
L72077 76237
L72077 76293
" />
<path d="M72077 75928
L72105 75956
L72077 75984
L72049 75956
L72077 75928
L72077 75984
" />
<path d="M72780 76124
L73061 76124
" />
<path d="M72724 76293
L72921 75703
L73118 76293
" />
<path d="M73568 75899
L73568 76293
" />
<path d="M73427 75674
L73286 76096
L73652 76096
" />
</g>
<g style="fill:#000000; fill-opacity:0.0; 
stroke:#000000; stroke-width:39.3701; stroke-opacity:1; 
stroke-linecap:round; stroke-linejoin:round;">
</g>
<g style="fill:#000000; fill-opacity:0.0; 
stroke:#000000; stroke-width:59.0551; stroke-opacity:1; 
stroke-linecap:round; stroke-linejoin:round;">
<text x="103544" y="77424.1"
textLength="3349.27" font-size="787.402" lengthAdjust="spacingAndGlyphs"
text-anchor="start" opacity="0">Id: 1/1</text>
<path d="M103714 77395
L103714 76805
" />
<path d="M104248 77395
L104248 76805
" />
<path d="M104248 77367
L104192 77395
L104079 77395
L104023 77367
L103995 77339
L103967 77283
L103967 77114
L103995 77058
L104023 77030
L104079 77002
L104192 77002
L104248 77030
" />
<path d="M104529 77339
L104557 77367
L104529 77395
L104501 77367
L104529 77339
L104529 77395
" />
<path d="M104529 77030
L104557 77058
L104529 77086
L104501 77058
L104529 77030
L104529 77086
" />
<path d="M105570 77395
L105232 77395
" />
<path d="M105401 77395
L105401 76805
L105345 76889
L105289 76946
L105232 76974
" />
<path d="M106245 76777
L105739 77536
" />
<path d="M106751 77395
L106413 77395
" />
<path d="M106582 77395
L106582 76805
L106526 76889
L106470 76946
L106413 76974
" />
</g>
<g style="fill:#000000; fill-opacity:0.0; 
stroke:#000000; stroke-width:39.3701; stroke-opacity:1; 
stroke-linecap:round; stroke-linejoin:round;">
</g>
<g style="fill:#000000; fill-opacity:0.0; 
stroke:#000000; stroke-width:59.0551; stroke-opacity:1; 
stroke-linecap:round; stroke-linejoin:round;">
<path d="M69685 73821
L112205 73821
" />
</g>
<g style="fill:#000000; fill-opacity:0.0; 
stroke:#000000; stroke-width:39.3701; stroke-opacity:1; 
stroke-linecap:round; stroke-linejoin:round;">
</g>
<g style="fill:#000000; fill-opacity:0.0; 
stroke:#000000; stroke-width:157.48; stroke-opacity:1; 
stroke-linecap:round; stroke-linejoin:round;">
<text x="70079.6" y="74924.1"
textLength="3701.14" font-size="1049.87" lengthAdjust="spacingAndGlyphs"
text-anchor="start" opacity="0">Title: </text>
<path d="M70360 74099
L70810 74099
" />
<path d="M70486 74886
L70585 74099
" />
<path d="M70974 74886
L71039 74361
" />
<path d="M71072 74099
L71030 74136
L71063 74174
L71105 74136
L71072 74099
L71063 74174
" />
<path d="M71302 74361
L71602 74361
" />
<path d="M71447 74099
L71363 74774
L71391 74849
L71461 74886
L71536 74886
" />
<path d="M71911 74886
L71841 74849
L71813 74774
L71897 74099
" />
<path d="M72516 74849
L72436 74886
L72286 74886
L72216 74849
L72187 74774
L72225 74474
L72272 74399
L72352 74361
L72501 74361
L72572 74399
L72600 74474
L72591 74549
L72206 74624
" />
<path d="M72895 74811
L72928 74849
L72886 74886
L72853 74849
L72895 74811
L72886 74886
" />
<path d="M72947 74399
L72980 74436
L72937 74474
L72905 74436
L72947 74399
L72937 74474
" />
</g>
<g style="fill:#000000; fill-opacity:0.0; 
stroke:#000000; stroke-width:39.3701; stroke-opacity:1; 
stroke-linecap:round; stroke-linejoin:round;">
</g>
<g style="fill:#000000; fill-opacity:0.0; 
stroke:#000000; stroke-width:59.0551; stroke-opacity:1; 
stroke-linecap:round; stroke-linejoin:round;">
<text x="70079.6" y="73408.3"
textLength="13084.4" font-size="787.402" lengthAdjust="spacingAndGlyphs"
text-anchor="start" opacity="0">File: VCO440C-PR.kicad_pcb</text>
<path d="M70446 73070
L70249 73070
" />
<path d="M70249 73380
L70249 72789
L70530 72789
" />
<path d="M70755 73380
L70755 72986
" />
<path d="M70755 72789
L70727 72817
L70755 72845
L70784 72817
L70755 72789
L70755 72845
" />
<path d="M71121 73380
L71065 73352
L71037 73295
L71037 72789
" />
<path d="M71571 73352
L71515 73380
L71402 73380
L71346 73352
L71318 73295
L71318 73070
L71346 73014
L71402 72986
L71515 72986
L71571 73014
L71599 73070
L71599 73127
L71318 73183
" />
<path d="M71852 73323
L71880 73352
L71852 73380
L71824 73352
L71852 73323
L71852 73380
" />
<path d="M71852 73014
L71880 73042
L71852 73070
L71824 73042
L71852 73014
L71852 73070
" />
<path d="M72499 72789
L72696 73380
L72893 72789
" />
<path d="M73427 73323
L73399 73352
L73314 73380
L73258 73380
L73174 73352
L73118 73295
L73090 73239
L73061 73127
L73061 73042
L73090 72930
L73118 72874
L73174 72817
L73258 72789
L73314 72789
L73399 72817
L73427 72845
" />
<path d="M73793 72789
L73905 72789
L73961 72817
L74018 72874
L74046 72986
L74046 73183
L74018 73295
L73961 73352
L73905 73380
L73793 73380
L73736 73352
L73680 73295
L73652 73183
L73652 72986
L73680 72874
L73736 72817
L73793 72789
" />
<path d="M74552 72986
L74552 73380
" />
<path d="M74411 72761
L74271 73183
L74636 73183
" />
<path d="M75114 72986
L75114 73380
" />
<path d="M74974 72761
L74833 73183
L75199 73183
" />
<path d="M75536 72789
L75592 72789
L75649 72817
L75677 72845
L75705 72902
L75733 73014
L75733 73155
L75705 73267
L75677 73323
L75649 73352
L75592 73380
L75536 73380
L75480 73352
L75452 73323
L75424 73267
L75395 73155
L75395 73014
L75424 72902
L75452 72845
L75480 72817
L75536 72789
" />
<path d="M76323 73323
L76295 73352
L76211 73380
L76155 73380
L76070 73352
L76014 73295
L75986 73239
L75958 73127
L75958 73042
L75986 72930
L76014 72874
L76070 72817
L76155 72789
L76211 72789
L76295 72817
L76323 72845
" />
<path d="M76577 73155
L77027 73155
" />
<path d="M77308 73380
L77308 72789
L77533 72789
L77589 72817
L77617 72845
L77645 72902
L77645 72986
L77617 73042
L77589 73070
L77533 73099
L77308 73099
" />
<path d="M78236 73380
L78039 73099
" />
<path d="M77898 73380
L77898 72789
L78123 72789
L78180 72817
L78208 72845
L78236 72902
L78236 72986
L78208 73042
L78180 73070
L78123 73099
L77898 73099
" />
<path d="M78489 73323
L78517 73352
L78489 73380
L78461 73352
L78489 73323
L78489 73380
" />
<path d="M78770 73380
L78770 72789
" />
<path d="M78826 73155
L78995 73380
" />
<path d="M78995 72986
L78770 73211
" />
<path d="M79248 73380
L79248 72986
" />
<path d="M79248 72789
L79220 72817
L79248 72845
L79276 72817
L79248 72789
L79248 72845
" />
<path d="M79782 73352
L79726 73380
L79614 73380
L79557 73352
L79529 73323
L79501 73267
L79501 73099
L79529 73042
L79557 73014
L79614 72986
L79726 72986
L79782 73014
" />
<path d="M80289 73380
L80289 73070
L80260 73014
L80204 72986
L80092 72986
L80036 73014
" />
<path d="M80289 73352
L80232 73380
L80092 73380
L80036 73352
L80007 73295
L80007 73239
L80036 73183
L80092 73155
L80232 73155
L80289 73127
" />
<path d="M80823 73380
L80823 72789
" />
<path d="M80823 73352
L80767 73380
L80654 73380
L80598 73352
L80570 73323
L80542 73267
L80542 73099
L80570 73042
L80598 73014
L80654 72986
L80767 72986
L80823 73014
" />
<path d="M80964 73436
L81413 73436
" />
<path d="M81554 72986
L81554 73577
" />
<path d="M81554 73014
L81610 72986
L81723 72986
L81779 73014
L81807 73042
L81835 73099
L81835 73267
L81807 73323
L81779 73352
L81723 73380
L81610 73380
L81554 73352
" />
<path d="M82341 73352
L82285 73380
L82173 73380
L82117 73352
L82088 73323
L82060 73267
L82060 73099
L82088 73042
L82117 73014
L82173 72986
L82285 72986
L82341 73014
" />
<path d="M82595 73380
L82595 72789
" />
<path d="M82595 73014
L82651 72986
L82763 72986
L82820 73014
L82848 73042
L82876 73099
L82876 73267
L82848 73323
L82820 73352
L82763 73380
L82651 73380
L82595 73352
" />
</g>
<g style="fill:#000000; fill-opacity:0.0; 
stroke:#000000; stroke-width:39.3701; stroke-opacity:1; 
stroke-linecap:round; stroke-linejoin:round;">
</g>
<g style="fill:#000000; fill-opacity:0.0; 
stroke:#000000; stroke-width:59.0551; stroke-opacity:1; 
stroke-linecap:round; stroke-linejoin:round;">
<path d="M69685 71459
L112205 71459
" />
</g>
<g style="fill:#000000; fill-opacity:0.0; 
stroke:#000000; stroke-width:39.3701; stroke-opacity:1; 
stroke-linecap:round; stroke-linejoin:round;">
</g>
<g style="fill:#000000; fill-opacity:0.0; 
stroke:#000000; stroke-width:59.0551; stroke-opacity:1; 
stroke-linecap:round; stroke-linejoin:round;">
<text x="70079.6" y="72345.4"
textLength="3236.78" font-size="787.402" lengthAdjust="spacingAndGlyphs"
text-anchor="start" opacity="0">Sheet: </text>
<path d="M70221 72289
L70305 72317
L70446 72317
L70502 72289
L70530 72260
L70559 72204
L70559 72148
L70530 72092
L70502 72064
L70446 72036
L70334 72007
L70277 71979
L70249 71951
L70221 71895
L70221 71839
L70249 71782
L70277 71754
L70334 71726
L70474 71726
L70559 71754
" />
<path d="M70812 72317
L70812 71726
" />
<path d="M71065 72317
L71065 72007
L71037 71951
L70980 71923
L70896 71923
L70840 71951
L70812 71979
" />
<path d="M71571 72289
L71515 72317
L71402 72317
L71346 72289
L71318 72232
L71318 72007
L71346 71951
L71402 71923
L71515 71923
L71571 71951
L71599 72007
L71599 72064
L71318 72120
" />
<path d="M72077 72289
L72021 72317
L71908 72317
L71852 72289
L71824 72232
L71824 72007
L71852 71951
L71908 71923
L72021 71923
L72077 71951
L72105 72007
L72105 72064
L71824 72120
" />
<path d="M72274 71923
L72499 71923
" />
<path d="M72358 71726
L72358 72232
L72386 72289
L72443 72317
L72499 72317
" />
<path d="M72696 72260
L72724 72289
L72696 72317
L72668 72289
L72696 72260
L72696 72317
" />
<path d="M72696 71951
L72724 71979
L72696 72007
L72668 71979
L72696 71951
L72696 72007
" />
</g>
<g style="fill:#000000; fill-opacity:0.0; 
stroke:#000000; stroke-width:39.3701; stroke-opacity:1; 
stroke-linecap:round; stroke-linejoin:round;">
</g>
<g style="fill:#000000; fill-opacity:0.0; 
stroke:#000000; stroke-width:59.0551; stroke-opacity:1; 
stroke-linecap:round; stroke-linejoin:round;">
<path d="M77559 75396
L77559 76577
" />
</g>
<g style="fill:#000000; fill-opacity:0.0; 
stroke:#000000; stroke-width:39.3701; stroke-opacity:1; 
stroke-linecap:round; stroke-linejoin:round;">
</g>
<g style="fill:#000000; fill-opacity:0.0; 
stroke:#000000; stroke-width:59.0551; stroke-opacity:1; 
stroke-linecap:round; stroke-linejoin:round;">
<path d="M102756 75396
L102756 77955
" />
</g>
<g style="fill:#848484; fill-opacity:0.0; 
stroke:#848484; stroke-width:59.0551; stroke-opacity:1; 
stroke-linecap:round; stroke-linejoin:round;">
</g>
<g style="fill:#848484; fill-opacity:0.0; 
stroke:#848484; stroke-width:47.2441; stroke-opacity:1; 
stroke-linecap:round; stroke-linejoin:round;">
<circle cx="10287.4" cy="32677.2" r="511.811" /> 
<path d="M9933 32755
L9933 32598
" />
<path d="M10641 32755
L9933 32755
" />
<path d="M10641 32598
L10641 32755
" />
<path d="M9933 32598
L10641 32598
" />
<circle cx="13897.6" cy="32779.5" r="511.811" /> 
<path d="M13543 32858
L13543 32700
" />
<path d="M14251 32858
L13543 32858
" />
<path d="M14251 32700
L14251 32858
" />
<path d="M13543 32700
L14251 32700
" />
<circle cx="1086.61" cy="33566.9" r="511.811" /> 
<path d="M732 33645
L732 33488
" />
<path d="M1440 33645
L732 33645
" />
<path d="M1440 33488
L1440 33645
" />
<path d="M732 33488
L1440 33488
" />
</g>
<g style="fill:#848484; fill-opacity:0.0; 
stroke:#848484; stroke-width:39.3701; stroke-opacity:1; 
stroke-linecap:round; stroke-linejoin:round;">
<path d="M5531 23240
L5531 24736
" />
<path d="M6555 23240
L5531 23240
" />
<path d="M6555 24736
L6555 23240
" />
<path d="M5531 24736
L6555 24736
" />
<path d="M11913 19685
L11913 20708
" />
<path d="M11913 20708
L13409 20708
" />
<path d="M13409 20708
L13409 19685
" />
<path d="M13409 19685
L11913 19685
" />
<path d="M3791 11094
L3791 10110
" />
<path d="M3791 10110
L1311 10110
" />
<path d="M1311 10110
L1311 11094
" />
<path d="M1311 11094
L3791 11094
" />
<path d="M4051 10602
L3791 10602
" />
<path d="M1051 10602
L1311 10602
" />
<path d="M5724 14917
L4740 14917
" />
<path d="M4740 14917
L4740 17397
" />
<path d="M4740 17397
L5724 17397
" />
<path d="M5724 17397
L5724 14917
" />
<path d="M5232 14657
L5232 14917
" />
<path d="M5232 17657
L5232 17397
" />
<path d="M1031 7830
L1291 7830
" />
<path d="M4031 7830
L3771 7830
" />
<path d="M1291 8322
L3771 8322
" />
<path d="M1291 7338
L1291 8322
" />
<path d="M3771 7338
L1291 7338
" />
<path d="M3771 8322
L3771 7338
" />
<path d="M3401 24555
L3401 24295
" />
<path d="M3401 21555
L3401 21814
" />
<path d="M3893 24295
L3893 21814
" />
<path d="M2909 24295
L3893 24295
" />
<path d="M2909 21814
L2909 24295
" />
<path d="M3893 21814
L2909 21814
" />
<path d="M6122 19826
L5862 19826
" />
<path d="M3122 19826
L3381 19826
" />
<path d="M5862 19334
L3381 19334
" />
<path d="M5862 20318
L5862 19334
" />
<path d="M3381 20318
L5862 20318
" />
<path d="M3381 19334
L3381 20318
" />
<path d="M14960 15708
L14960 14724
" />
<path d="M14960 14724
L12480 14724
" />
<path d="M12480 14724
L12480 15708
" />
<path d="M12480 15708
L14960 15708
" />
<path d="M15220 15216
L14960 15216
" />
<path d="M12220 15216
L12480 15216
" />
<path d="M16220 16897
L15236 16897
" />
<path d="M15236 16897
L15236 19377
" />
<path d="M15236 19377
L16220 19377
" />
<path d="M16220 19377
L16220 16897
" />
<path d="M15728 16637
L15728 16897
" />
<path d="M15728 19637
L15728 19377
" />
<path d="M1267 16814
L1267 17074
" />
<path d="M1267 19814
L1267 19555
" />
<path d="M775 17074
L775 19555
" />
<path d="M1759 17074
L775 17074
" />
<path d="M1759 19555
L1759 17074
" />
<path d="M775 19555
L1759 19555
" />
<path d="M10523 28043
L10523 29027
" />
<path d="M10523 29027
L13003 29027
" />
<path d="M13003 29027
L13003 28043
" />
<path d="M13003 28043
L10523 28043
" />
<path d="M10263 28535
L10523 28535
" />
<path d="M13263 28535
L13003 28535
" />
<path d="M8316 14669
L10423 14669
" />
<path d="M10423 14669
L10423 22669
" />
<path d="M10423 22669
L7923 22669
" />
<path d="M7923 22669
L7923 15062
" />
<path d="M7923 15062
L8316 14669
" />
<path d="M7173 14645
L7173 22692
" />
<path d="M7173 22692
L11173 22692
" />
<path d="M11173 22692
L11173 14645
" />
<path d="M11173 14645
L7173 14645
" />
<path d="M10074 6667
L10074 8773
" />
<path d="M10074 8773
L6074 8773
" />
<path d="M6074 8773
L6074 6273
" />
<path d="M6074 6273
L9681 6273
" />
<path d="M9681 6273
L10074 6667
" />
<circle cx="1669.29" cy="12474.4" r="431.102" /> 
<path d="M267 15726
L2169 15726
" />
<path d="M2169 15726
L2169 11974
" />
<path d="M2169 11974
L267 11974
" />
<path d="M267 11974
L267 15726
" />
<path d="M2096 12474
L1242 12474
" />
<path d="M2096 12474
L1242 12474
" />
<g >
</g>
<g >
</g>
<g >
</g>
<g >
</g>
<g >
</g>
<g >
</g>
<g >
</g>
<g >
</g>
<g >
</g>
<g >
</g>
<g >
</g>
<g >
</g>
<g >
</g>
<g >
</g>
<g >
</g>
<g >
</g>
<g >
</g>
<g >
</g>
<g >
</g>
<g >
</g>
<g >
</g>
</g>
<g style="fill:#848484; fill-opacity:0.0; 
stroke:#848484; stroke-width:39.3701; stroke-opacity:1; 
stroke-linecap:round; stroke-linejoin:round;">
</g>
<g style="fill:#848484; fill-opacity:0.0; 
stroke:#848484; stroke-width:59.0551; stroke-opacity:1; 
stroke-linecap:round; stroke-linejoin:round;">
<text x="10287.4" y="31771.7"
textLength="5420.89" font-size="524.934" lengthAdjust="spacingAndGlyphs"
text-anchor="middle" opacity="0">MountingHole_Pad</text>
<path d="M7700 31752
L7700 31359
L7831 31640
L7962 31359
L7962 31752
" />
<path d="M8206 31752
L8168 31734
L8150 31715
L8131 31677
L8131 31565
L8150 31527
L8168 31509
L8206 31490
L8262 31490
L8300 31509
L8318 31527
L8337 31565
L8337 31677
L8318 31715
L8300 31734
L8262 31752
L8206 31752
" />
<path d="M8675 31490
L8675 31752
" />
<path d="M8506 31490
L8506 31696
L8525 31734
L8562 31752
L8618 31752
L8656 31734
L8675 31715
" />
<path d="M8862 31490
L8862 31752
" />
<path d="M8862 31527
L8881 31509
L8918 31490
L8975 31490
L9012 31509
L9031 31546
L9031 31752
" />
<path d="M9162 31490
L9312 31490
" />
<path d="M9218 31359
L9218 31696
L9237 31734
L9275 31752
L9312 31752
" />
<path d="M9443 31752
L9443 31490
" />
<path d="M9443 31359
L9425 31377
L9443 31396
L9462 31377
L9443 31359
L9443 31396
" />
<path d="M9631 31490
L9631 31752
" />
<path d="M9631 31527
L9649 31509
L9687 31490
L9743 31490
L9781 31509
L9799 31546
L9799 31752
" />
<path d="M10156 31490
L10156 31809
L10137 31846
L10118 31865
L10081 31884
L10024 31884
L9987 31865
" />
<path d="M10156 31734
L10118 31752
L10043 31752
L10006 31734
L9987 31715
L9968 31677
L9968 31565
L9987 31527
L10006 31509
L10043 31490
L10118 31490
L10156 31509
" />
<path d="M10343 31752
L10343 31359
" />
<path d="M10343 31546
L10568 31546
" />
<path d="M10568 31752
L10568 31359
" />
<path d="M10812 31752
L10774 31734
L10756 31715
L10737 31677
L10737 31565
L10756 31527
L10774 31509
L10812 31490
L10868 31490
L10906 31509
L10924 31527
L10943 31565
L10943 31677
L10924 31715
L10906 31734
L10868 31752
L10812 31752
" />
<path d="M11168 31752
L11131 31734
L11112 31696
L11112 31359
" />
<path d="M11468 31734
L11431 31752
L11356 31752
L11318 31734
L11299 31696
L11299 31546
L11318 31509
L11356 31490
L11431 31490
L11468 31509
L11487 31546
L11487 31584
L11299 31621
" />
<path d="M11562 31790
L11862 31790
" />
<path d="M11955 31752
L11955 31359
L12105 31359
L12143 31377
L12162 31396
L12180 31434
L12180 31490
L12162 31527
L12143 31546
L12105 31565
L11955 31565
" />
<path d="M12518 31752
L12518 31546
L12499 31509
L12462 31490
L12387 31490
L12349 31509
" />
<path d="M12518 31734
L12480 31752
L12387 31752
L12349 31734
L12330 31696
L12330 31659
L12349 31621
L12387 31602
L12480 31602
L12518 31584
" />
<path d="M12874 31752
L12874 31359
" />
<path d="M12874 31734
L12837 31752
L12762 31752
L12724 31734
L12705 31715
L12687 31677
L12687 31565
L12705 31527
L12724 31509
L12762 31490
L12837 31490
L12874 31509
" />
<text x="10563" y="33858.3"
textLength="864.173" font-size="524.934" lengthAdjust="spacingAndGlyphs"
text-anchor="middle" opacity="0">H3</text>
<path d="M10263 33839
L10263 33445
" />
<path d="M10263 33633
L10488 33633
" />
<path d="M10488 33839
L10488 33445
" />
<path d="M10637 33445
L10881 33445
L10750 33595
L10806 33595
L10844 33614
L10862 33633
L10881 33670
L10881 33764
L10862 33802
L10844 33820
L10806 33839
L10694 33839
L10656 33820
L10637 33802
" />
<text x="13897.6" y="31874"
textLength="5438.6" font-size="524.934" lengthAdjust="spacingAndGlyphs"
text-anchor="middle" opacity="0">MountingHole_Pad</text>
<path d="M11310 31855
L11310 31461
L11441 31742
L11572 31461
L11572 31855
" />
<path d="M11816 31855
L11779 31836
L11760 31817
L11741 31780
L11741 31667
L11760 31630
L11779 31611
L11816 31592
L11872 31592
L11910 31611
L11929 31630
L11947 31667
L11947 31780
L11929 31817
L11910 31836
L11872 31855
L11816 31855
" />
<path d="M12285 31592
L12285 31855
" />
<path d="M12116 31592
L12116 31799
L12135 31836
L12172 31855
L12229 31855
L12266 31836
L12285 31817
" />
<path d="M12472 31592
L12472 31855
" />
<path d="M12472 31630
L12491 31611
L12529 31592
L12585 31592
L12622 31611
L12641 31649
L12641 31855
" />
<path d="M12772 31592
L12922 31592
" />
<path d="M12829 31461
L12829 31799
L12847 31836
L12885 31855
L12922 31855
" />
<path d="M13053 31855
L13053 31592
" />
<path d="M13053 31461
L13035 31480
L13053 31499
L13072 31480
L13053 31461
L13053 31499
" />
<path d="M13241 31592
L13241 31855
" />
<path d="M13241 31630
L13260 31611
L13297 31592
L13353 31592
L13391 31611
L13410 31649
L13410 31855
" />
<path d="M13766 31592
L13766 31911
L13747 31949
L13728 31967
L13691 31986
L13635 31986
L13597 31967
" />
<path d="M13766 31836
L13728 31855
L13653 31855
L13616 31836
L13597 31817
L13578 31780
L13578 31667
L13597 31630
L13616 31611
L13653 31592
L13728 31592
L13766 31611
" />
<path d="M13953 31855
L13953 31461
" />
<path d="M13953 31649
L14178 31649
" />
<path d="M14178 31855
L14178 31461
" />
<path d="M14422 31855
L14385 31836
L14366 31817
L14347 31780
L14347 31667
L14366 31630
L14385 31611
L14422 31592
L14478 31592
L14516 31611
L14535 31630
L14553 31667
L14553 31780
L14535 31817
L14516 31836
L14478 31855
L14422 31855
" />
<path d="M14778 31855
L14741 31836
L14722 31799
L14722 31461
" />
<path d="M15078 31836
L15041 31855
L14966 31855
L14928 31836
L14910 31799
L14910 31649
L14928 31611
L14966 31592
L15041 31592
L15078 31611
L15097 31649
L15097 31686
L14910 31724
" />
<path d="M15172 31892
L15472 31892
" />
<path d="M15566 31855
L15566 31461
L15716 31461
L15753 31480
L15772 31499
L15791 31536
L15791 31592
L15772 31630
L15753 31649
L15716 31667
L15566 31667
" />
<path d="M16128 31855
L16128 31649
L16109 31611
L16072 31592
L15997 31592
L15959 31611
" />
<path d="M16128 31836
L16091 31855
L15997 31855
L15959 31836
L15941 31799
L15941 31761
L15959 31724
L15997 31705
L16091 31705
L16128 31686
" />
<path d="M16484 31855
L16484 31461
" />
<path d="M16484 31836
L16447 31855
L16372 31855
L16334 31836
L16316 31817
L16297 31780
L16297 31667
L16316 31630
L16334 31611
L16372 31592
L16447 31592
L16484 31611
" />
<text x="14173.2" y="33960.6"
textLength="864.173" font-size="524.934" lengthAdjust="spacingAndGlyphs"
text-anchor="middle" opacity="0">H2</text>
<path d="M13873 33941
L13873 33548
" />
<path d="M13873 33735
L14098 33735
" />
<path d="M14098 33941
L14098 33548
" />
<path d="M14266 33585
L14285 33566
L14323 33548
L14416 33548
L14454 33566
L14473 33585
L14491 33623
L14491 33660
L14473 33716
L14248 33941
L14491 33941
" />
<text x="1086.61" y="32661.4"
textLength="5438.6" font-size="524.934" lengthAdjust="spacingAndGlyphs"
text-anchor="middle" opacity="0">MountingHole_Pad</text>
<path d="M-1500 32642
L-1500 32248
L-1369 32530
L-1238 32248
L-1238 32642
" />
<path d="M-994 32642
L-1031 32623
L-1050 32605
L-1069 32567
L-1069 32455
L-1050 32417
L-1031 32398
L-994 32380
L-938 32380
L-900 32398
L-881 32417
L-863 32455
L-863 32567
L-881 32605
L-900 32623
L-938 32642
L-994 32642
" />
<path d="M-525 32380
L-525 32642
" />
<path d="M-694 32380
L-694 32586
L-675 32623
L-638 32642
L-581 32642
L-544 32623
L-525 32605
" />
<path d="M-338 32380
L-338 32642
" />
<path d="M-338 32417
L-319 32398
L-281 32380
L-225 32380
L-188 32398
L-169 32436
L-169 32642
" />
<path d="M-38 32380
L111 32380
" />
<path d="M17 32248
L17 32586
L36 32623
L74 32642
L111 32642
" />
<path d="M242 32642
L242 32380
" />
<path d="M242 32248
L224 32267
L242 32286
L261 32267
L242 32248
L242 32286
" />
<path d="M430 32380
L430 32642
" />
<path d="M430 32417
L449 32398
L486 32380
L542 32380
L580 32398
L599 32436
L599 32642
" />
<path d="M955 32380
L955 32698
L936 32736
L917 32755
L880 32773
L824 32773
L786 32755
" />
<path d="M955 32623
L917 32642
L842 32642
L805 32623
L786 32605
L767 32567
L767 32455
L786 32417
L805 32398
L842 32380
L917 32380
L955 32398
" />
<path d="M1142 32642
L1142 32248
" />
<path d="M1142 32436
L1367 32436
" />
<path d="M1367 32642
L1367 32248
" />
<path d="M1611 32642
L1574 32623
L1555 32605
L1536 32567
L1536 32455
L1555 32417
L1574 32398
L1611 32380
L1667 32380
L1705 32398
L1724 32417
L1742 32455
L1742 32567
L1724 32605
L1705 32623
L1667 32642
L1611 32642
" />
<path d="M1967 32642
L1930 32623
L1911 32586
L1911 32248
" />
<path d="M2267 32623
L2230 32642
L2155 32642
L2117 32623
L2098 32586
L2098 32436
L2117 32398
L2155 32380
L2230 32380
L2267 32398
L2286 32436
L2286 32473
L2098 32511
" />
<path d="M2361 32680
L2661 32680
" />
<path d="M2755 32642
L2755 32248
L2905 32248
L2942 32267
L2961 32286
L2980 32323
L2980 32380
L2961 32417
L2942 32436
L2905 32455
L2755 32455
" />
<path d="M3317 32642
L3317 32436
L3298 32398
L3261 32380
L3186 32380
L3148 32398
" />
<path d="M3317 32623
L3280 32642
L3186 32642
L3148 32623
L3130 32586
L3130 32548
L3148 32511
L3186 32492
L3280 32492
L3317 32473
" />
<path d="M3673 32642
L3673 32248
" />
<path d="M3673 32623
L3636 32642
L3561 32642
L3523 32623
L3505 32605
L3486 32567
L3486 32455
L3505 32417
L3523 32398
L3561 32380
L3636 32380
L3673 32398
" />
<text x="1362.2" y="34748"
textLength="864.173" font-size="524.934" lengthAdjust="spacingAndGlyphs"
text-anchor="middle" opacity="0">H1</text>
<path d="M1062 34729
L1062 34335
" />
<path d="M1062 34523
L1287 34523
" />
<path d="M1287 34729
L1287 34335
" />
<path d="M1680 34729
L1455 34729
" />
<path d="M1568 34729
L1568 34335
L1530 34391
L1493 34429
L1455 34448
" />
<g transform="rotate(-90 7047.24 23988.2)">
<text x="7047.24" y="24185"
textLength="1407.86" font-size="524.934" lengthAdjust="spacingAndGlyphs"
text-anchor="middle" opacity="0">10nf</text>
</g>
<path d="M7225 24353
L7225 24578
" />
<path d="M7225 24466
L6831 24466
L6887 24503
L6925 24541
L6944 24578
" />
<path d="M6831 24110
L6831 24072
L6850 24035
L6869 24016
L6906 23997
L6981 23978
L7075 23978
L7150 23997
L7187 24016
L7206 24035
L7225 24072
L7225 24110
L7206 24147
L7187 24166
L7150 24185
L7075 24203
L6981 24203
L6906 24185
L6869 24166
L6850 24147
L6831 24110
" />
<path d="M6962 23810
L7225 23810
" />
<path d="M7000 23810
L6981 23791
L6962 23753
L6962 23697
L6981 23660
L7019 23641
L7225 23641
" />
<path d="M6962 23510
L6962 23360
" />
<path d="M7225 23453
L6887 23453
L6850 23435
L6831 23397
L6831 23360
" />
</g>
<g style="fill:#848484; fill-opacity:0.0; 
stroke:#848484; stroke-width:44.8819; stroke-opacity:1; 
stroke-linecap:round; stroke-linejoin:round;">
<g transform="rotate(-90 6401.57 24043.3)">
<text x="6401.57" y="24192.9"
textLength="660.949" font-size="398.95" lengthAdjust="spacingAndGlyphs"
text-anchor="middle" opacity="0">C1</text>
</g>
<path d="M6508 24093
L6522 24107
L6536 24150
L6536 24178
L6522 24221
L6494 24249
L6465 24264
L6408 24278
L6365 24278
L6308 24264
L6280 24249
L6251 24221
L6237 24178
L6237 24150
L6251 24107
L6266 24093
" />
<path d="M6536 23808
L6536 23979
" />
<path d="M6536 23893
L6237 23893
L6280 23922
L6308 23950
L6323 23979
" />
</g>
<g style="fill:#848484; fill-opacity:0.0; 
stroke:#848484; stroke-width:59.0551; stroke-opacity:1; 
stroke-linecap:round; stroke-linejoin:round;">
<text x="12661.4" y="21397.6"
textLength="1014.48" font-size="524.934" lengthAdjust="spacingAndGlyphs"
text-anchor="middle" opacity="0">1nf</text>
<path d="M12483 21378
L12258 21378
" />
<path d="M12370 21378
L12370 20985
L12333 21041
L12295 21078
L12258 21097
" />
<path d="M12652 21116
L12652 21378
" />
<path d="M12652 21153
L12670 21135
L12708 21116
L12764 21116
L12802 21135
L12820 21172
L12820 21378
" />
<path d="M12952 21116
L13101 21116
" />
<path d="M13008 21378
L13008 21041
L13026 21003
L13064 20985
L13101 20985
" />
</g>
<g style="fill:#848484; fill-opacity:0.0; 
stroke:#848484; stroke-width:44.8819; stroke-opacity:1; 
stroke-linecap:round; stroke-linejoin:round;">
<text x="11998" y="20624"
textLength="660.949" font-size="398.95" lengthAdjust="spacingAndGlyphs"
text-anchor="middle" opacity="0">C2</text>
<path d="M11948 20581
L11933 20595
L11891 20609
L11862 20609
L11819 20595
L11791 20567
L11777 20538
L11762 20481
L11762 20438
L11777 20381
L11791 20353
L11819 20324
L11862 20310
L11891 20310
L11933 20324
L11948 20339
" />
<path d="M12062 20339
L12076 20324
L12104 20310
L12176 20310
L12204 20324
L12218 20339
L12233 20367
L12233 20396
L12218 20438
L12047 20609
L12233 20609
" />
</g>
<g style="fill:#848484; fill-opacity:0.0; 
stroke:#848484; stroke-width:59.0551; stroke-opacity:1; 
stroke-linecap:round; stroke-linejoin:round;">
<text x="3903.94" y="29131.5"
textLength="1689.39" font-size="524.934" lengthAdjust="spacingAndGlyphs"
text-anchor="middle" opacity="0">CV IN</text>
<path d="M3407 29075
L3388 29094
L3332 29112
L3294 29112
L3238 29094
L3200 29056
L3182 29019
L3163 28944
L3163 28887
L3182 28812
L3200 28775
L3238 28737
L3294 28719
L3332 28719
L3388 28737
L3407 28756
" />
<path d="M3519 28719
L3650 29112
L3782 28719
" />
<path d="M4213 29112
L4213 28719
" />
<path d="M4400 29112
L4400 28719
L4625 29112
L4625 28719
" />
<text x="2551.18" y="9866.14"
textLength="1220.38" font-size="524.934" lengthAdjust="spacingAndGlyphs"
text-anchor="middle" opacity="0">24K</text>
<path d="M2054 9491
L2073 9472
L2110 9453
L2204 9453
L2241 9472
L2260 9491
L2279 9528
L2279 9566
L2260 9622
L2035 9847
L2279 9847
" />
<path d="M2616 9584
L2616 9847
" />
<path d="M2523 9434
L2429 9716
L2673 9716
" />
<path d="M2823 9847
L2823 9453
" />
<path d="M3047 9847
L2879 9622
" />
<path d="M3047 9453
L2823 9678
" />
<text x="2551.18" y="10799.2"
textLength="845.426" font-size="524.934" lengthAdjust="spacingAndGlyphs"
text-anchor="middle" opacity="0">R1</text>
<path d="M2485 10780
L2354 10592
" />
<path d="M2260 10780
L2260 10386
L2410 10386
L2448 10405
L2466 10424
L2485 10461
L2485 10517
L2466 10555
L2448 10574
L2410 10592
L2260 10592
" />
<path d="M2860 10780
L2635 10780
" />
<path d="M2748 10780
L2748 10386
L2710 10443
L2673 10480
L2635 10499
" />
<g transform="rotate(-90 4299.21 16157.5)">
<text x="4299.21" y="16354.3"
textLength="1407.86" font-size="524.934" lengthAdjust="spacingAndGlyphs"
text-anchor="middle" opacity="0">5.6K</text>
</g>
<path d="M4083 16541
L4083 16729
L4271 16748
L4252 16729
L4233 16691
L4233 16598
L4252 16560
L4271 16541
L4308 16523
L4402 16523
L4439 16541
L4458 16560
L4477 16598
L4477 16691
L4458 16729
L4439 16748
" />
<path d="M4439 16354
L4458 16335
L4477 16354
L4458 16373
L4439 16354
L4477 16354
" />
<path d="M4083 15998
L4083 16073
L4102 16110
L4121 16129
L4177 16166
L4252 16185
L4402 16185
L4439 16166
L4458 16148
L4477 16110
L4477 16035
L4458 15998
L4439 15979
L4402 15960
L4308 15960
L4271 15979
L4252 15998
L4233 16035
L4233 16110
L4252 16148
L4271 16166
L4308 16185
" />
<path d="M4477 15791
L4083 15791
" />
<path d="M4477 15566
L4252 15735
" />
<path d="M4083 15566
L4308 15791
" />
<g transform="rotate(-90 5232.28 16157.5)">
<text x="5232.28" y="16354.3"
textLength="845.426" font-size="524.934" lengthAdjust="spacingAndGlyphs"
text-anchor="middle" opacity="0">R2</text>
</g>
<path d="M5410 16223
L5222 16354
" />
<path d="M5410 16448
L5016 16448
L5016 16298
L5035 16260
L5054 16241
L5091 16223
L5147 16223
L5185 16241
L5204 16260
L5222 16298
L5222 16448
" />
<path d="M5054 16073
L5035 16054
L5016 16016
L5016 15923
L5035 15885
L5054 15866
L5091 15848
L5129 15848
L5185 15866
L5410 16091
L5410 15848
" />
<text x="2547.24" y="7992.13"
textLength="1595.33" font-size="524.934" lengthAdjust="spacingAndGlyphs"
text-anchor="middle" opacity="0">100K</text>
<path d="M2087 7973
L1862 7973
" />
<path d="M1975 7973
L1975 7579
L1937 7635
L1900 7673
L1862 7692
" />
<path d="M2331 7579
L2369 7579
L2406 7598
L2425 7617
L2444 7654
L2462 7729
L2462 7823
L2444 7898
L2425 7935
L2406 7954
L2369 7973
L2331 7973
L2294 7954
L2275 7935
L2256 7898
L2237 7823
L2237 7729
L2256 7654
L2275 7617
L2294 7598
L2331 7579
" />
<path d="M2706 7579
L2744 7579
L2781 7598
L2800 7617
L2819 7654
L2837 7729
L2837 7823
L2819 7898
L2800 7935
L2781 7954
L2744 7973
L2706 7973
L2669 7954
L2650 7935
L2631 7898
L2612 7823
L2612 7729
L2631 7654
L2650 7617
L2669 7598
L2706 7579
" />
<path d="M3006 7973
L3006 7579
" />
<path d="M3231 7973
L3062 7748
" />
<path d="M3231 7579
L3006 7804
" />
<text x="4295.28" y="6996.06"
textLength="845.426" font-size="524.934" lengthAdjust="spacingAndGlyphs"
text-anchor="middle" opacity="0">R3</text>
<path d="M4229 6977
L4098 6789
" />
<path d="M4004 6977
L4004 6583
L4154 6583
L4192 6602
L4210 6621
L4229 6658
L4229 6714
L4210 6752
L4192 6771
L4154 6789
L4004 6789
" />
<path d="M4360 6583
L4604 6583
L4473 6733
L4529 6733
L4567 6752
L4585 6771
L4604 6808
L4604 6902
L4585 6939
L4567 6958
L4529 6977
L4417 6977
L4379 6958
L4360 6939
" />
<g transform="rotate(-90 2468.5 23055.1)">
<text x="2468.5" y="23252"
textLength="1595.33" font-size="524.934" lengthAdjust="spacingAndGlyphs"
text-anchor="middle" opacity="0">100K</text>
</g>
<path d="M2646 23514
L2646 23739
" />
<path d="M2646 23626
L2252 23626
L2309 23664
L2346 23701
L2365 23739
" />
<path d="M2252 23270
L2252 23233
L2271 23195
L2290 23176
L2327 23158
L2402 23139
L2496 23139
L2571 23158
L2609 23176
L2627 23195
L2646 23233
L2646 23270
L2627 23308
L2609 23326
L2571 23345
L2496 23364
L2402 23364
L2327 23345
L2290 23326
L2271 23308
L2252 23270
" />
<path d="M2252 22895
L2252 22858
L2271 22820
L2290 22802
L2327 22783
L2402 22764
L2496 22764
L2571 22783
L2609 22802
L2627 22820
L2646 22858
L2646 22895
L2627 22933
L2609 22952
L2571 22970
L2496 22989
L2402 22989
L2327 22970
L2290 22952
L2271 22933
L2252 22895
" />
<path d="M2646 22595
L2252 22595
" />
<path d="M2646 22370
L2421 22539
" />
<path d="M2252 22370
L2477 22595
" />
<g transform="rotate(-90 3401.57 23055.1)">
<text x="3401.57" y="23252"
textLength="845.426" font-size="524.934" lengthAdjust="spacingAndGlyphs"
text-anchor="middle" opacity="0">R4</text>
</g>
<path d="M3579 23120
L3392 23251
" />
<path d="M3579 23345
L3185 23345
L3185 23195
L3204 23158
L3223 23139
L3260 23120
L3317 23120
L3354 23139
L3373 23158
L3392 23195
L3392 23345
" />
<path d="M3317 22783
L3579 22783
" />
<path d="M3167 22877
L3448 22970
L3448 22727
" />
<text x="4622.05" y="20956.7"
textLength="1595.33" font-size="524.934" lengthAdjust="spacingAndGlyphs"
text-anchor="middle" opacity="0">470R</text>
<path d="M4125 20675
L4125 20937
" />
<path d="M4031 20525
L3937 20806
L4181 20806
" />
<path d="M4293 20544
L4556 20544
L4387 20937
" />
<path d="M4781 20544
L4818 20544
L4856 20562
L4875 20581
L4893 20619
L4912 20694
L4912 20787
L4893 20862
L4875 20900
L4856 20919
L4818 20937
L4781 20937
L4743 20919
L4725 20900
L4706 20862
L4687 20787
L4687 20694
L4706 20619
L4725 20581
L4743 20562
L4781 20544
" />
<path d="M5306 20937
L5175 20750
" />
<path d="M5081 20937
L5081 20544
L5231 20544
L5268 20562
L5287 20581
L5306 20619
L5306 20675
L5287 20712
L5268 20731
L5231 20750
L5081 20750
" />
<text x="5251.97" y="19878"
textLength="845.426" font-size="524.934" lengthAdjust="spacingAndGlyphs"
text-anchor="middle" opacity="0">R5</text>
<path d="M5186 19859
L5055 19671
" />
<path d="M4961 19859
L4961 19465
L5111 19465
L5148 19484
L5167 19502
L5186 19540
L5186 19596
L5167 19634
L5148 19652
L5111 19671
L4961 19671
" />
<path d="M5542 19465
L5355 19465
L5336 19652
L5355 19634
L5392 19615
L5486 19615
L5523 19634
L5542 19652
L5561 19690
L5561 19784
L5542 19821
L5523 19840
L5486 19859
L5392 19859
L5355 19840
L5336 19821
" />
<text x="13720.5" y="14480.3"
textLength="1464.1" font-size="524.934" lengthAdjust="spacingAndGlyphs"
text-anchor="middle" opacity="0">1.5M</text>
<path d="M13326 14461
L13101 14461
" />
<path d="M13214 14461
L13214 14067
L13176 14124
L13139 14161
L13101 14180
" />
<path d="M13495 14424
L13514 14442
L13495 14461
L13476 14442
L13495 14424
L13495 14461
" />
<path d="M13870 14067
L13682 14067
L13664 14255
L13682 14236
L13720 14217
L13814 14217
L13851 14236
L13870 14255
L13889 14292
L13889 14386
L13870 14424
L13851 14442
L13814 14461
L13720 14461
L13682 14442
L13664 14424
" />
<path d="M14057 14461
L14057 14067
L14189 14349
L14320 14067
L14320 14461
" />
<text x="13694.9" y="15391.7"
textLength="845.426" font-size="524.934" lengthAdjust="spacingAndGlyphs"
text-anchor="middle" opacity="0">R6</text>
<path d="M13629 15372
L13498 15185
" />
<path d="M13404 15372
L13404 14979
L13554 14979
L13591 14998
L13610 15016
L13629 15054
L13629 15110
L13610 15148
L13591 15166
L13554 15185
L13404 15185
" />
<path d="M13966 14979
L13891 14979
L13854 14998
L13835 15016
L13797 15073
L13779 15148
L13779 15297
L13797 15335
L13816 15354
L13854 15372
L13929 15372
L13966 15354
L13985 15335
L14004 15297
L14004 15204
L13985 15166
L13966 15148
L13929 15129
L13854 15129
L13816 15148
L13797 15166
L13779 15204
" />
<g transform="rotate(-90 14795.3 18137.8)">
<text x="14795.3" y="18334.6"
textLength="1595.33" font-size="524.934" lengthAdjust="spacingAndGlyphs"
text-anchor="middle" opacity="0">470R</text>
</g>
<path d="M14710 18634
L14973 18634
" />
<path d="M14560 18728
L14842 18822
L14842 18578
" />
<path d="M14579 18465
L14579 18203
L14973 18372
" />
<path d="M14579 17978
L14579 17940
L14598 17903
L14617 17884
L14654 17865
L14729 17847
L14823 17847
L14898 17865
L14935 17884
L14954 17903
L14973 17940
L14973 17978
L14954 18015
L14935 18034
L14898 18053
L14823 18072
L14729 18072
L14654 18053
L14617 18034
L14598 18015
L14579 17978
" />
<path d="M14973 17453
L14785 17584
" />
<path d="M14973 17678
L14579 17678
L14579 17528
L14598 17491
L14617 17472
L14654 17453
L14710 17453
L14748 17472
L14767 17491
L14785 17528
L14785 17678
" />
<g transform="rotate(-90 15728.3 18137.8)">
<text x="15728.3" y="18334.6"
textLength="845.426" font-size="524.934" lengthAdjust="spacingAndGlyphs"
text-anchor="middle" opacity="0">R7</text>
</g>
<path d="M15906 18203
L15718 18334
" />
<path d="M15906 18428
L15512 18428
L15512 18278
L15531 18240
L15550 18222
L15587 18203
L15643 18203
L15681 18222
L15700 18240
L15718 18278
L15718 18428
" />
<path d="M15512 18072
L15512 17809
L15906 17978
" />
<g transform="rotate(-90 2200.79 18315)">
<text x="2200.79" y="18511.8"
textLength="1595.33" font-size="524.934" lengthAdjust="spacingAndGlyphs"
text-anchor="middle" opacity="0">620R</text>
</g>
<path d="M1985 18811
L1985 18886
L2003 18924
L2022 18943
L2078 18980
L2153 18999
L2303 18999
L2341 18980
L2360 18961
L2378 18924
L2378 18849
L2360 18811
L2341 18793
L2303 18774
L2210 18774
L2172 18793
L2153 18811
L2135 18849
L2135 18924
L2153 18961
L2172 18980
L2210 18999
" />
<path d="M2022 18624
L2003 18605
L1985 18568
L1985 18474
L2003 18436
L2022 18418
L2060 18399
L2097 18399
L2153 18418
L2378 18643
L2378 18399
" />
<path d="M1985 18155
L1985 18118
L2003 18080
L2022 18061
L2060 18043
L2135 18024
L2228 18024
L2303 18043
L2341 18061
L2360 18080
L2378 18118
L2378 18155
L2360 18193
L2341 18211
L2303 18230
L2228 18249
L2135 18249
L2060 18230
L2022 18211
L2003 18193
L1985 18155
" />
<path d="M2378 17630
L2191 17761
" />
<path d="M2378 17855
L1985 17855
L1985 17705
L2003 17668
L2022 17649
L2060 17630
L2116 17630
L2153 17649
L2172 17668
L2191 17705
L2191 17855
" />
<g transform="rotate(-90 1267.72 18315)">
<text x="1267.72" y="18511.8"
textLength="845.426" font-size="524.934" lengthAdjust="spacingAndGlyphs"
text-anchor="middle" opacity="0">R8</text>
</g>
<path d="M1445 18380
L1258 18511
" />
<path d="M1445 18605
L1052 18605
L1052 18455
L1070 18418
L1089 18399
L1127 18380
L1183 18380
L1220 18399
L1239 18418
L1258 18455
L1258 18605
" />
<path d="M1220 18155
L1202 18193
L1183 18211
L1145 18230
L1127 18230
L1089 18211
L1070 18193
L1052 18155
L1052 18080
L1070 18043
L1089 18024
L1127 18005
L1145 18005
L1183 18024
L1202 18043
L1220 18080
L1220 18155
L1239 18193
L1258 18211
L1295 18230
L1370 18230
L1408 18211
L1427 18193
L1445 18155
L1445 18080
L1427 18043
L1408 18024
L1370 18005
L1295 18005
L1258 18024
L1239 18043
L1220 18080
" />
<text x="11763.8" y="29665.4"
textLength="1407.86" font-size="524.934" lengthAdjust="spacingAndGlyphs"
text-anchor="middle" opacity="0">1.8K</text>
<path d="M11398 29646
L11173 29646
" />
<path d="M11285 29646
L11285 29252
L11248 29309
L11210 29346
L11173 29365
" />
<path d="M11566 29609
L11585 29627
L11566 29646
L11548 29627
L11566 29609
L11566 29646
" />
<path d="M11810 29421
L11773 29402
L11754 29384
L11735 29346
L11735 29327
L11754 29290
L11773 29271
L11810 29252
L11885 29252
L11923 29271
L11941 29290
L11960 29327
L11960 29346
L11941 29384
L11923 29402
L11885 29421
L11810 29421
L11773 29440
L11754 29459
L11735 29496
L11735 29571
L11754 29609
L11773 29627
L11810 29646
L11885 29646
L11923 29627
L11941 29609
L11960 29571
L11960 29496
L11941 29459
L11923 29440
L11885 29421
" />
<path d="M12129 29646
L12129 29252
" />
<path d="M12354 29646
L12185 29421
" />
<path d="M12354 29252
L12129 29477
" />
<text x="11763.8" y="28732.3"
textLength="845.426" font-size="524.934" lengthAdjust="spacingAndGlyphs"
text-anchor="middle" opacity="0">R9</text>
<path d="M11698 28713
L11566 28526
" />
<path d="M11473 28713
L11473 28319
L11623 28319
L11660 28338
L11679 28357
L11698 28394
L11698 28451
L11679 28488
L11660 28507
L11623 28526
L11473 28526
" />
<path d="M11885 28713
L11960 28713
L11998 28694
L12016 28676
L12054 28619
L12073 28544
L12073 28394
L12054 28357
L12035 28338
L11998 28319
L11923 28319
L11885 28338
L11866 28357
L11848 28394
L11848 28488
L11866 28526
L11885 28544
L11923 28563
L11998 28563
L12035 28544
L12054 28526
L12073 28488
" />
<text x="9173.23" y="23283.5"
textLength="2289" font-size="524.934" lengthAdjust="spacingAndGlyphs"
text-anchor="middle" opacity="0">AS3340</text>
<path d="M8142 23152
L8329 23152
" />
<path d="M8104 23264
L8235 22871
L8367 23264
" />
<path d="M8479 23245
L8535 23264
L8629 23264
L8667 23245
L8685 23227
L8704 23189
L8704 23152
L8685 23114
L8667 23095
L8629 23077
L8554 23058
L8517 23039
L8498 23020
L8479 22983
L8479 22946
L8498 22908
L8517 22889
L8554 22871
L8648 22871
L8704 22889
" />
<path d="M8835 22871
L9079 22871
L8948 23020
L9004 23020
L9041 23039
L9060 23058
L9079 23095
L9079 23189
L9060 23227
L9041 23245
L9004 23264
L8892 23264
L8854 23245
L8835 23227
" />
<path d="M9210 22871
L9454 22871
L9323 23020
L9379 23020
L9416 23039
L9435 23058
L9454 23095
L9454 23189
L9435 23227
L9416 23245
L9379 23264
L9266 23264
L9229 23245
L9210 23227
" />
<path d="M9791 23002
L9791 23264
" />
<path d="M9698 22852
L9604 23133
L9848 23133
" />
<path d="M10073 22871
L10110 22871
L10148 22889
L10166 22908
L10185 22946
L10204 23020
L10204 23114
L10185 23189
L10166 23227
L10148 23245
L10110 23264
L10073 23264
L10035 23245
L10016 23227
L9998 23189
L9979 23114
L9979 23020
L9998 22946
L10016 22908
L10035 22889
L10073 22871
" />
<text x="9118.11" y="15196.9"
textLength="864.173" font-size="524.934" lengthAdjust="spacingAndGlyphs"
text-anchor="middle" opacity="0">U1</text>
<path d="M8818 14784
L8818 15103
L8836 15140
L8855 15159
L8893 15178
L8968 15178
L9005 15159
L9024 15140
L9043 15103
L9043 14784
" />
<path d="M9436 15178
L9211 15178
" />
<path d="M9324 15178
L9324 14784
L9286 14840
L9249 14878
L9211 14896
" />
<g transform="rotate(-90 5657.48 7523.62)">
<text x="5657.48" y="7720.47"
textLength="1820.3" font-size="524.934" lengthAdjust="spacingAndGlyphs"
text-anchor="middle" opacity="0">TL072</text>
</g>
<path d="M5441 8357
L5441 8132
" />
<path d="M5835 8245
L5441 8245
" />
<path d="M5835 7814
L5835 8001
L5441 8001
" />
<path d="M5441 7607
L5441 7570
L5460 7532
L5479 7514
L5516 7495
L5591 7476
L5685 7476
L5760 7495
L5798 7514
L5816 7532
L5835 7570
L5835 7607
L5816 7645
L5798 7664
L5760 7682
L5685 7701
L5591 7701
L5516 7682
L5479 7664
L5460 7645
L5441 7607
" />
<path d="M5441 7345
L5441 7083
L5835 7251
" />
<path d="M5479 6951
L5460 6933
L5441 6895
L5441 6801
L5460 6764
L5479 6745
L5516 6726
L5554 6726
L5610 6745
L5835 6970
L5835 6726
" />
<g transform="rotate(-90 8074.8 7523.62)">
<text x="8074.8" y="7720.47"
textLength="864.173" font-size="524.934" lengthAdjust="spacingAndGlyphs"
text-anchor="middle" opacity="0">U2</text>
</g>
<path d="M7859 7823
L8177 7823
L8215 7804
L8234 7786
L8252 7748
L8252 7673
L8234 7636
L8215 7617
L8177 7598
L7859 7598
" />
<path d="M7896 7429
L7877 7411
L7859 7373
L7859 7279
L7877 7242
L7896 7223
L7934 7204
L7971 7204
L8027 7223
L8252 7448
L8252 7204
" />
<g transform="rotate(-90 2661.42 13850.4)">
<text x="2661.42" y="14047.2"
textLength="1595.33" font-size="524.934" lengthAdjust="spacingAndGlyphs"
text-anchor="middle" opacity="0">100K</text>
</g>
<path d="M2839 14309
L2839 14534
" />
<path d="M2839 14422
L2445 14422
L2502 14459
L2539 14497
L2558 14534
" />
<path d="M2445 14065
L2445 14028
L2464 13991
L2483 13972
L2520 13953
L2595 13934
L2689 13934
L2764 13953
L2802 13972
L2820 13991
L2839 14028
L2839 14065
L2820 14103
L2802 14122
L2764 14140
L2689 14159
L2595 14159
L2520 14140
L2483 14122
L2464 14103
L2445 14065
" />
<path d="M2445 13691
L2445 13653
L2464 13616
L2483 13597
L2520 13578
L2595 13559
L2689 13559
L2764 13578
L2802 13597
L2820 13616
L2839 13653
L2839 13691
L2820 13728
L2802 13747
L2764 13766
L2689 13784
L2595 13784
L2520 13766
L2483 13747
L2464 13728
L2445 13691
" />
<path d="M2839 13391
L2445 13391
" />
<path d="M2839 13166
L2614 13334
" />
<path d="M2445 13166
L2670 13391
" />
<g transform="rotate(-90 1218.5 14100.4)">
<text x="1218.5" y="14297.2"
textLength="1182.88" font-size="524.934" lengthAdjust="spacingAndGlyphs"
text-anchor="middle" opacity="0">VR2</text>
</g>
<path d="M1002 14615
L1396 14484
L1002 14353
" />
<path d="M1396 13997
L1209 14128
" />
<path d="M1396 14222
L1002 14222
L1002 14072
L1021 14034
L1040 14016
L1077 13997
L1134 13997
L1171 14016
L1190 14034
L1209 14072
L1209 14222
" />
<path d="M1040 13847
L1021 13828
L1002 13791
L1002 13697
L1021 13659
L1040 13641
L1077 13622
L1115 13622
L1171 13641
L1396 13866
L1396 13622
" />
<g >
</g>
</g>
<g style="fill:#000000; fill-opacity:0.0; 
stroke:#000000; stroke-width:59.0551; stroke-opacity:1; 
stroke-linecap:round; stroke-linejoin:round;">
</g>
<g style="fill:#C2C200; fill-opacity:0.0; 
stroke:#C2C200; stroke-width:59.0551; stroke-opacity:1; 
stroke-linecap:round; stroke-linejoin:round;">
</g>
<g style="fill:#C2C200; fill-opacity:0.0; 
stroke:#C2C200; stroke-width:19.685; stroke-opacity:1; 
stroke-linecap:round; stroke-linejoin:round;">
<path d="M0 66929
L17716 66929
" />
<path d="M17716 0
L17716 66929
" />
<path d="M0 0
L17716 0
" />
<path d="M0 0
L0 66929
" />
<g >
</g>
<g >
</g>
<g >
</g>
<g >
</g>
<g >
</g>
<g >
</g>
<g >
</g>
<g >
</g>
<g >
</g>
<g >
</g>
<g >
</g>
<g >
</g>
<g >
</g>
<g >
</g>
<g >
</g>
<g >
</g>
<g >
</g>
<g >
</g>
<g >
</g>
<g >
</g>
<g >
</g>
<g >
</g>
</g> 
</svg>
