<?xml version="1.0" standalone="no"?>
 <!DOCTYPE svg PUBLIC "-//W3C//DTD SVG 1.1//EN" 
 "http://www.w3.org/Graphics/SVG/1.1/DTD/svg11.dtd"> 
<svg xmlns="http://www.w3.org/2000/svg" version="1.1" 
    width="29.7002cm" height="21.0007cm" viewBox="0 0 116930 82680 ">
<title>SVG Picture created as VCO440C-PR-B_Mask.svg date 2020/04/14 11:12:49 </title>
  <desc>Picture generated by PCBNEW </desc>
<g style="fill:#000000; fill-opacity:1;stroke:#000000; stroke-opacity:1;
stroke-linecap:round; stroke-linejoin:round; "
 transform="translate(0 0) scale(1 1)">
</g>
<g style="fill:#000000; fill-opacity:0.0; 
stroke:#000000; stroke-width:-0.000393701; stroke-opacity:1; 
stroke-linecap:round; stroke-linejoin:round;">
</g>
<g style="fill:#000000; fill-opacity:0.0; 
stroke:#000000; stroke-width:39.3701; stroke-opacity:1; 
stroke-linecap:round; stroke-linejoin:round;">
</g>
<g style="fill:#000000; fill-opacity:0.0; 
stroke:#000000; stroke-width:59.0551; stroke-opacity:1; 
stroke-linecap:round; stroke-linejoin:round;">
<rect x="69685.9" y="65357.2" width="42519.7" height="12598.4" rx="0" />
</g>
<g style="fill:#000000; fill-opacity:0.0; 
stroke:#000000; stroke-width:39.3701; stroke-opacity:1; 
stroke-linecap:round; stroke-linejoin:round;">
</g>
<g style="fill:#000000; fill-opacity:0.0; 
stroke:#000000; stroke-width:59.0551; stroke-opacity:1; 
stroke-linecap:round; stroke-linejoin:round;">
<rect x="3937.01" y="3937.01" width="109056" height="74806" rx="0" />
</g>
<g style="fill:#000000; fill-opacity:0.0; 
stroke:#000000; stroke-width:39.3701; stroke-opacity:1; 
stroke-linecap:round; stroke-linejoin:round;">
</g>
<g style="fill:#000000; fill-opacity:0.0; 
stroke:#000000; stroke-width:59.0551; stroke-opacity:1; 
stroke-linecap:round; stroke-linejoin:round;">
<rect x="4724.41" y="4724.41" width="107481" height="73231.2" rx="0" />
</g>
<g style="fill:#000000; fill-opacity:0.0; 
stroke:#000000; stroke-width:39.3701; stroke-opacity:1; 
stroke-linecap:round; stroke-linejoin:round;">
</g>
<g style="fill:#000000; fill-opacity:0.0; 
stroke:#000000; stroke-width:59.0551; stroke-opacity:1; 
stroke-linecap:round; stroke-linejoin:round;">
<path d="M23622 4724
L23622 3937
" />
</g>
<g style="fill:#000000; fill-opacity:0.0; 
stroke:#000000; stroke-width:39.3701; stroke-opacity:1; 
stroke-linecap:round; stroke-linejoin:round;">
</g>
<g style="fill:#000000; fill-opacity:0.0; 
stroke:#000000; stroke-width:59.0551; stroke-opacity:1; 
stroke-linecap:round; stroke-linejoin:round;">
<path d="M43307 4724
L43307 3937
" />
</g>
<g style="fill:#000000; fill-opacity:0.0; 
stroke:#000000; stroke-width:39.3701; stroke-opacity:1; 
stroke-linecap:round; stroke-linejoin:round;">
</g>
<g style="fill:#000000; fill-opacity:0.0; 
stroke:#000000; stroke-width:59.0551; stroke-opacity:1; 
stroke-linecap:round; stroke-linejoin:round;">
<path d="M62992 4724
L62992 3937
" />
</g>
<g style="fill:#000000; fill-opacity:0.0; 
stroke:#000000; stroke-width:39.3701; stroke-opacity:1; 
stroke-linecap:round; stroke-linejoin:round;">
</g>
<g style="fill:#000000; fill-opacity:0.0; 
stroke:#000000; stroke-width:59.0551; stroke-opacity:1; 
stroke-linecap:round; stroke-linejoin:round;">
<path d="M82677 4724
L82677 3937
" />
</g>
<g style="fill:#000000; fill-opacity:0.0; 
stroke:#000000; stroke-width:39.3701; stroke-opacity:1; 
stroke-linecap:round; stroke-linejoin:round;">
</g>
<g style="fill:#000000; fill-opacity:0.0; 
stroke:#000000; stroke-width:59.0551; stroke-opacity:1; 
stroke-linecap:round; stroke-linejoin:round;">
<path d="M102362 4724
L102362 3937
" />
</g>
<g style="fill:#000000; fill-opacity:0.0; 
stroke:#000000; stroke-width:39.3701; stroke-opacity:1; 
stroke-linecap:round; stroke-linejoin:round;">
</g>
<g style="fill:#000000; fill-opacity:0.0; 
stroke:#000000; stroke-width:59.0551; stroke-opacity:1; 
stroke-linecap:round; stroke-linejoin:round;">
<text x="13779.5" y="4586.61"
textLength="564.211" font-size="682.415" lengthAdjust="spacingAndGlyphs"
text-anchor="start" opacity="0">1</text>
<path d="M14199 4562
L13906 4562
" />
<path d="M14052 4562
L14052 4050
L14004 4123
L13955 4172
L13906 4196
" />
</g>
<g style="fill:#000000; fill-opacity:0.0; 
stroke:#000000; stroke-width:39.3701; stroke-opacity:1; 
stroke-linecap:round; stroke-linejoin:round;">
</g>
<g style="fill:#000000; fill-opacity:0.0; 
stroke:#000000; stroke-width:59.0551; stroke-opacity:1; 
stroke-linecap:round; stroke-linejoin:round;">
<text x="33464.6" y="4586.61"
textLength="546.494" font-size="682.415" lengthAdjust="spacingAndGlyphs"
text-anchor="start" opacity="0">2</text>
<path d="M33591 4099
L33615 4074
L33664 4050
L33786 4050
L33835 4074
L33859 4099
L33884 4147
L33884 4196
L33859 4269
L33567 4562
L33884 4562
" />
</g>
<g style="fill:#000000; fill-opacity:0.0; 
stroke:#000000; stroke-width:39.3701; stroke-opacity:1; 
stroke-linecap:round; stroke-linejoin:round;">
</g>
<g style="fill:#000000; fill-opacity:0.0; 
stroke:#000000; stroke-width:59.0551; stroke-opacity:1; 
stroke-linecap:round; stroke-linejoin:round;">
<text x="53149.6" y="4586.61"
textLength="546.494" font-size="682.415" lengthAdjust="spacingAndGlyphs"
text-anchor="start" opacity="0">3</text>
<path d="M53252 4050
L53569 4050
L53398 4245
L53471 4245
L53520 4269
L53544 4294
L53569 4342
L53569 4464
L53544 4513
L53520 4537
L53471 4562
L53325 4562
L53276 4537
L53252 4513
" />
</g>
<g style="fill:#000000; fill-opacity:0.0; 
stroke:#000000; stroke-width:39.3701; stroke-opacity:1; 
stroke-linecap:round; stroke-linejoin:round;">
</g>
<g style="fill:#000000; fill-opacity:0.0; 
stroke:#000000; stroke-width:59.0551; stroke-opacity:1; 
stroke-linecap:round; stroke-linejoin:round;">
<text x="72834.6" y="4586.61"
textLength="546.494" font-size="682.415" lengthAdjust="spacingAndGlyphs"
text-anchor="start" opacity="0">4</text>
<path d="M73205 4221
L73205 4562
" />
<path d="M73083 4026
L72961 4391
L73278 4391
" />
</g>
<g style="fill:#000000; fill-opacity:0.0; 
stroke:#000000; stroke-width:39.3701; stroke-opacity:1; 
stroke-linecap:round; stroke-linejoin:round;">
</g>
<g style="fill:#000000; fill-opacity:0.0; 
stroke:#000000; stroke-width:59.0551; stroke-opacity:1; 
stroke-linecap:round; stroke-linejoin:round;">
<text x="92519.7" y="4586.61"
textLength="546.494" font-size="682.415" lengthAdjust="spacingAndGlyphs"
text-anchor="start" opacity="0">5</text>
<path d="M92914 4050
L92671 4050
L92646 4294
L92671 4269
L92719 4245
L92841 4245
L92890 4269
L92914 4294
L92939 4342
L92939 4464
L92914 4513
L92890 4537
L92841 4562
L92719 4562
L92671 4537
L92646 4513
" />
</g>
<g style="fill:#000000; fill-opacity:0.0; 
stroke:#000000; stroke-width:39.3701; stroke-opacity:1; 
stroke-linecap:round; stroke-linejoin:round;">
</g>
<g style="fill:#000000; fill-opacity:0.0; 
stroke:#000000; stroke-width:59.0551; stroke-opacity:1; 
stroke-linecap:round; stroke-linejoin:round;">
<text x="112205" y="4586.61"
textLength="546.494" font-size="682.415" lengthAdjust="spacingAndGlyphs"
text-anchor="start" opacity="0">6</text>
<path d="M112575 4050
L112477 4050
L112429 4074
L112404 4099
L112356 4172
L112331 4269
L112331 4464
L112356 4513
L112380 4537
L112429 4562
L112526 4562
L112575 4537
L112599 4513
L112624 4464
L112624 4342
L112599 4294
L112575 4269
L112526 4245
L112429 4245
L112380 4269
L112356 4294
L112331 4342
" />
</g>
<g style="fill:#000000; fill-opacity:0.0; 
stroke:#000000; stroke-width:39.3701; stroke-opacity:1; 
stroke-linecap:round; stroke-linejoin:round;">
</g>
<g style="fill:#000000; fill-opacity:0.0; 
stroke:#000000; stroke-width:59.0551; stroke-opacity:1; 
stroke-linecap:round; stroke-linejoin:round;">
<path d="M23622 77955
L23622 78742
" />
</g>
<g style="fill:#000000; fill-opacity:0.0; 
stroke:#000000; stroke-width:39.3701; stroke-opacity:1; 
stroke-linecap:round; stroke-linejoin:round;">
</g>
<g style="fill:#000000; fill-opacity:0.0; 
stroke:#000000; stroke-width:59.0551; stroke-opacity:1; 
stroke-linecap:round; stroke-linejoin:round;">
<path d="M43307 77955
L43307 78742
" />
</g>
<g style="fill:#000000; fill-opacity:0.0; 
stroke:#000000; stroke-width:39.3701; stroke-opacity:1; 
stroke-linecap:round; stroke-linejoin:round;">
</g>
<g style="fill:#000000; fill-opacity:0.0; 
stroke:#000000; stroke-width:59.0551; stroke-opacity:1; 
stroke-linecap:round; stroke-linejoin:round;">
<path d="M62992 77955
L62992 78742
" />
</g>
<g style="fill:#000000; fill-opacity:0.0; 
stroke:#000000; stroke-width:39.3701; stroke-opacity:1; 
stroke-linecap:round; stroke-linejoin:round;">
</g>
<g style="fill:#000000; fill-opacity:0.0; 
stroke:#000000; stroke-width:59.0551; stroke-opacity:1; 
stroke-linecap:round; stroke-linejoin:round;">
<path d="M82677 77955
L82677 78742
" />
</g>
<g style="fill:#000000; fill-opacity:0.0; 
stroke:#000000; stroke-width:39.3701; stroke-opacity:1; 
stroke-linecap:round; stroke-linejoin:round;">
</g>
<g style="fill:#000000; fill-opacity:0.0; 
stroke:#000000; stroke-width:59.0551; stroke-opacity:1; 
stroke-linecap:round; stroke-linejoin:round;">
<path d="M102362 77955
L102362 78742
" />
</g>
<g style="fill:#000000; fill-opacity:0.0; 
stroke:#000000; stroke-width:39.3701; stroke-opacity:1; 
stroke-linecap:round; stroke-linejoin:round;">
</g>
<g style="fill:#000000; fill-opacity:0.0; 
stroke:#000000; stroke-width:59.0551; stroke-opacity:1; 
stroke-linecap:round; stroke-linejoin:round;">
<text x="13779.5" y="78605.2"
textLength="546.494" font-size="682.415" lengthAdjust="spacingAndGlyphs"
text-anchor="start" opacity="0">1</text>
<path d="M14199 78580
L13906 78580
" />
<path d="M14052 78580
L14052 78069
L14004 78142
L13955 78190
L13906 78215
" />
</g>
<g style="fill:#000000; fill-opacity:0.0; 
stroke:#000000; stroke-width:39.3701; stroke-opacity:1; 
stroke-linecap:round; stroke-linejoin:round;">
</g>
<g style="fill:#000000; fill-opacity:0.0; 
stroke:#000000; stroke-width:59.0551; stroke-opacity:1; 
stroke-linecap:round; stroke-linejoin:round;">
<text x="33464.6" y="78605.2"
textLength="546.494" font-size="682.415" lengthAdjust="spacingAndGlyphs"
text-anchor="start" opacity="0">2</text>
<path d="M33591 78117
L33615 78093
L33664 78069
L33786 78069
L33835 78093
L33859 78117
L33884 78166
L33884 78215
L33859 78288
L33567 78580
L33884 78580
" />
</g>
<g style="fill:#000000; fill-opacity:0.0; 
stroke:#000000; stroke-width:39.3701; stroke-opacity:1; 
stroke-linecap:round; stroke-linejoin:round;">
</g>
<g style="fill:#000000; fill-opacity:0.0; 
stroke:#000000; stroke-width:59.0551; stroke-opacity:1; 
stroke-linecap:round; stroke-linejoin:round;">
<text x="53149.6" y="78605.2"
textLength="546.494" font-size="682.415" lengthAdjust="spacingAndGlyphs"
text-anchor="start" opacity="0">3</text>
<path d="M53252 78069
L53569 78069
L53398 78263
L53471 78263
L53520 78288
L53544 78312
L53569 78361
L53569 78483
L53544 78532
L53520 78556
L53471 78580
L53325 78580
L53276 78556
L53252 78532
" />
</g>
<g style="fill:#000000; fill-opacity:0.0; 
stroke:#000000; stroke-width:39.3701; stroke-opacity:1; 
stroke-linecap:round; stroke-linejoin:round;">
</g>
<g style="fill:#000000; fill-opacity:0.0; 
stroke:#000000; stroke-width:59.0551; stroke-opacity:1; 
stroke-linecap:round; stroke-linejoin:round;">
<text x="72834.6" y="78605.2"
textLength="546.494" font-size="682.415" lengthAdjust="spacingAndGlyphs"
text-anchor="start" opacity="0">4</text>
<path d="M73205 78239
L73205 78580
" />
<path d="M73083 78044
L72961 78410
L73278 78410
" />
</g>
<g style="fill:#000000; fill-opacity:0.0; 
stroke:#000000; stroke-width:39.3701; stroke-opacity:1; 
stroke-linecap:round; stroke-linejoin:round;">
</g>
<g style="fill:#000000; fill-opacity:0.0; 
stroke:#000000; stroke-width:59.0551; stroke-opacity:1; 
stroke-linecap:round; stroke-linejoin:round;">
<text x="92519.7" y="78605.2"
textLength="546.494" font-size="682.415" lengthAdjust="spacingAndGlyphs"
text-anchor="start" opacity="0">5</text>
<path d="M92914 78069
L92671 78069
L92646 78312
L92671 78288
L92719 78263
L92841 78263
L92890 78288
L92914 78312
L92939 78361
L92939 78483
L92914 78532
L92890 78556
L92841 78580
L92719 78580
L92671 78556
L92646 78532
" />
</g>
<g style="fill:#000000; fill-opacity:0.0; 
stroke:#000000; stroke-width:39.3701; stroke-opacity:1; 
stroke-linecap:round; stroke-linejoin:round;">
</g>
<g style="fill:#000000; fill-opacity:0.0; 
stroke:#000000; stroke-width:59.0551; stroke-opacity:1; 
stroke-linecap:round; stroke-linejoin:round;">
<text x="112205" y="78605.2"
textLength="546.494" font-size="682.415" lengthAdjust="spacingAndGlyphs"
text-anchor="start" opacity="0">6</text>
<path d="M112575 78069
L112477 78069
L112429 78093
L112404 78117
L112356 78190
L112331 78288
L112331 78483
L112356 78532
L112380 78556
L112429 78580
L112526 78580
L112575 78556
L112599 78532
L112624 78483
L112624 78361
L112599 78312
L112575 78288
L112526 78263
L112429 78263
L112380 78288
L112356 78312
L112331 78361
" />
</g>
<g style="fill:#000000; fill-opacity:0.0; 
stroke:#000000; stroke-width:39.3701; stroke-opacity:1; 
stroke-linecap:round; stroke-linejoin:round;">
</g>
<g style="fill:#000000; fill-opacity:0.0; 
stroke:#000000; stroke-width:59.0551; stroke-opacity:1; 
stroke-linecap:round; stroke-linejoin:round;">
<path d="M3937 23622
L4724 23622
" />
</g>
<g style="fill:#000000; fill-opacity:0.0; 
stroke:#000000; stroke-width:39.3701; stroke-opacity:1; 
stroke-linecap:round; stroke-linejoin:round;">
</g>
<g style="fill:#000000; fill-opacity:0.0; 
stroke:#000000; stroke-width:59.0551; stroke-opacity:1; 
stroke-linecap:round; stroke-linejoin:round;">
<path d="M3937 43307
L4724 43307
" />
</g>
<g style="fill:#000000; fill-opacity:0.0; 
stroke:#000000; stroke-width:39.3701; stroke-opacity:1; 
stroke-linecap:round; stroke-linejoin:round;">
</g>
<g style="fill:#000000; fill-opacity:0.0; 
stroke:#000000; stroke-width:59.0551; stroke-opacity:1; 
stroke-linecap:round; stroke-linejoin:round;">
<path d="M3937 62992
L4724 62992
" />
</g>
<g style="fill:#000000; fill-opacity:0.0; 
stroke:#000000; stroke-width:39.3701; stroke-opacity:1; 
stroke-linecap:round; stroke-linejoin:round;">
</g>
<g style="fill:#000000; fill-opacity:0.0; 
stroke:#000000; stroke-width:59.0551; stroke-opacity:1; 
stroke-linecap:round; stroke-linejoin:round;">
<text x="4330.71" y="14035.4"
textLength="497.75" font-size="682.415" lengthAdjust="spacingAndGlyphs"
text-anchor="middle" opacity="0">A</text>
<path d="M4208 13864
L4452 13864
" />
<path d="M4160 14011
L4330 13499
L4501 14011
" />
</g>
<g style="fill:#000000; fill-opacity:0.0; 
stroke:#000000; stroke-width:39.3701; stroke-opacity:1; 
stroke-linecap:round; stroke-linejoin:round;">
</g>
<g style="fill:#000000; fill-opacity:0.0; 
stroke:#000000; stroke-width:59.0551; stroke-opacity:1; 
stroke-linecap:round; stroke-linejoin:round;">
<text x="4330.71" y="33720.5"
textLength="570.866" font-size="682.415" lengthAdjust="spacingAndGlyphs"
text-anchor="middle" opacity="0">B</text>
<path d="M4367 33428
L4440 33452
L4464 33476
L4489 33525
L4489 33598
L4464 33647
L4440 33671
L4391 33696
L4196 33696
L4196 33184
L4367 33184
L4416 33208
L4440 33233
L4464 33281
L4464 33330
L4440 33379
L4416 33403
L4367 33428
L4196 33428
" />
</g>
<g style="fill:#000000; fill-opacity:0.0; 
stroke:#000000; stroke-width:39.3701; stroke-opacity:1; 
stroke-linecap:round; stroke-linejoin:round;">
</g>
<g style="fill:#000000; fill-opacity:0.0; 
stroke:#000000; stroke-width:59.0551; stroke-opacity:1; 
stroke-linecap:round; stroke-linejoin:round;">
<text x="4330.71" y="53405.5"
textLength="570.866" font-size="682.415" lengthAdjust="spacingAndGlyphs"
text-anchor="middle" opacity="0">C</text>
<path d="M4489 53332
L4464 53356
L4391 53381
L4342 53381
L4269 53356
L4221 53308
L4196 53259
L4172 53161
L4172 53088
L4196 52991
L4221 52942
L4269 52893
L4342 52869
L4391 52869
L4464 52893
L4489 52918
" />
</g>
<g style="fill:#000000; fill-opacity:0.0; 
stroke:#000000; stroke-width:39.3701; stroke-opacity:1; 
stroke-linecap:round; stroke-linejoin:round;">
</g>
<g style="fill:#000000; fill-opacity:0.0; 
stroke:#000000; stroke-width:59.0551; stroke-opacity:1; 
stroke-linecap:round; stroke-linejoin:round;">
<text x="4330.71" y="73090.6"
textLength="570.866" font-size="682.415" lengthAdjust="spacingAndGlyphs"
text-anchor="middle" opacity="0">D</text>
<path d="M4196 73066
L4196 72554
L4318 72554
L4391 72578
L4440 72627
L4464 72676
L4489 72773
L4489 72846
L4464 72944
L4440 72993
L4391 73041
L4318 73066
L4196 73066
" />
</g>
<g style="fill:#000000; fill-opacity:0.0; 
stroke:#000000; stroke-width:39.3701; stroke-opacity:1; 
stroke-linecap:round; stroke-linejoin:round;">
</g>
<g style="fill:#000000; fill-opacity:0.0; 
stroke:#000000; stroke-width:59.0551; stroke-opacity:1; 
stroke-linecap:round; stroke-linejoin:round;">
<path d="M112992 23622
L112205 23622
" />
</g>
<g style="fill:#000000; fill-opacity:0.0; 
stroke:#000000; stroke-width:39.3701; stroke-opacity:1; 
stroke-linecap:round; stroke-linejoin:round;">
</g>
<g style="fill:#000000; fill-opacity:0.0; 
stroke:#000000; stroke-width:59.0551; stroke-opacity:1; 
stroke-linecap:round; stroke-linejoin:round;">
<path d="M112992 43307
L112205 43307
" />
</g>
<g style="fill:#000000; fill-opacity:0.0; 
stroke:#000000; stroke-width:39.3701; stroke-opacity:1; 
stroke-linecap:round; stroke-linejoin:round;">
</g>
<g style="fill:#000000; fill-opacity:0.0; 
stroke:#000000; stroke-width:59.0551; stroke-opacity:1; 
stroke-linecap:round; stroke-linejoin:round;">
<path d="M112992 62992
L112205 62992
" />
</g>
<g style="fill:#000000; fill-opacity:0.0; 
stroke:#000000; stroke-width:39.3701; stroke-opacity:1; 
stroke-linecap:round; stroke-linejoin:round;">
</g>
<g style="fill:#000000; fill-opacity:0.0; 
stroke:#000000; stroke-width:59.0551; stroke-opacity:1; 
stroke-linecap:round; stroke-linejoin:round;">
<text x="112599" y="14035.4"
textLength="497.75" font-size="682.415" lengthAdjust="spacingAndGlyphs"
text-anchor="middle" opacity="0">A</text>
<path d="M112477 13864
L112721 13864
" />
<path d="M112428 14011
L112599 13499
L112769 14011
" />
</g>
<g style="fill:#000000; fill-opacity:0.0; 
stroke:#000000; stroke-width:39.3701; stroke-opacity:1; 
stroke-linecap:round; stroke-linejoin:round;">
</g>
<g style="fill:#000000; fill-opacity:0.0; 
stroke:#000000; stroke-width:59.0551; stroke-opacity:1; 
stroke-linecap:round; stroke-linejoin:round;">
<text x="112599" y="33720.5"
textLength="570.866" font-size="682.415" lengthAdjust="spacingAndGlyphs"
text-anchor="middle" opacity="0">B</text>
<path d="M112635 33428
L112708 33452
L112733 33476
L112757 33525
L112757 33598
L112733 33647
L112708 33671
L112660 33696
L112465 33696
L112465 33184
L112635 33184
L112684 33208
L112708 33233
L112733 33281
L112733 33330
L112708 33379
L112684 33403
L112635 33428
L112465 33428
" />
</g>
<g style="fill:#000000; fill-opacity:0.0; 
stroke:#000000; stroke-width:39.3701; stroke-opacity:1; 
stroke-linecap:round; stroke-linejoin:round;">
</g>
<g style="fill:#000000; fill-opacity:0.0; 
stroke:#000000; stroke-width:59.0551; stroke-opacity:1; 
stroke-linecap:round; stroke-linejoin:round;">
<text x="112599" y="53405.5"
textLength="570.866" font-size="682.415" lengthAdjust="spacingAndGlyphs"
text-anchor="middle" opacity="0">C</text>
<path d="M112757 53332
L112733 53356
L112660 53381
L112611 53381
L112538 53356
L112489 53308
L112465 53259
L112440 53161
L112440 53088
L112465 52991
L112489 52942
L112538 52893
L112611 52869
L112660 52869
L112733 52893
L112757 52918
" />
</g>
<g style="fill:#000000; fill-opacity:0.0; 
stroke:#000000; stroke-width:39.3701; stroke-opacity:1; 
stroke-linecap:round; stroke-linejoin:round;">
</g>
<g style="fill:#000000; fill-opacity:0.0; 
stroke:#000000; stroke-width:59.0551; stroke-opacity:1; 
stroke-linecap:round; stroke-linejoin:round;">
<text x="112599" y="73090.6"
textLength="570.866" font-size="682.415" lengthAdjust="spacingAndGlyphs"
text-anchor="middle" opacity="0">D</text>
<path d="M112465 73066
L112465 72554
L112587 72554
L112660 72578
L112708 72627
L112733 72676
L112757 72773
L112757 72846
L112733 72944
L112708 72993
L112660 73041
L112587 73066
L112465 73066
" />
</g>
<g style="fill:#000000; fill-opacity:0.0; 
stroke:#000000; stroke-width:39.3701; stroke-opacity:1; 
stroke-linecap:round; stroke-linejoin:round;">
</g>
<g style="fill:#000000; fill-opacity:0.0; 
stroke:#000000; stroke-width:59.0551; stroke-opacity:1; 
stroke-linecap:round; stroke-linejoin:round;">
<text x="78741" y="76321.7"
textLength="2758.72" font-size="787.402" lengthAdjust="spacingAndGlyphs"
text-anchor="start" opacity="0">Date: </text>
<path d="M78911 76293
L78911 75703
L79051 75703
L79136 75731
L79192 75787
L79220 75843
L79248 75956
L79248 76040
L79220 76153
L79192 76209
L79136 76265
L79051 76293
L78911 76293
" />
<path d="M79754 76293
L79754 75984
L79726 75928
L79670 75899
L79557 75899
L79501 75928
" />
<path d="M79754 76265
L79698 76293
L79557 76293
L79501 76265
L79473 76209
L79473 76153
L79501 76096
L79557 76068
L79698 76068
L79754 76040
" />
<path d="M79951 75899
L80176 75899
" />
<path d="M80036 75703
L80036 76209
L80064 76265
L80120 76293
L80176 76293
" />
<path d="M80598 76265
L80542 76293
L80429 76293
L80373 76265
L80345 76209
L80345 75984
L80373 75928
L80429 75899
L80542 75899
L80598 75928
L80626 75984
L80626 76040
L80345 76096
" />
<path d="M80879 76237
L80907 76265
L80879 76293
L80851 76265
L80879 76237
L80879 76293
" />
<path d="M80879 75928
L80907 75956
L80879 75984
L80851 75956
L80879 75928
L80879 75984
" />
</g>
<g style="fill:#000000; fill-opacity:0.0; 
stroke:#000000; stroke-width:39.3701; stroke-opacity:1; 
stroke-linecap:round; stroke-linejoin:round;">
</g>
<g style="fill:#000000; fill-opacity:0.0; 
stroke:#000000; stroke-width:59.0551; stroke-opacity:1; 
stroke-linecap:round; stroke-linejoin:round;">
<path d="M69685 76577
L112205 76577
" />
</g>
<g style="fill:#000000; fill-opacity:0.0; 
stroke:#000000; stroke-width:39.3701; stroke-opacity:1; 
stroke-linecap:round; stroke-linejoin:round;">
</g>
<g style="fill:#000000; fill-opacity:0.0; 
stroke:#000000; stroke-width:59.0551; stroke-opacity:1; 
stroke-linecap:round; stroke-linejoin:round;">
<text x="70079.6" y="77424.1"
textLength="14429.1" font-size="787.402" lengthAdjust="spacingAndGlyphs"
text-anchor="start" opacity="0">KiCad E.D.A.  pcbnew (5.1.5)-3</text>
<path d="M70249 77395
L70249 76805
" />
<path d="M70587 77395
L70334 77058
" />
<path d="M70587 76805
L70249 77142
" />
<path d="M70840 77395
L70840 77002
" />
<path d="M70840 76805
L70812 76833
L70840 76861
L70868 76833
L70840 76805
L70840 76861
" />
<path d="M71458 77339
L71430 77367
L71346 77395
L71290 77395
L71205 77367
L71149 77311
L71121 77255
L71093 77142
L71093 77058
L71121 76946
L71149 76889
L71205 76833
L71290 76805
L71346 76805
L71430 76833
L71458 76861
" />
<path d="M71965 77395
L71965 77086
L71937 77030
L71880 77002
L71768 77002
L71712 77030
" />
<path d="M71965 77367
L71908 77395
L71768 77395
L71712 77367
L71683 77311
L71683 77255
L71712 77199
L71768 77171
L71908 77171
L71965 77142
" />
<path d="M72499 77395
L72499 76805
" />
<path d="M72499 77367
L72443 77395
L72330 77395
L72274 77367
L72246 77339
L72218 77283
L72218 77114
L72246 77058
L72274 77030
L72330 77002
L72443 77002
L72499 77030
" />
<path d="M73230 77086
L73427 77086
" />
<path d="M73511 77395
L73230 77395
L73230 76805
L73511 76805
" />
<path d="M73764 77339
L73793 77367
L73764 77395
L73736 77367
L73764 77339
L73764 77395
" />
<path d="M74046 77395
L74046 76805
L74186 76805
L74271 76833
L74327 76889
L74355 76946
L74383 77058
L74383 77142
L74355 77255
L74327 77311
L74271 77367
L74186 77395
L74046 77395
" />
<path d="M74636 77339
L74664 77367
L74636 77395
L74608 77367
L74636 77339
L74636 77395
" />
<path d="M74889 77227
L75171 77227
" />
<path d="M74833 77395
L75030 76805
L75227 77395
" />
<path d="M75424 77339
L75452 77367
L75424 77395
L75395 77367
L75424 77339
L75424 77395
" />
<path d="M76605 77002
L76605 77592
" />
<path d="M76605 77030
L76661 77002
L76773 77002
L76830 77030
L76858 77058
L76886 77114
L76886 77283
L76858 77339
L76830 77367
L76773 77395
L76661 77395
L76605 77367
" />
<path d="M77392 77367
L77336 77395
L77223 77395
L77167 77367
L77139 77339
L77111 77283
L77111 77114
L77139 77058
L77167 77030
L77223 77002
L77336 77002
L77392 77030
" />
<path d="M77645 77395
L77645 76805
" />
<path d="M77645 77030
L77701 77002
L77814 77002
L77870 77030
L77898 77058
L77926 77114
L77926 77283
L77898 77339
L77870 77367
L77814 77395
L77701 77395
L77645 77367
" />
<path d="M78180 77002
L78180 77395
" />
<path d="M78180 77058
L78208 77030
L78264 77002
L78348 77002
L78404 77030
L78433 77086
L78433 77395
" />
<path d="M78939 77367
L78883 77395
L78770 77395
L78714 77367
L78686 77311
L78686 77086
L78714 77030
L78770 77002
L78883 77002
L78939 77030
L78967 77086
L78967 77142
L78686 77199
" />
<path d="M79164 77002
L79276 77395
L79389 77114
L79501 77395
L79614 77002
" />
<path d="M80457 77620
L80429 77592
L80373 77508
L80345 77452
L80317 77367
L80289 77227
L80289 77114
L80317 76974
L80345 76889
L80373 76833
L80429 76749
L80457 76721
" />
<path d="M80964 76805
L80682 76805
L80654 77086
L80682 77058
L80739 77030
L80879 77030
L80935 77058
L80964 77086
L80992 77142
L80992 77283
L80964 77339
L80935 77367
L80879 77395
L80739 77395
L80682 77367
L80654 77339
" />
<path d="M81245 77339
L81273 77367
L81245 77395
L81217 77367
L81245 77339
L81245 77395
" />
<path d="M81835 77395
L81498 77395
" />
<path d="M81667 77395
L81667 76805
L81610 76889
L81554 76946
L81498 76974
" />
<path d="M82088 77339
L82117 77367
L82088 77395
L82060 77367
L82088 77339
L82088 77395
" />
<path d="M82651 76805
L82370 76805
L82341 77086
L82370 77058
L82426 77030
L82566 77030
L82623 77058
L82651 77086
L82679 77142
L82679 77283
L82651 77339
L82623 77367
L82566 77395
L82426 77395
L82370 77367
L82341 77339
" />
<path d="M82876 77620
L82904 77592
L82960 77508
L82988 77452
L83016 77367
L83045 77227
L83045 77114
L83016 76974
L82988 76889
L82960 76833
L82904 76749
L82876 76721
" />
<path d="M83326 77171
L83776 77171
" />
<path d="M84001 76805
L84366 76805
L84169 77030
L84254 77030
L84310 77058
L84338 77086
L84366 77142
L84366 77283
L84338 77339
L84310 77367
L84254 77395
L84085 77395
L84029 77367
L84001 77339
" />
</g>
<g style="fill:#000000; fill-opacity:0.0; 
stroke:#000000; stroke-width:39.3701; stroke-opacity:1; 
stroke-linecap:round; stroke-linejoin:round;">
</g>
<g style="fill:#000000; fill-opacity:0.0; 
stroke:#000000; stroke-width:59.0551; stroke-opacity:1; 
stroke-linecap:round; stroke-linejoin:round;">
<path d="M69685 75396
L112205 75396
" />
</g>
<g style="fill:#000000; fill-opacity:0.0; 
stroke:#000000; stroke-width:39.3701; stroke-opacity:1; 
stroke-linecap:round; stroke-linejoin:round;">
</g>
<g style="fill:#000000; fill-opacity:0.0; 
stroke:#000000; stroke-width:118.11; stroke-opacity:1; 
stroke-linecap:round; stroke-linejoin:round;">
<text x="103544" y="76321.7"
textLength="2336.9" font-size="787.402" lengthAdjust="spacingAndGlyphs"
text-anchor="start" opacity="0">Rev: </text>
<path d="M104099 76293
L103902 76012
" />
<path d="M103761 76293
L103761 75703
L103986 75703
L104042 75731
L104070 75759
L104099 75815
L104099 75899
L104070 75956
L104042 75984
L103986 76012
L103761 76012
" />
<path d="M104577 76265
L104520 76293
L104408 76293
L104352 76265
L104323 76209
L104323 75984
L104352 75928
L104408 75899
L104520 75899
L104577 75928
L104605 75984
L104605 76040
L104323 76096
" />
<path d="M104802 75899
L104942 76293
L105083 75899
" />
<path d="M105308 76237
L105336 76265
L105308 76293
L105280 76265
L105308 76237
L105308 76293
" />
<path d="M105308 75928
L105336 75956
L105308 75984
L105280 75956
L105308 75928
L105308 75984
" />
</g>
<g style="fill:#000000; fill-opacity:0.0; 
stroke:#000000; stroke-width:39.3701; stroke-opacity:1; 
stroke-linecap:round; stroke-linejoin:round;">
</g>
<g style="fill:#000000; fill-opacity:0.0; 
stroke:#000000; stroke-width:59.0551; stroke-opacity:1; 
stroke-linecap:round; stroke-linejoin:round;">
<text x="70079.6" y="76321.7"
textLength="3781.21" font-size="787.402" lengthAdjust="spacingAndGlyphs"
text-anchor="start" opacity="0">Size: A4</text>
<path d="M70221 76265
L70305 76293
L70446 76293
L70502 76265
L70530 76237
L70559 76181
L70559 76124
L70530 76068
L70502 76040
L70446 76012
L70334 75984
L70277 75956
L70249 75928
L70221 75871
L70221 75815
L70249 75759
L70277 75731
L70334 75703
L70474 75703
L70559 75731
" />
<path d="M70812 76293
L70812 75899
" />
<path d="M70812 75703
L70784 75731
L70812 75759
L70840 75731
L70812 75703
L70812 75759
" />
<path d="M71037 75899
L71346 75899
L71037 76293
L71346 76293
" />
<path d="M71796 76265
L71740 76293
L71627 76293
L71571 76265
L71543 76209
L71543 75984
L71571 75928
L71627 75899
L71740 75899
L71796 75928
L71824 75984
L71824 76040
L71543 76096
" />
<path d="M72077 76237
L72105 76265
L72077 76293
L72049 76265
L72077 76237
L72077 76293
" />
<path d="M72077 75928
L72105 75956
L72077 75984
L72049 75956
L72077 75928
L72077 75984
" />
<path d="M72780 76124
L73061 76124
" />
<path d="M72724 76293
L72921 75703
L73118 76293
" />
<path d="M73568 75899
L73568 76293
" />
<path d="M73427 75674
L73286 76096
L73652 76096
" />
</g>
<g style="fill:#000000; fill-opacity:0.0; 
stroke:#000000; stroke-width:39.3701; stroke-opacity:1; 
stroke-linecap:round; stroke-linejoin:round;">
</g>
<g style="fill:#000000; fill-opacity:0.0; 
stroke:#000000; stroke-width:59.0551; stroke-opacity:1; 
stroke-linecap:round; stroke-linejoin:round;">
<text x="103544" y="77424.1"
textLength="3349.27" font-size="787.402" lengthAdjust="spacingAndGlyphs"
text-anchor="start" opacity="0">Id: 1/1</text>
<path d="M103714 77395
L103714 76805
" />
<path d="M104248 77395
L104248 76805
" />
<path d="M104248 77367
L104192 77395
L104079 77395
L104023 77367
L103995 77339
L103967 77283
L103967 77114
L103995 77058
L104023 77030
L104079 77002
L104192 77002
L104248 77030
" />
<path d="M104529 77339
L104557 77367
L104529 77395
L104501 77367
L104529 77339
L104529 77395
" />
<path d="M104529 77030
L104557 77058
L104529 77086
L104501 77058
L104529 77030
L104529 77086
" />
<path d="M105570 77395
L105232 77395
" />
<path d="M105401 77395
L105401 76805
L105345 76889
L105289 76946
L105232 76974
" />
<path d="M106245 76777
L105739 77536
" />
<path d="M106751 77395
L106413 77395
" />
<path d="M106582 77395
L106582 76805
L106526 76889
L106470 76946
L106413 76974
" />
</g>
<g style="fill:#000000; fill-opacity:0.0; 
stroke:#000000; stroke-width:39.3701; stroke-opacity:1; 
stroke-linecap:round; stroke-linejoin:round;">
</g>
<g style="fill:#000000; fill-opacity:0.0; 
stroke:#000000; stroke-width:59.0551; stroke-opacity:1; 
stroke-linecap:round; stroke-linejoin:round;">
<path d="M69685 73821
L112205 73821
" />
</g>
<g style="fill:#000000; fill-opacity:0.0; 
stroke:#000000; stroke-width:39.3701; stroke-opacity:1; 
stroke-linecap:round; stroke-linejoin:round;">
</g>
<g style="fill:#000000; fill-opacity:0.0; 
stroke:#000000; stroke-width:157.48; stroke-opacity:1; 
stroke-linecap:round; stroke-linejoin:round;">
<text x="70079.6" y="74924.1"
textLength="3701.14" font-size="1049.87" lengthAdjust="spacingAndGlyphs"
text-anchor="start" opacity="0">Title: </text>
<path d="M70360 74099
L70810 74099
" />
<path d="M70486 74886
L70585 74099
" />
<path d="M70974 74886
L71039 74361
" />
<path d="M71072 74099
L71030 74136
L71063 74174
L71105 74136
L71072 74099
L71063 74174
" />
<path d="M71302 74361
L71602 74361
" />
<path d="M71447 74099
L71363 74774
L71391 74849
L71461 74886
L71536 74886
" />
<path d="M71911 74886
L71841 74849
L71813 74774
L71897 74099
" />
<path d="M72516 74849
L72436 74886
L72286 74886
L72216 74849
L72187 74774
L72225 74474
L72272 74399
L72352 74361
L72501 74361
L72572 74399
L72600 74474
L72591 74549
L72206 74624
" />
<path d="M72895 74811
L72928 74849
L72886 74886
L72853 74849
L72895 74811
L72886 74886
" />
<path d="M72947 74399
L72980 74436
L72937 74474
L72905 74436
L72947 74399
L72937 74474
" />
</g>
<g style="fill:#000000; fill-opacity:0.0; 
stroke:#000000; stroke-width:39.3701; stroke-opacity:1; 
stroke-linecap:round; stroke-linejoin:round;">
</g>
<g style="fill:#000000; fill-opacity:0.0; 
stroke:#000000; stroke-width:59.0551; stroke-opacity:1; 
stroke-linecap:round; stroke-linejoin:round;">
<text x="70079.6" y="73408.3"
textLength="13084.4" font-size="787.402" lengthAdjust="spacingAndGlyphs"
text-anchor="start" opacity="0">File: VCO440C-PR.kicad_pcb</text>
<path d="M70446 73070
L70249 73070
" />
<path d="M70249 73380
L70249 72789
L70530 72789
" />
<path d="M70755 73380
L70755 72986
" />
<path d="M70755 72789
L70727 72817
L70755 72845
L70784 72817
L70755 72789
L70755 72845
" />
<path d="M71121 73380
L71065 73352
L71037 73295
L71037 72789
" />
<path d="M71571 73352
L71515 73380
L71402 73380
L71346 73352
L71318 73295
L71318 73070
L71346 73014
L71402 72986
L71515 72986
L71571 73014
L71599 73070
L71599 73127
L71318 73183
" />
<path d="M71852 73323
L71880 73352
L71852 73380
L71824 73352
L71852 73323
L71852 73380
" />
<path d="M71852 73014
L71880 73042
L71852 73070
L71824 73042
L71852 73014
L71852 73070
" />
<path d="M72499 72789
L72696 73380
L72893 72789
" />
<path d="M73427 73323
L73399 73352
L73314 73380
L73258 73380
L73174 73352
L73118 73295
L73090 73239
L73061 73127
L73061 73042
L73090 72930
L73118 72874
L73174 72817
L73258 72789
L73314 72789
L73399 72817
L73427 72845
" />
<path d="M73793 72789
L73905 72789
L73961 72817
L74018 72874
L74046 72986
L74046 73183
L74018 73295
L73961 73352
L73905 73380
L73793 73380
L73736 73352
L73680 73295
L73652 73183
L73652 72986
L73680 72874
L73736 72817
L73793 72789
" />
<path d="M74552 72986
L74552 73380
" />
<path d="M74411 72761
L74271 73183
L74636 73183
" />
<path d="M75114 72986
L75114 73380
" />
<path d="M74974 72761
L74833 73183
L75199 73183
" />
<path d="M75536 72789
L75592 72789
L75649 72817
L75677 72845
L75705 72902
L75733 73014
L75733 73155
L75705 73267
L75677 73323
L75649 73352
L75592 73380
L75536 73380
L75480 73352
L75452 73323
L75424 73267
L75395 73155
L75395 73014
L75424 72902
L75452 72845
L75480 72817
L75536 72789
" />
<path d="M76323 73323
L76295 73352
L76211 73380
L76155 73380
L76070 73352
L76014 73295
L75986 73239
L75958 73127
L75958 73042
L75986 72930
L76014 72874
L76070 72817
L76155 72789
L76211 72789
L76295 72817
L76323 72845
" />
<path d="M76577 73155
L77027 73155
" />
<path d="M77308 73380
L77308 72789
L77533 72789
L77589 72817
L77617 72845
L77645 72902
L77645 72986
L77617 73042
L77589 73070
L77533 73099
L77308 73099
" />
<path d="M78236 73380
L78039 73099
" />
<path d="M77898 73380
L77898 72789
L78123 72789
L78180 72817
L78208 72845
L78236 72902
L78236 72986
L78208 73042
L78180 73070
L78123 73099
L77898 73099
" />
<path d="M78489 73323
L78517 73352
L78489 73380
L78461 73352
L78489 73323
L78489 73380
" />
<path d="M78770 73380
L78770 72789
" />
<path d="M78826 73155
L78995 73380
" />
<path d="M78995 72986
L78770 73211
" />
<path d="M79248 73380
L79248 72986
" />
<path d="M79248 72789
L79220 72817
L79248 72845
L79276 72817
L79248 72789
L79248 72845
" />
<path d="M79782 73352
L79726 73380
L79614 73380
L79557 73352
L79529 73323
L79501 73267
L79501 73099
L79529 73042
L79557 73014
L79614 72986
L79726 72986
L79782 73014
" />
<path d="M80289 73380
L80289 73070
L80260 73014
L80204 72986
L80092 72986
L80036 73014
" />
<path d="M80289 73352
L80232 73380
L80092 73380
L80036 73352
L80007 73295
L80007 73239
L80036 73183
L80092 73155
L80232 73155
L80289 73127
" />
<path d="M80823 73380
L80823 72789
" />
<path d="M80823 73352
L80767 73380
L80654 73380
L80598 73352
L80570 73323
L80542 73267
L80542 73099
L80570 73042
L80598 73014
L80654 72986
L80767 72986
L80823 73014
" />
<path d="M80964 73436
L81413 73436
" />
<path d="M81554 72986
L81554 73577
" />
<path d="M81554 73014
L81610 72986
L81723 72986
L81779 73014
L81807 73042
L81835 73099
L81835 73267
L81807 73323
L81779 73352
L81723 73380
L81610 73380
L81554 73352
" />
<path d="M82341 73352
L82285 73380
L82173 73380
L82117 73352
L82088 73323
L82060 73267
L82060 73099
L82088 73042
L82117 73014
L82173 72986
L82285 72986
L82341 73014
" />
<path d="M82595 73380
L82595 72789
" />
<path d="M82595 73014
L82651 72986
L82763 72986
L82820 73014
L82848 73042
L82876 73099
L82876 73267
L82848 73323
L82820 73352
L82763 73380
L82651 73380
L82595 73352
" />
</g>
<g style="fill:#000000; fill-opacity:0.0; 
stroke:#000000; stroke-width:39.3701; stroke-opacity:1; 
stroke-linecap:round; stroke-linejoin:round;">
</g>
<g style="fill:#000000; fill-opacity:0.0; 
stroke:#000000; stroke-width:59.0551; stroke-opacity:1; 
stroke-linecap:round; stroke-linejoin:round;">
<path d="M69685 71459
L112205 71459
" />
</g>
<g style="fill:#000000; fill-opacity:0.0; 
stroke:#000000; stroke-width:39.3701; stroke-opacity:1; 
stroke-linecap:round; stroke-linejoin:round;">
</g>
<g style="fill:#000000; fill-opacity:0.0; 
stroke:#000000; stroke-width:59.0551; stroke-opacity:1; 
stroke-linecap:round; stroke-linejoin:round;">
<text x="70079.6" y="72345.4"
textLength="3236.78" font-size="787.402" lengthAdjust="spacingAndGlyphs"
text-anchor="start" opacity="0">Sheet: </text>
<path d="M70221 72289
L70305 72317
L70446 72317
L70502 72289
L70530 72260
L70559 72204
L70559 72148
L70530 72092
L70502 72064
L70446 72036
L70334 72007
L70277 71979
L70249 71951
L70221 71895
L70221 71839
L70249 71782
L70277 71754
L70334 71726
L70474 71726
L70559 71754
" />
<path d="M70812 72317
L70812 71726
" />
<path d="M71065 72317
L71065 72007
L71037 71951
L70980 71923
L70896 71923
L70840 71951
L70812 71979
" />
<path d="M71571 72289
L71515 72317
L71402 72317
L71346 72289
L71318 72232
L71318 72007
L71346 71951
L71402 71923
L71515 71923
L71571 71951
L71599 72007
L71599 72064
L71318 72120
" />
<path d="M72077 72289
L72021 72317
L71908 72317
L71852 72289
L71824 72232
L71824 72007
L71852 71951
L71908 71923
L72021 71923
L72077 71951
L72105 72007
L72105 72064
L71824 72120
" />
<path d="M72274 71923
L72499 71923
" />
<path d="M72358 71726
L72358 72232
L72386 72289
L72443 72317
L72499 72317
" />
<path d="M72696 72260
L72724 72289
L72696 72317
L72668 72289
L72696 72260
L72696 72317
" />
<path d="M72696 71951
L72724 71979
L72696 72007
L72668 71979
L72696 71951
L72696 72007
" />
</g>
<g style="fill:#000000; fill-opacity:0.0; 
stroke:#000000; stroke-width:39.3701; stroke-opacity:1; 
stroke-linecap:round; stroke-linejoin:round;">
</g>
<g style="fill:#000000; fill-opacity:0.0; 
stroke:#000000; stroke-width:59.0551; stroke-opacity:1; 
stroke-linecap:round; stroke-linejoin:round;">
<path d="M77559 75396
L77559 76577
" />
</g>
<g style="fill:#000000; fill-opacity:0.0; 
stroke:#000000; stroke-width:39.3701; stroke-opacity:1; 
stroke-linecap:round; stroke-linejoin:round;">
</g>
<g style="fill:#000000; fill-opacity:0.0; 
stroke:#000000; stroke-width:59.0551; stroke-opacity:1; 
stroke-linecap:round; stroke-linejoin:round;">
<path d="M102756 75396
L102756 77955
" />
</g>
<g style="fill:#848400; fill-opacity:0.0; 
stroke:#848400; stroke-width:59.0551; stroke-opacity:1; 
stroke-linecap:round; stroke-linejoin:round;">
</g>
<g style="fill:#848400; fill-opacity:1.0; 
stroke:#848400; stroke-width:0; stroke-opacity:1; 
stroke-linecap:round; stroke-linejoin:round;">
<path style="fill:#848400; fill-opacity:1.0; 
stroke:#848400; stroke-width:0; stroke-opacity:1; 
stroke-linecap:round; stroke-linejoin:round;fill-rule:evenodd;"
d="M 1207.31,33169.1
1282.61,33200.2
1282.61,33200.2
1350.38,33245.5
1408.02,33303.2
1453.3,33370.9
1484.49,33446.2
1500.39,33526.2
1500.39,33607.7
1484.49,33687.6
1453.3,33762.9
1453.3,33762.9
1408.02,33830.7
1350.38,33888.3
1282.61,33933.6
1282.61,33933.6
1282.61,33933.6
1207.31,33964.8
1127.37,33980.7
1045.86,33980.7
965.92,33964.8
890.617,33933.6
890.617,33933.6
890.616,33933.6
822.845,33888.3
765.211,33830.7
719.928,33762.9
719.927,33762.9
688.736,33687.6
672.835,33607.7
672.835,33526.2
688.736,33446.2
719.927,33370.9
765.211,33303.2
822.845,33245.5
890.616,33200.2
890.617,33200.2
965.92,33169.1
1045.86,33153.1
1127.37,33153.1
Z" /> 
<path style="fill:#848400; fill-opacity:1.0; 
stroke:#848400; stroke-width:0; stroke-opacity:1; 
stroke-linecap:round; stroke-linejoin:round;fill-rule:evenodd;"
d="M 14018.3,32381.6
14093.6,32412.8
14093.6,32412.8
14161.4,32458.1
14219,32515.8
14264.3,32583.5
14295.5,32658.8
14311.4,32738.8
14311.4,32820.3
14295.5,32900.2
14264.3,32975.5
14264.3,32975.5
14219,33043.3
14161.4,33100.9
14093.6,33146.2
14093.6,33146.2
14093.6,33146.2
14018.3,33177.4
13938.4,33193.3
13856.9,33193.3
13776.9,33177.4
13701.6,33146.2
13701.6,33146.2
13701.6,33146.2
13633.9,33100.9
13576.2,33043.3
13531,32975.5
13531,32975.5
13499.8,32900.2
13483.9,32820.3
13483.9,32738.8
13499.8,32658.8
13531,32583.5
13576.2,32515.8
13633.9,32458.1
13701.6,32412.8
13701.6,32412.8
13776.9,32381.6
13856.9,32365.7
13938.4,32365.7
Z" /> 
<path style="fill:#848400; fill-opacity:1.0; 
stroke:#848400; stroke-width:0; stroke-opacity:1; 
stroke-linecap:round; stroke-linejoin:round;fill-rule:evenodd;"
d="M 10408.1,32279.3
10483.4,32310.5
10483.4,32310.5
10551.2,32355.8
10608.8,32413.4
10654.1,32481.2
10685.3,32556.5
10701.2,32636.4
10701.2,32717.9
10685.3,32797.9
10654.1,32873.2
10654.1,32873.2
10608.8,32940.9
10551.2,32998.6
10483.4,33043.9
10483.4,33043.9
10483.4,33043.9
10408.1,33075
10328.2,33090.9
10246.6,33090.9
10166.7,33075
10091.4,33043.9
10091.4,33043.9
10091.4,33043.9
10023.6,32998.6
9966,32940.9
9920.71,32873.2
9920.71,32873.2
9889.52,32797.9
9873.62,32717.9
9873.62,32636.4
9889.52,32556.5
9920.71,32481.2
9966,32413.4
10023.6,32355.8
10091.4,32310.5
10091.4,32310.5
10166.7,32279.3
10246.6,32263.4
10328.2,32263.4
Z" /> 
<path style="fill:#848400; fill-opacity:1.0; 
stroke:#848400; stroke-width:0; stroke-opacity:1; 
stroke-linecap:round; stroke-linejoin:round;fill-rule:evenodd;"
d="M 4080.67,30346.1
4168.18,30363.6
4333.04,30431.8
4481.42,30531
4607.6,30657.2
4706.74,30805.5
4775.03,30970.4
4809.84,31145.4
4809.84,31323.9
4775.03,31498.9
4706.74,31663.8
4607.6,31812.1
4481.42,31938.3
4333.04,32037.4
4168.18,32105.7
4080.67,32123.1
3993.16,32140.6
3814.71,32140.6
3727.2,32123.1
3639.69,32105.7
3474.83,32037.4
3326.46,31938.3
3200.27,31812.1
3101.13,31663.8
3032.84,31498.9
2998.03,31323.9
2998.03,31145.4
3032.84,30970.4
3101.13,30805.5
3200.27,30657.2
3326.46,30531
3474.83,30431.8
3639.69,30363.6
3727.2,30346.1
3814.71,30328.7
3993.16,30328.7
Z" /> 
<path style="fill:#848400; fill-opacity:1.0; 
stroke:#848400; stroke-width:0; stroke-opacity:1; 
stroke-linecap:round; stroke-linejoin:round;fill-rule:evenodd;"
d="M 1680.67,28946.1
1768.18,28963.6
1933.04,29031.8
2081.42,29131
2207.6,29257.2
2306.74,29405.5
2375.03,29570.4
2409.84,29745.4
2409.84,29923.9
2375.03,30098.9
2306.74,30263.8
2207.6,30412.1
2081.42,30538.3
1933.04,30637.4
1768.18,30705.7
1680.67,30723.1
1593.16,30740.6
1414.71,30740.6
1327.2,30723.1
1239.69,30705.7
1074.83,30637.4
926.456,30538.3
800.274,30412.1
701.134,30263.8
632.845,30098.9
598.031,29923.9
598.031,29745.4
632.845,29570.4
701.134,29405.5
800.274,29257.2
926.456,29131
1074.83,29031.8
1239.69,28963.6
1327.2,28946.1
1414.71,28928.7
1593.16,28928.7
Z" /> 
<path style="fill:#848400; fill-opacity:1.0; 
stroke:#848400; stroke-width:0; stroke-opacity:1; 
stroke-linecap:round; stroke-linejoin:round;fill-rule:evenodd;"
d="M 6430.67,27646.1
6518.18,27663.6
6683.04,27731.8
6831.42,27831
6957.6,27957.2
7056.74,28105.5
7111.82,28238.5
7125.03,28270.4
7158.31,28437.7
7159.84,28445.4
7159.84,28623.9
7125.03,28798.9
7056.74,28963.8
6957.6,29112.1
6831.42,29238.3
6683.04,29337.4
6518.18,29405.7
6430.67,29423.1
6343.16,29440.6
6164.71,29440.6
6077.2,29423.1
5989.69,29405.7
5824.83,29337.4
5676.46,29238.3
5550.27,29112.1
5451.13,28963.8
5382.84,28798.9
5348.03,28623.9
5348.03,28445.4
5349.57,28437.7
5382.84,28270.4
5396.05,28238.5
5451.13,28105.5
5550.27,27957.2
5676.46,27831
5824.83,27731.8
5989.69,27663.6
6077.2,27646.1
6164.71,27628.7
6343.16,27628.7
Z" /> 
<path style="fill:#848400; fill-opacity:1.0; 
stroke:#848400; stroke-width:0; stroke-opacity:1; 
stroke-linecap:round; stroke-linejoin:round;fill-rule:evenodd;"
d="M 13361.5,28213.3
13422.5,28238.5
13477.4,28275.2
13524,28321.9
13560.7,28376.7
13585.9,28437.7
13598.8,28502.4
13598.8,28568.4
13585.9,28633.2
13560.7,28694.1
13524,28749
13477.4,28795.7
13422.5,28832.3
13361.5,28857.6
13296.8,28870.5
13230.8,28870.5
13166.1,28857.6
13105.1,28832.3
13050.2,28795.7
13003.5,28749
12966.9,28694.1
12941.6,28633.2
12928.7,28568.4
12928.7,28502.4
12941.6,28437.7
12966.9,28376.7
13003.5,28321.9
13050.2,28275.2
13105.1,28238.5
13166.1,28213.3
13230.8,28200.4
13296.8,28200.4
Z" /> 
<path style="fill:#848400; fill-opacity:1.0; 
stroke:#848400; stroke-width:0; stroke-opacity:1; 
stroke-linecap:round; stroke-linejoin:round;fill-rule:evenodd;"
d="M 10361.5,28213.3
10422.5,28238.5
10477.4,28275.2
10524,28321.9
10560.7,28376.7
10585.9,28437.7
10598.8,28502.4
10598.8,28568.4
10585.9,28633.2
10560.7,28694.1
10524,28749
10477.4,28795.7
10422.5,28832.3
10361.5,28857.6
10296.8,28870.5
10230.8,28870.5
10166.1,28857.6
10105.1,28832.3
10050.2,28795.7
10003.5,28749
9966.87,28694.1
9941.62,28633.2
9928.74,28568.4
9928.74,28502.4
9941.62,28437.7
9966.87,28376.7
10003.5,28321.9
10050.2,28275.2
10105.1,28238.5
10166.1,28213.3
10230.8,28200.4
10296.8,28200.4
Z" /> 
<path style="fill:#848400; fill-opacity:1.0; 
stroke:#848400; stroke-width:0; stroke-opacity:1; 
stroke-linecap:round; stroke-linejoin:round;fill-rule:evenodd;"
d="M 2809.84,27940.6
998.031,27940.6
998.031,26128.7
2809.84,26128.7
Z" /> 
<path style="fill:#848400; fill-opacity:1.0; 
stroke:#848400; stroke-width:0; stroke-opacity:1; 
stroke-linecap:round; stroke-linejoin:round;fill-rule:evenodd;"
d="M 4880.67,25546.1
4968.18,25563.6
5133.04,25631.8
5281.42,25731
5407.6,25857.2
5506.74,26005.5
5575.03,26170.4
5609.84,26345.4
5609.84,26523.9
5575.03,26698.9
5506.74,26863.8
5407.6,27012.1
5281.42,27138.3
5133.04,27237.4
4968.18,27305.7
4880.67,27323.1
4793.16,27340.6
4614.71,27340.6
4527.2,27323.1
4439.69,27305.7
4274.83,27237.4
4126.46,27138.3
4000.27,27012.1
3901.13,26863.8
3832.84,26698.9
3798.03,26523.9
3798.03,26345.4
3832.84,26170.4
3901.13,26005.5
4000.27,25857.2
4126.46,25731
4274.83,25631.8
4439.69,25563.6
4527.2,25546.1
4614.71,25528.7
4793.16,25528.7
Z" /> 
<path style="fill:#848400; fill-opacity:1.0; 
stroke:#848400; stroke-width:0; stroke-opacity:1; 
stroke-linecap:round; stroke-linejoin:round;fill-rule:evenodd;"
d="M 3499.3,24233
3560.28,24258.2
3615.15,24294.9
3661.82,24341.5
3698.48,24396.4
3723.74,24457.4
3736.61,24522.1
3736.61,24588.1
3723.74,24652.8
3698.48,24713.8
3661.82,24768.7
3615.15,24815.4
3560.28,24852
3499.3,24877.3
3434.57,24890.2
3368.58,24890.2
3303.85,24877.3
3242.87,24852
3188,24815.4
3141.33,24768.7
3104.67,24713.8
3079.41,24652.8
3066.54,24588.1
3066.54,24522.1
3079.41,24457.4
3104.67,24396.4
3141.33,24341.5
3188,24294.9
3242.87,24258.2
3303.85,24233
3368.58,24220.1
3434.57,24220.1
Z" /> 
<path style="fill:#848400; fill-opacity:1.0; 
stroke:#848400; stroke-width:0; stroke-opacity:1; 
stroke-linecap:round; stroke-linejoin:round;fill-rule:evenodd;"
d="M 6141.03,24158.2
6202.01,24183.4
6256.88,24220.1
6303.55,24266.7
6340.22,24321.6
6365.47,24382.6
6378.35,24447.3
6378.35,24513.3
6365.47,24578
6340.22,24639
6303.55,24693.9
6256.88,24740.6
6202.01,24777.2
6141.03,24802.5
6076.31,24815.4
6010.31,24815.4
5945.58,24802.5
5884.61,24777.2
5829.73,24740.6
5783.06,24693.9
5746.4,24639
5721.14,24578
5708.27,24513.3
5708.27,24447.3
5721.14,24382.6
5746.4,24321.6
5783.06,24266.7
5829.73,24220.1
5884.61,24183.4
5945.58,24158.2
6010.31,24145.3
6076.31,24145.3
Z" /> 
<path style="fill:#848400; fill-opacity:1.0; 
stroke:#848400; stroke-width:0; stroke-opacity:1; 
stroke-linecap:round; stroke-linejoin:round;fill-rule:evenodd;"
d="M 6141.03,23173.9
6202.01,23199.2
6256.88,23235.8
6303.55,23282.5
6340.22,23337.4
6365.47,23398.3
6378.35,23463.1
6378.35,23529.1
6365.47,23593.8
6340.22,23654.8
6303.55,23709.6
6256.88,23756.3
6202.01,23793
6141.03,23818.2
6076.31,23831.1
6010.31,23831.1
5945.58,23818.2
5884.61,23793
5829.73,23756.3
5783.06,23709.6
5746.4,23654.8
5721.14,23593.8
5708.27,23529.1
5708.27,23463.1
5721.14,23398.3
5746.4,23337.4
5783.06,23282.5
5829.73,23235.8
5884.61,23199.2
5945.58,23173.9
6010.31,23161
6076.31,23161
Z" /> 
<path style="fill:#848400; fill-opacity:1.0; 
stroke:#848400; stroke-width:0; stroke-opacity:1; 
stroke-linecap:round; stroke-linejoin:round;fill-rule:evenodd;"
d="M 7770.96,21847.1
7831.93,21872.4
7886.8,21909
7933.47,21955.7
7970.14,22010.6
7995.39,22071.6
8008.27,22136.3
8008.27,22202.3
7995.39,22267
7970.14,22328
7933.47,22382.9
7886.8,22429.5
7831.93,22466.2
7770.96,22491.5
7706.23,22504.3
7640.23,22504.3
7575.5,22491.5
7514.53,22466.2
7459.65,22429.5
7412.99,22382.9
7376.32,22328
7351.06,22267
7338.19,22202.3
7338.19,22136.3
7351.06,22071.6
7376.32,22010.6
7412.99,21955.7
7459.65,21909
7514.53,21872.4
7575.5,21847.1
7640.23,21834.3
7706.23,21834.3
Z" /> 
<path style="fill:#848400; fill-opacity:1.0; 
stroke:#848400; stroke-width:0; stroke-opacity:1; 
stroke-linecap:round; stroke-linejoin:round;fill-rule:evenodd;"
d="M 10771,21847.1
10831.9,21872.4
10886.8,21909
10933.5,21955.7
10970.1,22010.6
10995.4,22071.6
11008.3,22136.3
11008.3,22202.3
10995.4,22267
10970.1,22328
10933.5,22382.9
10886.8,22429.5
10831.9,22466.2
10771,22491.5
10706.2,22504.3
10640.2,22504.3
10575.5,22491.5
10514.5,22466.2
10459.7,22429.5
10413,22382.9
10376.3,22328
10351.1,22267
10338.2,22202.3
10338.2,22136.3
10351.1,22071.6
10376.3,22010.6
10413,21955.7
10459.7,21909
10514.5,21872.4
10575.5,21847.1
10640.2,21834.3
10706.2,21834.3
Z" /> 
<path style="fill:#848400; fill-opacity:1.0; 
stroke:#848400; stroke-width:0; stroke-opacity:1; 
stroke-linecap:round; stroke-linejoin:round;fill-rule:evenodd;"
d="M 3499.3,21233
3560.28,21258.2
3615.15,21294.9
3661.82,21341.5
3698.48,21396.4
3723.74,21457.4
3736.61,21522.1
3736.61,21588.1
3723.74,21652.8
3698.48,21713.8
3661.82,21768.7
3615.15,21815.4
3560.28,21852
3499.3,21877.3
3434.57,21890.2
3368.58,21890.2
3303.85,21877.3
3242.87,21852
3188,21815.4
3141.33,21768.7
3104.67,21713.8
3079.41,21652.8
3066.54,21588.1
3066.54,21522.1
3079.41,21457.4
3104.67,21396.4
3141.33,21341.5
3188,21294.9
3242.87,21258.2
3303.85,21233
3368.58,21220.1
3434.57,21220.1
Z" /> 
<path style="fill:#848400; fill-opacity:1.0; 
stroke:#848400; stroke-width:0; stroke-opacity:1; 
stroke-linecap:round; stroke-linejoin:round;fill-rule:evenodd;"
d="M 10771,20847.1
10831.9,20872.4
10886.8,20909
10933.5,20955.7
10970.1,21010.6
10995.4,21071.6
11008.3,21136.3
11008.3,21202.3
10995.4,21267
10970.1,21328
10933.5,21382.9
10886.8,21429.5
10831.9,21466.2
10771,21491.5
10706.2,21504.3
10640.2,21504.3
10575.5,21491.5
10514.5,21466.2
10459.7,21429.5
10413,21382.9
10376.3,21328
10351.1,21267
10338.2,21202.3
10338.2,21136.3
10351.1,21071.6
10376.3,21010.6
10413,20955.7
10459.7,20909
10514.5,20872.4
10575.5,20847.1
10640.2,20834.3
10706.2,20834.3
Z" /> 
<path style="fill:#848400; fill-opacity:1.0; 
stroke:#848400; stroke-width:0; stroke-opacity:1; 
stroke-linecap:round; stroke-linejoin:round;fill-rule:evenodd;"
d="M 7770.96,20847.1
7831.93,20872.4
7886.8,20909
7933.47,20955.7
7970.14,21010.6
7995.39,21071.6
8008.27,21136.3
8008.27,21202.3
7995.39,21267
7970.14,21328
7933.47,21382.9
7886.8,21429.5
7831.93,21466.2
7770.96,21491.5
7706.23,21504.3
7640.23,21504.3
7575.5,21491.5
7514.53,21466.2
7459.65,21429.5
7412.99,21382.9
7376.32,21328
7351.06,21267
7338.19,21202.3
7338.19,21136.3
7351.06,21071.6
7376.32,21010.6
7412.99,20955.7
7459.65,20909
7514.53,20872.4
7575.5,20847.1
7640.23,20834.3
7706.23,20834.3
Z" /> 
<path style="fill:#848400; fill-opacity:1.0; 
stroke:#848400; stroke-width:0; stroke-opacity:1; 
stroke-linecap:round; stroke-linejoin:round;fill-rule:evenodd;"
d="M 13251.3,19874.7
13312.2,19899.9
13367.1,19936.6
13413.8,19983.3
13450.5,20038.1
13475.7,20099.1
13488.6,20163.9
13488.6,20229.8
13475.7,20294.6
13450.5,20355.6
13413.8,20410.4
13367.1,20457.1
13312.2,20493.8
13251.3,20519
13186.5,20531.9
13120.5,20531.9
13055.8,20519
12994.8,20493.8
12940,20457.1
12893.3,20410.4
12856.6,20355.6
12831.4,20294.6
12818.5,20229.8
12818.5,20163.9
12831.4,20099.1
12856.6,20038.1
12893.3,19983.3
12940,19936.6
12994.8,19899.9
13055.8,19874.7
13120.5,19861.8
13186.5,19861.8
Z" /> 
<path style="fill:#848400; fill-opacity:1.0; 
stroke:#848400; stroke-width:0; stroke-opacity:1; 
stroke-linecap:round; stroke-linejoin:round;fill-rule:evenodd;"
d="M 12267,19874.7
12328,19899.9
12382.9,19936.6
12429.5,19983.3
12466.2,20038.1
12491.5,20099.1
12504.3,20163.9
12504.3,20229.8
12491.5,20294.6
12466.2,20355.6
12429.5,20410.4
12382.9,20457.1
12328,20493.8
12267,20519
12202.3,20531.9
12136.3,20531.9
12071.6,20519
12010.6,20493.8
11955.7,20457.1
11909,20410.4
11872.4,20355.6
11847.1,20294.6
11834.3,20229.8
11834.3,20163.9
11847.1,20099.1
11872.4,20038.1
11909,19983.3
11955.7,19936.6
12010.6,19899.9
12071.6,19874.7
12136.3,19861.8
12202.3,19861.8
Z" /> 
<path style="fill:#848400; fill-opacity:1.0; 
stroke:#848400; stroke-width:0; stroke-opacity:1; 
stroke-linecap:round; stroke-linejoin:round;fill-rule:evenodd;"
d="M 10771,19847.1
10831.9,19872.4
10886.8,19909
10933.5,19955.7
10970.1,20010.6
10995.4,20071.6
11008.3,20136.3
11008.3,20202.3
10995.4,20267
10970.1,20328
10933.5,20382.9
10886.8,20429.5
10831.9,20466.2
10771,20491.5
10706.2,20504.3
10640.2,20504.3
10575.5,20491.5
10514.5,20466.2
10459.7,20429.5
10413,20382.9
10376.3,20328
10351.1,20267
10338.2,20202.3
10338.2,20136.3
10351.1,20071.6
10376.3,20010.6
10413,19955.7
10459.7,19909
10514.5,19872.4
10575.5,19847.1
10640.2,19834.3
10706.2,19834.3
Z" /> 
<path style="fill:#848400; fill-opacity:1.0; 
stroke:#848400; stroke-width:0; stroke-opacity:1; 
stroke-linecap:round; stroke-linejoin:round;fill-rule:evenodd;"
d="M 7770.96,19847.1
7831.93,19872.4
7886.8,19909
7933.47,19955.7
7970.14,20010.6
7995.39,20071.6
8008.27,20136.3
8008.27,20202.3
7995.39,20267
7970.14,20328
7933.47,20382.9
7886.8,20429.5
7831.93,20466.2
7770.96,20491.5
7706.23,20504.3
7640.23,20504.3
7575.5,20491.5
7514.53,20466.2
7459.65,20429.5
7412.99,20382.9
7376.32,20328
7351.06,20267
7338.19,20202.3
7338.19,20136.3
7351.06,20071.6
7376.32,20010.6
7412.99,19955.7
7459.65,19909
7514.53,19872.4
7575.5,19847.1
7640.23,19834.3
7706.23,19834.3
Z" /> 
<path style="fill:#848400; fill-opacity:1.0; 
stroke:#848400; stroke-width:0; stroke-opacity:1; 
stroke-linecap:round; stroke-linejoin:round;fill-rule:evenodd;"
d="M 3219.77,19504.6
3280.75,19529.9
3335.62,19566.5
3382.29,19613.2
3418.96,19668.1
3444.21,19729
3457.09,19793.8
3457.09,19859.8
3444.21,19924.5
3418.96,19985.5
3382.29,20040.3
3335.62,20087
3280.75,20123.7
3219.77,20148.9
3155.05,20161.8
3089.05,20161.8
3024.32,20148.9
2963.35,20123.7
2908.47,20087
2861.81,20040.3
2825.14,19985.5
2799.88,19924.5
2787.01,19859.8
2787.01,19793.8
2799.88,19729
2825.14,19668.1
2861.81,19613.2
2908.47,19566.5
2963.35,19529.9
3024.32,19504.6
3089.05,19491.7
3155.05,19491.7
Z" /> 
<path style="fill:#848400; fill-opacity:1.0; 
stroke:#848400; stroke-width:0; stroke-opacity:1; 
stroke-linecap:round; stroke-linejoin:round;fill-rule:evenodd;"
d="M 6219.77,19504.6
6280.75,19529.9
6335.62,19566.5
6382.29,19613.2
6418.96,19668.1
6444.21,19729
6457.09,19793.8
6457.09,19859.8
6444.21,19924.5
6418.96,19985.5
6382.29,20040.3
6335.62,20087
6280.75,20123.7
6219.77,20148.9
6155.05,20161.8
6089.05,20161.8
6024.32,20148.9
5963.35,20123.7
5908.47,20087
5861.81,20040.3
5825.14,19985.5
5799.88,19924.5
5787.01,19859.8
5787.01,19793.8
5799.88,19729
5825.14,19668.1
5861.81,19613.2
5908.47,19566.5
5963.35,19529.9
6024.32,19504.6
6089.05,19491.7
6155.05,19491.7
Z" /> 
<path style="fill:#848400; fill-opacity:1.0; 
stroke:#848400; stroke-width:0; stroke-opacity:1; 
stroke-linecap:round; stroke-linejoin:round;fill-rule:evenodd;"
d="M 1365.44,19492.8
1426.42,19518.1
1481.29,19554.7
1527.96,19601.4
1564.62,19656.3
1589.88,19717.2
1602.76,19782
1602.76,19848
1589.88,19912.7
1564.62,19973.7
1527.96,20028.5
1481.29,20075.2
1426.42,20111.9
1365.44,20137.1
1300.71,20150
1234.72,20150
1169.99,20137.1
1109.02,20111.9
1054.14,20075.2
1007.47,20028.5
970.808,19973.7
945.552,19912.7
932.677,19848
932.677,19782
945.552,19717.2
970.808,19656.3
1007.47,19601.4
1054.14,19554.7
1109.02,19518.1
1169.99,19492.8
1234.72,19479.9
1300.71,19479.9
Z" /> 
<path style="fill:#848400; fill-opacity:1.0; 
stroke:#848400; stroke-width:0; stroke-opacity:1; 
stroke-linecap:round; stroke-linejoin:round;fill-rule:evenodd;"
d="M 15826.1,19315.6
15887,19340.9
15941.9,19377.6
15988.6,19424.2
16025.3,19479.1
16050.5,19540.1
16063.4,19604.8
16063.4,19670.8
16050.5,19735.5
16025.3,19796.5
15988.6,19851.4
15941.9,19898
15887,19934.7
15826.1,19960
15761.3,19972.8
15695.3,19972.8
15630.6,19960
15569.6,19934.7
15514.8,19898
15468.1,19851.4
15431.4,19796.5
15406.2,19735.5
15393.3,19670.8
15393.3,19604.8
15406.2,19540.1
15431.4,19479.1
15468.1,19424.2
15514.8,19377.6
15569.6,19340.9
15630.6,19315.6
15695.3,19302.8
15761.3,19302.8
Z" /> 
<path style="fill:#848400; fill-opacity:1.0; 
stroke:#848400; stroke-width:0; stroke-opacity:1; 
stroke-linecap:round; stroke-linejoin:round;fill-rule:evenodd;"
d="M 7770.96,18847.1
7831.93,18872.4
7886.8,18909
7933.47,18955.7
7970.14,19010.6
7995.39,19071.6
8008.27,19136.3
8008.27,19202.3
7995.39,19267
7970.14,19328
7933.47,19382.9
7886.8,19429.5
7831.93,19466.2
7770.96,19491.5
7706.23,19504.3
7640.23,19504.3
7575.5,19491.5
7514.53,19466.2
7459.65,19429.5
7412.99,19382.9
7376.32,19328
7351.06,19267
7338.19,19202.3
7338.19,19136.3
7351.06,19071.6
7376.32,19010.6
7412.99,18955.7
7459.65,18909
7514.53,18872.4
7575.5,18847.1
7640.23,18834.3
7706.23,18834.3
Z" /> 
<path style="fill:#848400; fill-opacity:1.0; 
stroke:#848400; stroke-width:0; stroke-opacity:1; 
stroke-linecap:round; stroke-linejoin:round;fill-rule:evenodd;"
d="M 10771,18847.1
10831.9,18872.4
10886.8,18909
10933.5,18955.7
10970.1,19010.6
10995.4,19071.6
11008.3,19136.3
11008.3,19202.3
10995.4,19267
10970.1,19328
10933.5,19382.9
10886.8,19429.5
10831.9,19466.2
10771,19491.5
10706.2,19504.3
10640.2,19504.3
10575.5,19491.5
10514.5,19466.2
10459.7,19429.5
10413,19382.9
10376.3,19328
10351.1,19267
10338.2,19202.3
10338.2,19136.3
10351.1,19071.6
10376.3,19010.6
10413,18955.7
10459.7,18909
10514.5,18872.4
10575.5,18847.1
10640.2,18834.3
10706.2,18834.3
Z" /> 
<path style="fill:#848400; fill-opacity:1.0; 
stroke:#848400; stroke-width:0; stroke-opacity:1; 
stroke-linecap:round; stroke-linejoin:round;fill-rule:evenodd;"
d="M 7770.96,17847.1
7831.93,17872.4
7886.8,17909
7933.47,17955.7
7970.14,18010.6
7995.39,18071.6
8008.27,18136.3
8008.27,18202.3
7995.39,18267
7970.14,18328
7933.47,18382.9
7886.8,18429.5
7831.93,18466.2
7770.96,18491.5
7706.23,18504.3
7640.23,18504.3
7575.5,18491.5
7514.53,18466.2
7459.65,18429.5
7412.99,18382.9
7376.32,18328
7351.06,18267
7338.19,18202.3
7338.19,18136.3
7351.06,18071.6
7376.32,18010.6
7412.99,17955.7
7459.65,17909
7514.53,17872.4
7575.5,17847.1
7640.23,17834.3
7706.23,17834.3
Z" /> 
<path style="fill:#848400; fill-opacity:1.0; 
stroke:#848400; stroke-width:0; stroke-opacity:1; 
stroke-linecap:round; stroke-linejoin:round;fill-rule:evenodd;"
d="M 10771,17847.1
10831.9,17872.4
10886.8,17909
10933.5,17955.7
10970.1,18010.6
10995.4,18071.6
11008.3,18136.3
11008.3,18202.3
10995.4,18267
10970.1,18328
10933.5,18382.9
10886.8,18429.5
10831.9,18466.2
10771,18491.5
10706.2,18504.3
10640.2,18504.3
10575.5,18491.5
10514.5,18466.2
10459.7,18429.5
10413,18382.9
10376.3,18328
10351.1,18267
10338.2,18202.3
10338.2,18136.3
10351.1,18071.6
10376.3,18010.6
10413,17955.7
10459.7,17909
10514.5,17872.4
10575.5,17847.1
10640.2,17834.3
10706.2,17834.3
Z" /> 
<path style="fill:#848400; fill-opacity:1.0; 
stroke:#848400; stroke-width:0; stroke-opacity:1; 
stroke-linecap:round; stroke-linejoin:round;fill-rule:evenodd;"
d="M 5330.01,17335.3
5390.98,17360.6
5445.86,17397.2
5492.53,17443.9
5529.19,17498.8
5554.45,17559.8
5567.32,17624.5
5567.32,17690.5
5554.45,17755.2
5529.19,17816.2
5492.53,17871.1
5445.86,17917.7
5390.98,17954.4
5330.01,17979.6
5265.28,17992.5
5199.29,17992.5
5134.56,17979.6
5073.58,17954.4
5018.71,17917.7
4972.04,17871.1
4935.38,17816.2
4910.12,17755.2
4897.24,17690.5
4897.24,17624.5
4910.12,17559.8
4935.38,17498.8
4972.04,17443.9
5018.71,17397.2
5073.58,17360.6
5134.56,17335.3
5199.29,17322.4
5265.28,17322.4
Z" /> 
<path style="fill:#848400; fill-opacity:1.0; 
stroke:#848400; stroke-width:0; stroke-opacity:1; 
stroke-linecap:round; stroke-linejoin:round;fill-rule:evenodd;"
d="M 7770.96,16847.1
7831.93,16872.4
7886.8,16909
7933.47,16955.7
7970.14,17010.6
7995.39,17071.6
8008.27,17136.3
8008.27,17202.3
7995.39,17267
7970.14,17328
7933.47,17382.9
7886.8,17429.5
7831.93,17466.2
7770.96,17491.5
7706.23,17504.3
7640.23,17504.3
7575.5,17491.5
7514.53,17466.2
7459.65,17429.5
7412.99,17382.9
7376.32,17328
7351.06,17267
7338.19,17202.3
7338.19,17136.3
7351.06,17071.6
7376.32,17010.6
7412.99,16955.7
7459.65,16909
7514.53,16872.4
7575.5,16847.1
7640.23,16834.3
7706.23,16834.3
Z" /> 
<path style="fill:#848400; fill-opacity:1.0; 
stroke:#848400; stroke-width:0; stroke-opacity:1; 
stroke-linecap:round; stroke-linejoin:round;fill-rule:evenodd;"
d="M 10771,16847.1
10831.9,16872.4
10886.8,16909
10933.5,16955.7
10970.1,17010.6
10995.4,17071.6
11008.3,17136.3
11008.3,17202.3
10995.4,17267
10970.1,17328
10933.5,17382.9
10886.8,17429.5
10831.9,17466.2
10771,17491.5
10706.2,17504.3
10640.2,17504.3
10575.5,17491.5
10514.5,17466.2
10459.7,17429.5
10413,17382.9
10376.3,17328
10351.1,17267
10338.2,17202.3
10338.2,17136.3
10351.1,17071.6
10376.3,17010.6
10413,16955.7
10459.7,16909
10514.5,16872.4
10575.5,16847.1
10640.2,16834.3
10706.2,16834.3
Z" /> 
<path style="fill:#848400; fill-opacity:1.0; 
stroke:#848400; stroke-width:0; stroke-opacity:1; 
stroke-linecap:round; stroke-linejoin:round;fill-rule:evenodd;"
d="M 1365.44,16492.8
1426.42,16518.1
1481.29,16554.7
1527.96,16601.4
1564.62,16656.3
1589.88,16717.2
1602.76,16782
1602.76,16848
1589.88,16912.7
1564.62,16973.7
1527.96,17028.5
1481.29,17075.2
1426.42,17111.9
1365.44,17137.1
1300.71,17150
1234.72,17150
1169.99,17137.1
1109.02,17111.9
1054.14,17075.2
1007.47,17028.5
970.808,16973.7
945.552,16912.7
932.677,16848
932.677,16782
945.552,16717.2
970.808,16656.3
1007.47,16601.4
1054.14,16554.7
1109.02,16518.1
1169.99,16492.8
1234.72,16479.9
1300.71,16479.9
Z" /> 
<path style="fill:#848400; fill-opacity:1.0; 
stroke:#848400; stroke-width:0; stroke-opacity:1; 
stroke-linecap:round; stroke-linejoin:round;fill-rule:evenodd;"
d="M 15826.1,16315.6
15887,16340.9
15941.9,16377.6
15988.6,16424.2
16025.3,16479.1
16050.5,16540.1
16063.4,16604.8
16063.4,16670.8
16050.5,16735.5
16025.3,16796.5
15988.6,16851.4
15941.9,16898
15887,16934.7
15826.1,16960
15761.3,16972.8
15695.3,16972.8
15630.6,16960
15569.6,16934.7
15514.8,16898
15468.1,16851.4
15431.4,16796.5
15406.2,16735.5
15393.3,16670.8
15393.3,16604.8
15406.2,16540.1
15431.4,16479.1
15468.1,16424.2
15514.8,16377.6
15569.6,16340.9
15630.6,16315.6
15695.3,16302.8
15761.3,16302.8
Z" /> 
<path style="fill:#848400; fill-opacity:1.0; 
stroke:#848400; stroke-width:0; stroke-opacity:1; 
stroke-linecap:round; stroke-linejoin:round;fill-rule:evenodd;"
d="M 10771,15847.1
10831.9,15872.4
10886.8,15909
10933.5,15955.7
10970.1,16010.6
10995.4,16071.6
11008.3,16136.3
11008.3,16202.3
10995.4,16267
10970.1,16328
10933.5,16382.9
10886.8,16429.5
10831.9,16466.2
10771,16491.5
10706.2,16504.3
10640.2,16504.3
10575.5,16491.5
10514.5,16466.2
10459.7,16429.5
10413,16382.9
10376.3,16328
10351.1,16267
10338.2,16202.3
10338.2,16136.3
10351.1,16071.6
10376.3,16010.6
10413,15955.7
10459.7,15909
10514.5,15872.4
10575.5,15847.1
10640.2,15834.3
10706.2,15834.3
Z" /> 
<path style="fill:#848400; fill-opacity:1.0; 
stroke:#848400; stroke-width:0; stroke-opacity:1; 
stroke-linecap:round; stroke-linejoin:round;fill-rule:evenodd;"
d="M 7770.96,15847.1
7831.93,15872.4
7886.8,15909
7933.47,15955.7
7970.14,16010.6
7995.39,16071.6
8008.27,16136.3
8008.27,16202.3
7995.39,16267
7970.14,16328
7933.47,16382.9
7886.8,16429.5
7831.93,16466.2
7770.96,16491.5
7706.23,16504.3
7640.23,16504.3
7575.5,16491.5
7514.53,16466.2
7459.65,16429.5
7412.99,16382.9
7376.32,16328
7351.06,16267
7338.19,16202.3
7338.19,16136.3
7351.06,16071.6
7376.32,16010.6
7412.99,15955.7
7459.65,15909
7514.53,15872.4
7575.5,15847.1
7640.23,15834.3
7706.23,15834.3
Z" /> 
<path style="fill:#848400; fill-opacity:1.0; 
stroke:#848400; stroke-width:0; stroke-opacity:1; 
stroke-linecap:round; stroke-linejoin:round;fill-rule:evenodd;"
d="M 12318.2,14894.4
12379.2,14919.6
12434,14956.3
12480.7,15003
12517.4,15057.8
12542.6,15118.8
12555.5,15183.5
12555.5,15249.5
12542.6,15314.3
12517.4,15375.2
12480.7,15430.1
12434,15476.8
12379.2,15513.4
12318.2,15538.7
12253.5,15551.6
12187.5,15551.6
12122.7,15538.7
12061.8,15513.4
12006.9,15476.8
11960.2,15430.1
11923.6,15375.2
11898.3,15314.3
11885.4,15249.5
11885.4,15183.5
11898.3,15118.8
11923.6,15057.8
11960.2,15003
12006.9,14956.3
12061.8,14919.6
12122.7,14894.4
12187.5,14881.5
12253.5,14881.5
Z" /> 
<path style="fill:#848400; fill-opacity:1.0; 
stroke:#848400; stroke-width:0; stroke-opacity:1; 
stroke-linecap:round; stroke-linejoin:round;fill-rule:evenodd;"
d="M 15318.2,14894.4
15379.2,14919.6
15434,14956.3
15480.7,15003
15517.4,15057.8
15542.6,15118.8
15555.5,15183.5
15555.5,15249.5
15542.6,15314.3
15517.4,15375.2
15480.7,15430.1
15434,15476.8
15379.2,15513.4
15318.2,15538.7
15253.5,15551.6
15187.5,15551.6
15122.7,15538.7
15061.8,15513.4
15006.9,15476.8
14960.2,15430.1
14923.6,15375.2
14898.3,15314.3
14885.4,15249.5
14885.4,15183.5
14898.3,15118.8
14923.6,15057.8
14960.2,15003
15006.9,14956.3
15061.8,14919.6
15122.7,14894.4
15187.5,14881.5
15253.5,14881.5
Z" /> 
<path style="fill:#848400; fill-opacity:1.0; 
stroke:#848400; stroke-width:0; stroke-opacity:1; 
stroke-linecap:round; stroke-linejoin:round;fill-rule:evenodd;"
d="M 10771,14847.1
10831.9,14872.4
10886.8,14909
10933.5,14955.7
10970.1,15010.6
10995.4,15071.6
11008.3,15136.3
11008.3,15202.3
10995.4,15267
10970.1,15328
10933.5,15382.9
10886.8,15429.5
10831.9,15466.2
10771,15491.5
10706.2,15504.3
10640.2,15504.3
10575.5,15491.5
10514.5,15466.2
10459.7,15429.5
10413,15382.9
10376.3,15328
10351.1,15267
10338.2,15202.3
10338.2,15136.3
10351.1,15071.6
10376.3,15010.6
10413,14955.7
10459.7,14909
10514.5,14872.4
10575.5,14847.1
10640.2,14834.3
10706.2,14834.3
Z" /> 
<path style="fill:#848400; fill-opacity:1.0; 
stroke:#848400; stroke-width:0; stroke-opacity:1; 
stroke-linecap:round; stroke-linejoin:round;fill-rule:evenodd;"
d="M 8008.27,15504.3
7338.19,15504.3
7338.19,14834.3
8008.27,14834.3
Z" /> 
<path style="fill:#848400; fill-opacity:1.0; 
stroke:#848400; stroke-width:0; stroke-opacity:1; 
stroke-linecap:round; stroke-linejoin:round;fill-rule:evenodd;"
d="M 1265.98,14550.7
1305.08,14558.5
1360.32,14581.4
1410.03,14614.6
1452.31,14656.9
1485.53,14706.6
1508.41,14761.9
1520.08,14820.5
1520.08,14880.3
1508.41,14938.9
1485.53,14994.2
1452.31,15043.9
1410.03,15086.2
1360.32,15119.4
1305.08,15142.3
1265.98,15150
1246.43,15153.9
1186.64,15153.9
1167.09,15150
1127.99,15142.3
1072.75,15119.4
1023.04,15086.2
980.758,15043.9
947.539,14994.2
924.657,14938.9
912.992,14880.3
912.992,14820.5
924.657,14761.9
947.539,14706.6
980.758,14656.9
1023.04,14614.6
1072.75,14581.4
1127.99,14558.5
1167.09,14550.7
1186.64,14546.9
1246.43,14546.9
Z" /> 
<path style="fill:#848400; fill-opacity:1.0; 
stroke:#848400; stroke-width:0; stroke-opacity:1; 
stroke-linecap:round; stroke-linejoin:round;fill-rule:evenodd;"
d="M 5330.01,14335.3
5390.98,14360.6
5445.86,14397.2
5492.53,14443.9
5529.19,14498.8
5554.45,14559.8
5567.32,14624.5
5567.32,14690.5
5554.45,14755.2
5529.19,14816.2
5492.53,14871.1
5445.86,14917.7
5390.98,14954.4
5330.01,14979.6
5265.28,14992.5
5199.29,14992.5
5134.56,14979.6
5073.58,14954.4
5018.71,14917.7
4972.04,14871.1
4935.38,14816.2
4910.12,14755.2
4897.24,14690.5
4897.24,14624.5
4910.12,14559.8
4935.38,14498.8
4972.04,14443.9
5018.71,14397.2
5073.58,14360.6
5134.56,14335.3
5199.29,14322.4
5265.28,14322.4
Z" /> 
<path style="fill:#848400; fill-opacity:1.0; 
stroke:#848400; stroke-width:0; stroke-opacity:1; 
stroke-linecap:round; stroke-linejoin:round;fill-rule:evenodd;"
d="M 1265.98,13550.7
1305.08,13558.5
1360.32,13581.4
1410.03,13614.6
1452.31,13656.9
1485.53,13706.6
1508.41,13761.9
1520.08,13820.5
1520.08,13880.3
1508.41,13938.9
1485.53,13994.2
1452.31,14043.9
1410.03,14086.2
1360.32,14119.4
1305.08,14142.3
1265.98,14150
1246.43,14153.9
1186.64,14153.9
1167.09,14150
1127.99,14142.3
1072.75,14119.4
1023.04,14086.2
980.758,14043.9
947.539,13994.2
924.657,13938.9
912.992,13880.3
912.992,13820.5
924.657,13761.9
947.539,13706.6
980.758,13656.9
1023.04,13614.6
1072.75,13581.4
1127.99,13558.5
1167.09,13550.7
1186.64,13546.9
1246.43,13546.9
Z" /> 
<path style="fill:#848400; fill-opacity:1.0; 
stroke:#848400; stroke-width:0; stroke-opacity:1; 
stroke-linecap:round; stroke-linejoin:round;fill-rule:evenodd;"
d="M 12889.3,11835.9
12976.8,11853.3
13141.7,11921.6
13290.1,12020.7
13416.3,12146.9
13515.4,12295.3
13583.7,12460.2
13583.7,12460.2
13618.5,12635.2
13618.5,12813.6
13617.1,12820.5
13583.7,12988.7
13515.4,13153.5
13416.3,13301.9
13290.1,13428.1
13141.7,13527.2
12976.8,13595.5
12889.3,13612.9
12801.8,13630.3
12623.4,13630.3
12535.9,13612.9
12448.4,13595.5
12283.5,13527.2
12135.1,13428.1
12008.9,13301.9
11909.8,13153.5
11841.5,12988.7
11808.1,12820.5
11806.7,12813.6
11806.7,12635.2
11841.5,12460.2
11841.5,12460.2
11909.8,12295.3
12008.9,12146.9
12135.1,12020.7
12283.5,11921.6
12448.4,11853.3
12535.9,11835.9
12623.4,11818.5
12801.8,11818.5
Z" /> 
<path style="fill:#848400; fill-opacity:1.0; 
stroke:#848400; stroke-width:0; stroke-opacity:1; 
stroke-linecap:round; stroke-linejoin:round;fill-rule:evenodd;"
d="M 16418.5,13230.3
14606.7,13230.3
14606.7,11418.5
16418.5,11418.5
Z" /> 
<path style="fill:#848400; fill-opacity:1.0; 
stroke:#848400; stroke-width:0; stroke-opacity:1; 
stroke-linecap:round; stroke-linejoin:round;fill-rule:evenodd;"
d="M 1265.98,12550.7
1305.08,12558.5
1360.32,12581.4
1410.03,12614.6
1452.31,12656.9
1485.53,12706.6
1508.41,12761.9
1508.41,12761.9
1518.71,12813.6
1520.08,12820.5
1520.08,12880.3
1508.41,12938.9
1485.53,12994.2
1452.31,13043.9
1410.03,13086.2
1360.32,13119.4
1305.08,13142.3
1265.98,13150
1246.43,13153.9
1186.64,13153.9
1167.09,13150
1127.99,13142.3
1072.75,13119.4
1023.04,13086.2
980.758,13043.9
947.539,12994.2
924.657,12938.9
912.992,12880.3
912.992,12820.5
914.357,12813.6
924.657,12761.9
924.657,12761.9
947.539,12706.6
980.758,12656.9
1023.04,12614.6
1072.75,12581.4
1127.99,12558.5
1167.09,12550.7
1186.64,12546.9
1246.43,12546.9
Z" /> 
<path style="fill:#848400; fill-opacity:1.0; 
stroke:#848400; stroke-width:0; stroke-opacity:1; 
stroke-linecap:round; stroke-linejoin:round;fill-rule:evenodd;"
d="M 11485.7,9435.19
11576.8,9453.32
11741.7,9521.61
11890.1,9620.75
12016.3,9746.93
12115.4,9895.3
12183.7,10060.2
12218.5,10235.2
12218.5,10413.6
12183.7,10588.7
12115.4,10753.5
12016.3,10901.9
11890.1,11028.1
11741.7,11127.2
11576.8,11195.5
11489.3,11212.9
11401.8,11230.3
11223.4,11230.3
11135.9,11212.9
11048.4,11195.5
10883.5,11127.2
10735.1,11028.1
10608.9,10901.9
10509.8,10753.5
10441.5,10588.7
10406.7,10413.6
10406.7,10235.2
10441.5,10060.2
10509.8,9895.3
10608.9,9746.93
10735.1,9620.75
10883.5,9521.61
11048.4,9453.32
11139.5,9435.19
11223.4,9418.5
11401.8,9418.5
Z" /> 
<path style="fill:#848400; fill-opacity:1.0; 
stroke:#848400; stroke-width:0; stroke-opacity:1; 
stroke-linecap:round; stroke-linejoin:round;fill-rule:evenodd;"
d="M 1148.91,10280.2
1209.88,10305.5
1264.76,10342.1
1311.42,10388.8
1348.09,10443.7
1373.35,10504.6
1386.22,10569.4
1386.22,10635.4
1373.35,10700.1
1348.09,10761.1
1311.42,10815.9
1264.76,10862.6
1209.88,10899.3
1148.91,10924.5
1084.18,10937.4
1018.18,10937.4
953.454,10924.5
892.48,10899.3
837.606,10862.6
790.939,10815.9
754.273,10761.1
729.017,10700.1
716.142,10635.4
716.142,10569.4
729.017,10504.6
754.273,10443.7
790.939,10388.8
837.606,10342.1
892.48,10305.5
953.454,10280.2
1018.18,10267.3
1084.18,10267.3
Z" /> 
<path style="fill:#848400; fill-opacity:1.0; 
stroke:#848400; stroke-width:0; stroke-opacity:1; 
stroke-linecap:round; stroke-linejoin:round;fill-rule:evenodd;"
d="M 4148.91,10280.2
4209.88,10305.5
4264.76,10342.1
4311.42,10388.8
4348.09,10443.7
4373.35,10504.6
4386.22,10569.4
4386.22,10635.4
4373.35,10700.1
4348.09,10761.1
4311.42,10815.9
4264.76,10862.6
4209.88,10899.3
4148.91,10924.5
4084.18,10937.4
4018.18,10937.4
3953.45,10924.5
3892.48,10899.3
3837.61,10862.6
3790.94,10815.9
3754.27,10761.1
3729.02,10700.1
3716.14,10635.4
3716.14,10569.4
3729.02,10504.6
3754.27,10443.7
3790.94,10388.8
3837.61,10342.1
3892.48,10305.5
3953.45,10280.2
4018.18,10267.3
4084.18,10267.3
Z" /> 
<path style="fill:#848400; fill-opacity:1.0; 
stroke:#848400; stroke-width:0; stroke-opacity:1; 
stroke-linecap:round; stroke-linejoin:round;fill-rule:evenodd;"
d="M 16289.3,8635.91
16376.8,8653.32
16541.7,8721.61
16690.1,8820.75
16816.3,8946.93
16915.4,9095.3
16983.7,9260.17
17018.5,9435.19
17018.5,9613.63
16983.7,9788.65
16915.4,9953.52
16816.3,10101.9
16690.1,10228.1
16541.7,10327.2
16376.8,10395.5
16289.3,10412.9
16201.8,10430.3
16023.4,10430.3
15935.9,10412.9
15848.4,10395.5
15683.5,10327.2
15535.1,10228.1
15408.9,10101.9
15309.8,9953.52
15241.5,9788.65
15206.7,9613.63
15206.7,9435.19
15241.5,9260.17
15309.8,9095.3
15408.9,8946.93
15535.1,8820.75
15683.5,8721.61
15848.4,8653.32
15935.9,8635.91
16023.4,8618.5
16201.8,8618.5
Z" /> 
<path style="fill:#848400; fill-opacity:1.0; 
stroke:#848400; stroke-width:0; stroke-opacity:1; 
stroke-linecap:round; stroke-linejoin:round;fill-rule:evenodd;"
d="M 6672.53,8701.46
6733.5,8726.71
6788.38,8763.38
6835.05,8810.05
6871.71,8864.92
6896.97,8925.89
6909.84,8990.62
6909.84,9056.62
6896.97,9121.35
6871.71,9182.32
6835.05,9237.2
6788.38,9283.86
6733.5,9320.53
6672.53,9345.79
6607.8,9358.66
6541.8,9358.66
6477.08,9345.79
6416.1,9320.53
6361.23,9283.86
6314.56,9237.2
6277.89,9182.32
6252.64,9121.35
6239.76,9056.62
6239.76,8990.62
6252.64,8925.89
6277.89,8864.92
6314.56,8810.05
6361.23,8763.38
6416.1,8726.71
6477.08,8701.46
6541.8,8688.58
6607.8,8688.58
Z" /> 
<path style="fill:#848400; fill-opacity:1.0; 
stroke:#848400; stroke-width:0; stroke-opacity:1; 
stroke-linecap:round; stroke-linejoin:round;fill-rule:evenodd;"
d="M 7672.53,8701.46
7733.5,8726.71
7788.38,8763.38
7835.05,8810.05
7871.71,8864.92
7896.97,8925.89
7909.84,8990.62
7909.84,9056.62
7896.97,9121.35
7871.71,9182.32
7835.05,9237.2
7788.38,9283.86
7733.5,9320.53
7672.53,9345.79
7607.8,9358.66
7541.8,9358.66
7477.08,9345.79
7416.1,9320.53
7361.23,9283.86
7314.56,9237.2
7277.89,9182.32
7252.64,9121.35
7239.76,9056.62
7239.76,8990.62
7252.64,8925.89
7277.89,8864.92
7314.56,8810.05
7361.23,8763.38
7416.1,8726.71
7477.08,8701.46
7541.8,8688.58
7607.8,8688.58
Z" /> 
<path style="fill:#848400; fill-opacity:1.0; 
stroke:#848400; stroke-width:0; stroke-opacity:1; 
stroke-linecap:round; stroke-linejoin:round;fill-rule:evenodd;"
d="M 9672.53,8701.46
9733.5,8726.71
9788.38,8763.38
9835.05,8810.05
9871.71,8864.92
9896.97,8925.89
9909.84,8990.62
9909.84,9056.62
9896.97,9121.35
9871.71,9182.32
9835.05,9237.2
9788.38,9283.86
9733.5,9320.53
9672.53,9345.79
9607.8,9358.66
9541.8,9358.66
9477.08,9345.79
9416.1,9320.53
9361.23,9283.86
9314.56,9237.2
9277.89,9182.32
9252.64,9121.35
9239.76,9056.62
9239.76,8990.62
9252.64,8925.89
9277.89,8864.92
9314.56,8810.05
9361.23,8763.38
9416.1,8726.71
9477.08,8701.46
9541.8,8688.58
9607.8,8688.58
Z" /> 
<path style="fill:#848400; fill-opacity:1.0; 
stroke:#848400; stroke-width:0; stroke-opacity:1; 
stroke-linecap:round; stroke-linejoin:round;fill-rule:evenodd;"
d="M 8672.53,8701.46
8733.5,8726.71
8788.38,8763.38
8835.05,8810.05
8871.71,8864.92
8896.97,8925.89
8909.84,8990.62
8909.84,9056.62
8896.97,9121.35
8871.71,9182.32
8835.05,9237.2
8788.38,9283.86
8733.5,9320.53
8672.53,9345.79
8607.8,9358.66
8541.8,9358.66
8477.08,9345.79
8416.1,9320.53
8361.23,9283.86
8314.56,9237.2
8277.89,9182.32
8252.64,9121.35
8239.76,9056.62
8239.76,8990.62
8252.64,8925.89
8277.89,8864.92
8314.56,8810.05
8361.23,8763.38
8416.1,8726.71
8477.08,8701.46
8541.8,8688.58
8607.8,8688.58
Z" /> 
<path style="fill:#848400; fill-opacity:1.0; 
stroke:#848400; stroke-width:0; stroke-opacity:1; 
stroke-linecap:round; stroke-linejoin:round;fill-rule:evenodd;"
d="M 14189.3,7085.91
14276.8,7103.32
14441.7,7171.61
14590.1,7270.75
14716.3,7396.93
14815.4,7545.3
14883.7,7710.17
14918.5,7885.19
14918.5,8063.63
14883.7,8238.65
14815.4,8403.52
14716.3,8551.89
14590.1,8678.07
14441.7,8777.21
14276.8,8845.5
14189.3,8862.91
14101.8,8880.31
13923.4,8880.31
13835.9,8862.91
13748.4,8845.5
13583.5,8777.21
13435.1,8678.07
13308.9,8551.89
13209.8,8403.52
13141.5,8238.65
13106.7,8063.63
13106.7,7885.19
13141.5,7710.17
13209.8,7545.3
13308.9,7396.93
13435.1,7270.75
13583.5,7171.61
13748.4,7103.32
13835.9,7085.91
13923.4,7068.5
14101.8,7068.5
Z" /> 
<path style="fill:#848400; fill-opacity:1.0; 
stroke:#848400; stroke-width:0; stroke-opacity:1; 
stroke-linecap:round; stroke-linejoin:round;fill-rule:evenodd;"
d="M 4129.22,7508.54
4190.2,7533.8
4245.07,7570.47
4291.74,7617.13
4328.4,7672.01
4353.66,7732.98
4366.54,7797.71
4366.54,7863.71
4353.66,7928.44
4328.4,7989.41
4291.74,8044.28
4245.07,8090.95
4190.2,8127.62
4129.22,8152.87
4064.49,8165.75
3998.5,8165.75
3933.77,8152.87
3872.8,8127.62
3817.92,8090.95
3771.25,8044.28
3734.59,7989.41
3709.33,7928.44
3696.46,7863.71
3696.46,7797.71
3709.33,7732.98
3734.59,7672.01
3771.25,7617.13
3817.92,7570.47
3872.8,7533.8
3933.77,7508.54
3998.5,7495.67
4064.49,7495.67
Z" /> 
<path style="fill:#848400; fill-opacity:1.0; 
stroke:#848400; stroke-width:0; stroke-opacity:1; 
stroke-linecap:round; stroke-linejoin:round;fill-rule:evenodd;"
d="M 1129.22,7508.54
1190.2,7533.8
1245.07,7570.47
1291.74,7617.13
1328.4,7672.01
1353.66,7732.98
1366.54,7797.71
1366.54,7863.71
1353.66,7928.44
1328.4,7989.41
1291.74,8044.28
1245.07,8090.95
1190.2,8127.62
1129.22,8152.87
1064.49,8165.75
998.498,8165.75
933.769,8152.87
872.795,8127.62
817.921,8090.95
771.254,8044.28
734.588,7989.41
709.332,7928.44
696.457,7863.71
696.457,7797.71
709.332,7732.98
734.588,7672.01
771.254,7617.13
817.921,7570.47
872.795,7533.8
933.769,7508.54
998.498,7495.67
1064.49,7495.67
Z" /> 
<path style="fill:#848400; fill-opacity:1.0; 
stroke:#848400; stroke-width:0; stroke-opacity:1; 
stroke-linecap:round; stroke-linejoin:round;fill-rule:evenodd;"
d="M 14640.5,4960.32
14728,4977.73
14892.9,5046.02
15041.3,5145.16
15167.4,5271.34
15266.6,5419.71
15334.9,5584.58
15334.9,5584.58
15358.1,5701.46
15369.7,5759.59
15369.7,5938.04
15334.9,6113.06
15266.6,6277.93
15167.4,6426.3
15041.3,6552.48
14892.9,6651.62
14728,6719.91
14640.5,6737.32
14553,6754.72
14374.6,6754.72
14287,6737.32
14199.5,6719.91
14034.7,6651.62
13886.3,6552.48
13760.1,6426.3
13661,6277.93
13592.7,6113.06
13557.9,5938.04
13557.9,5759.59
13569.4,5701.46
13592.7,5584.58
13592.7,5584.58
13661,5419.71
13760.1,5271.34
13886.3,5145.16
14034.7,5046.02
14199.5,4977.73
14287,4960.32
14374.6,4942.91
14553,4942.91
Z" /> 
<path style="fill:#848400; fill-opacity:1.0; 
stroke:#848400; stroke-width:0; stroke-opacity:1; 
stroke-linecap:round; stroke-linejoin:round;fill-rule:evenodd;"
d="M 9909.84,6358.66
9239.76,6358.66
9239.76,5688.58
9909.84,5688.58
Z" /> 
<path style="fill:#848400; fill-opacity:1.0; 
stroke:#848400; stroke-width:0; stroke-opacity:1; 
stroke-linecap:round; stroke-linejoin:round;fill-rule:evenodd;"
d="M 8672.53,5701.46
8733.5,5726.71
8788.38,5763.38
8835.05,5810.05
8871.71,5864.92
8896.97,5925.89
8909.84,5990.62
8909.84,6056.62
8896.97,6121.35
8871.71,6182.32
8835.05,6237.2
8788.38,6283.86
8733.5,6320.53
8672.53,6345.79
8607.8,6358.66
8541.8,6358.66
8477.08,6345.79
8416.1,6320.53
8361.23,6283.86
8314.56,6237.2
8277.89,6182.32
8252.64,6121.35
8239.76,6056.62
8239.76,5990.62
8252.64,5925.89
8277.89,5864.92
8314.56,5810.05
8361.23,5763.38
8416.1,5726.71
8477.08,5701.46
8541.8,5688.58
8607.8,5688.58
Z" /> 
<path style="fill:#848400; fill-opacity:1.0; 
stroke:#848400; stroke-width:0; stroke-opacity:1; 
stroke-linecap:round; stroke-linejoin:round;fill-rule:evenodd;"
d="M 6672.53,5701.46
6733.5,5726.71
6788.38,5763.38
6835.05,5810.05
6871.71,5864.92
6896.97,5925.89
6909.84,5990.62
6909.84,6056.62
6896.97,6121.35
6871.71,6182.32
6835.05,6237.2
6788.38,6283.86
6733.5,6320.53
6672.53,6345.79
6607.8,6358.66
6541.8,6358.66
6477.08,6345.79
6416.1,6320.53
6361.23,6283.86
6314.56,6237.2
6277.89,6182.32
6252.64,6121.35
6239.76,6056.62
6239.76,5990.62
6252.64,5925.89
6277.89,5864.92
6314.56,5810.05
6361.23,5763.38
6416.1,5726.71
6477.08,5701.46
6541.8,5688.58
6607.8,5688.58
Z" /> 
<path style="fill:#848400; fill-opacity:1.0; 
stroke:#848400; stroke-width:0; stroke-opacity:1; 
stroke-linecap:round; stroke-linejoin:round;fill-rule:evenodd;"
d="M 7672.53,5701.46
7733.5,5726.71
7788.38,5763.38
7835.05,5810.05
7871.71,5864.92
7896.97,5925.89
7909.84,5990.62
7909.84,6056.62
7896.97,6121.35
7871.71,6182.32
7835.05,6237.2
7788.38,6283.86
7733.5,6320.53
7672.53,6345.79
7607.8,6358.66
7541.8,6358.66
7477.08,6345.79
7416.1,6320.53
7361.23,6283.86
7314.56,6237.2
7277.89,6182.32
7252.64,6121.35
7239.76,6056.62
7239.76,5990.62
7252.64,5925.89
7277.89,5864.92
7314.56,5810.05
7361.23,5763.38
7416.1,5726.71
7477.08,5701.46
7541.8,5688.58
7607.8,5688.58
Z" /> 
<path style="fill:#848400; fill-opacity:1.0; 
stroke:#848400; stroke-width:0; stroke-opacity:1; 
stroke-linecap:round; stroke-linejoin:round;fill-rule:evenodd;"
d="M 12569.7,6154.72
10757.9,6154.72
10757.9,4342.91
12569.7,4342.91
Z" /> 
<path style="fill:#848400; fill-opacity:1.0; 
stroke:#848400; stroke-width:0; stroke-opacity:1; 
stroke-linecap:round; stroke-linejoin:round;fill-rule:evenodd;"
d="M 2613.55,4277.88
2667.95,4283.23
2772.67,4315
2772.67,4315
2869.17,4366.58
2953.76,4436
3023.18,4520.59
3074.76,4617.09
3074.76,4617.09
3106.53,4721.81
3117.25,4830.71
3106.53,4939.61
3094.97,4977.73
3074.76,5044.32
3023.18,5140.83
2953.76,5225.42
2869.17,5294.84
2772.67,5346.42
2772.67,5346.42
2667.95,5378.18
2613.55,5383.54
2586.35,5386.22
2327.04,5386.22
2299.84,5383.54
2245.43,5378.18
2140.72,5346.42
2140.72,5346.42
2044.21,5294.84
1959.62,5225.42
1890.2,5140.83
1838.62,5044.32
1818.42,4977.73
1806.86,4939.61
1796.13,4830.71
1806.86,4721.81
1838.62,4617.09
1838.62,4617.09
1890.2,4520.59
1959.62,4436
2044.21,4366.58
2140.72,4315
2140.72,4315
2245.43,4283.23
2299.84,4277.88
2327.04,4275.2
2586.35,4275.2
Z" /> 
<path style="fill:#848400; fill-opacity:1.0; 
stroke:#848400; stroke-width:0; stroke-opacity:1; 
stroke-linecap:round; stroke-linejoin:round;fill-rule:evenodd;"
d="M 16190.5,2860.32
16278,2877.73
16442.9,2946.02
16591.3,3045.16
16717.4,3171.34
16816.6,3319.71
16884.9,3484.58
16884.9,3484.58
16914.7,3634.37
16919.7,3659.59
16919.7,3838.04
16884.9,4013.06
16816.6,4177.93
16717.4,4326.3
16591.3,4452.48
16442.9,4551.62
16278,4619.91
16190.5,4637.32
16103,4654.72
15924.6,4654.72
15837,4637.32
15749.5,4619.91
15584.7,4551.62
15436.3,4452.48
15310.1,4326.3
15211,4177.93
15142.7,4013.06
15107.9,3838.04
15107.9,3659.59
15112.9,3634.37
15142.7,3484.58
15142.7,3484.58
15211,3319.71
15310.1,3171.34
15436.3,3045.16
15584.7,2946.02
15749.5,2877.73
15837,2860.32
15924.6,2842.91
16103,2842.91
Z" /> 
<path style="fill:#848400; fill-opacity:1.0; 
stroke:#848400; stroke-width:0; stroke-opacity:1; 
stroke-linecap:round; stroke-linejoin:round;fill-rule:evenodd;"
d="M 5518.66,3565.18
5586.8,3593.4
5586.8,3593.4
5648.12,3634.37
5700.27,3686.52
5700.27,3686.53
5741.25,3747.85
5769.47,3815.99
5783.86,3888.32
5783.86,3962.07
5769.47,4034.41
5741.25,4102.55
5741.25,4102.55
5700.27,4163.87
5648.12,4216.02
5617.25,4236.65
5586.8,4256.99
5518.66,4285.22
5446.33,4299.61
5372.57,4299.61
5300.24,4285.22
5232.1,4256.99
5201.65,4236.65
5170.78,4216.02
5118.63,4163.87
5077.65,4102.55
5077.65,4102.55
5049.43,4034.41
5035.04,3962.07
5035.04,3888.32
5049.43,3815.99
5077.65,3747.85
5118.63,3686.53
5118.63,3686.52
5170.78,3634.37
5232.1,3593.4
5232.1,3593.4
5300.24,3565.18
5372.57,3550.79
5446.33,3550.79
Z" /> 
<path style="fill:#848400; fill-opacity:1.0; 
stroke:#848400; stroke-width:0; stroke-opacity:1; 
stroke-linecap:round; stroke-linejoin:round;fill-rule:evenodd;"
d="M 11440.5,1560.32
11528,1577.73
11692.9,1646.02
11841.3,1745.16
11967.4,1871.34
12066.6,2019.71
12134.9,2184.58
12134.9,2184.58
12169.7,2359.59
12169.7,2538.04
12155.5,2609.15
12134.9,2713.06
12066.6,2877.93
11967.4,3026.3
11841.3,3152.48
11692.9,3251.62
11528,3319.91
11440.5,3337.32
11353,3354.72
11174.6,3354.72
11087,3337.32
10999.5,3319.91
10834.7,3251.62
10686.3,3152.48
10560.1,3026.3
10461,2877.93
10392.7,2713.06
10372,2609.15
10357.9,2538.04
10357.9,2359.59
10392.7,2184.58
10392.7,2184.58
10461,2019.71
10560.1,1871.34
10686.3,1745.16
10834.7,1646.02
10999.5,1577.73
11087,1560.32
11174.6,1542.91
11353,1542.91
Z" /> 
<path style="fill:#848400; fill-opacity:1.0; 
stroke:#848400; stroke-width:0; stroke-opacity:1; 
stroke-linecap:round; stroke-linejoin:round;fill-rule:evenodd;"
d="M 5518.66,2580.92
5586.8,2609.15
5586.8,2609.15
5648.12,2650.12
5700.27,2702.27
5720.9,2733.14
5741.25,2763.6
5769.47,2831.73
5783.86,2904.07
5783.86,2977.82
5769.47,3050.16
5741.25,3118.29
5741.25,3118.29
5700.27,3179.62
5648.12,3231.77
5618.41,3251.62
5586.8,3272.74
5518.66,3300.97
5446.33,3315.35
5372.57,3315.35
5300.24,3300.97
5232.1,3272.74
5200.49,3251.62
5170.78,3231.77
5118.63,3179.62
5077.65,3118.29
5077.65,3118.29
5049.43,3050.16
5035.04,2977.82
5035.04,2904.07
5049.43,2831.73
5077.65,2763.6
5098,2733.14
5118.63,2702.27
5170.78,2650.12
5232.1,2609.15
5232.1,2609.15
5300.24,2580.92
5372.57,2566.54
5446.33,2566.54
Z" /> 
<path style="fill:#848400; fill-opacity:1.0; 
stroke:#848400; stroke-width:0; stroke-opacity:1; 
stroke-linecap:round; stroke-linejoin:round;fill-rule:evenodd;"
d="M 5783.86,2331.1
5035.04,2331.1
5035.04,1582.28
5783.86,1582.28
Z" /> 
<path style="fill:#848400; fill-opacity:1.0; 
stroke:#848400; stroke-width:0; stroke-opacity:1; 
stroke-linecap:round; stroke-linejoin:round;fill-rule:evenodd;"
d="M 13840.5,160.32
13928,177.727
14092.9,246.016
14241.3,345.156
14367.4,471.338
14466.6,619.712
14534.9,784.576
14569.7,959.595
14569.7,1138.04
14534.9,1313.06
14466.6,1477.93
14367.4,1626.3
14241.3,1752.48
14092.9,1851.62
13928,1919.91
13840.5,1937.32
13753,1954.72
13574.6,1954.72
13487,1937.32
13399.5,1919.91
13234.7,1851.62
13086.3,1752.48
12960.1,1626.3
12861,1477.93
12792.7,1313.06
12757.9,1138.04
12757.9,959.595
12792.7,784.576
12861,619.712
12960.1,471.338
13086.3,345.156
13234.7,246.016
13399.5,177.727
13487,160.32
13574.6,142.913
13753,142.913
Z" /> 
<path style="fill:#848400; fill-opacity:1.0; 
stroke:#848400; stroke-width:0; stroke-opacity:1; 
stroke-linecap:round; stroke-linejoin:round;fill-rule:evenodd;"
d="M 2613.55,498.348
2667.95,503.707
2772.67,535.472
2772.67,535.472
2869.17,587.055
2953.76,656.474
3023.18,741.063
3074.76,837.567
3074.76,837.567
3106.53,942.282
3117.25,1051.18
3106.53,1160.08
3074.76,1264.79
3074.76,1264.8
3023.18,1361.3
2953.76,1445.89
2869.17,1515.31
2817.53,1542.91
2772.67,1566.89
2667.95,1598.66
2613.55,1604.01
2586.35,1606.69
2327.04,1606.69
2299.84,1604.01
2245.43,1598.66
2140.72,1566.89
2095.86,1542.91
2044.21,1515.31
1959.62,1445.89
1890.2,1361.3
1838.62,1264.8
1838.62,1264.79
1806.86,1160.08
1796.13,1051.18
1806.86,942.282
1838.62,837.567
1838.62,837.567
1890.2,741.063
1959.62,656.474
2044.21,587.055
2140.72,535.472
2140.72,535.472
2245.43,503.707
2299.84,498.348
2327.04,495.669
2586.35,495.669
Z" /> 
</g>
<g style="fill:#000000; fill-opacity:1.0; 
stroke:#000000; stroke-width:0; stroke-opacity:1; 
stroke-linecap:round; stroke-linejoin:round;">
</g>
<g style="fill:#C2C200; fill-opacity:1.0; 
stroke:#C2C200; stroke-width:0; stroke-opacity:1; 
stroke-linecap:round; stroke-linejoin:round;">
</g>
<g style="fill:#C2C200; fill-opacity:1.0; 
stroke:#C2C200; stroke-width:19.685; stroke-opacity:1; 
stroke-linecap:round; stroke-linejoin:round;">
</g>
<g style="fill:#C2C200; fill-opacity:0.0; 
stroke:#C2C200; stroke-width:19.685; stroke-opacity:1; 
stroke-linecap:round; stroke-linejoin:round;">
<path d="M0 66929
L17716 66929
" />
<path d="M17716 0
L17716 66929
" />
<path d="M0 0
L17716 0
" />
<path d="M0 0
L0 66929
" />
<g >
</g>
<g >
</g>
<g >
</g>
<g >
</g>
<g >
</g>
<g >
</g>
<g >
</g>
<g >
</g>
<g >
</g>
<g >
</g>
<g >
</g>
<g >
</g>
<g >
</g>
<g >
</g>
<g >
</g>
<g >
</g>
<g >
</g>
<g >
</g>
<g >
</g>
<g >
</g>
<g >
</g>
<g >
</g>
</g> 
</svg>
