G04 #@! TF.GenerationSoftware,KiCad,Pcbnew,(5.1.5)-3*
G04 #@! TF.CreationDate,2020-05-12T18:11:06+01:00*
G04 #@! TF.ProjectId,VCO440,56434f34-3430-42e6-9b69-6361645f7063,rev?*
G04 #@! TF.SameCoordinates,Original*
G04 #@! TF.FileFunction,Soldermask,Bot*
G04 #@! TF.FilePolarity,Negative*
%FSLAX46Y46*%
G04 Gerber Fmt 4.6, Leading zero omitted, Abs format (unit mm)*
G04 Created by KiCad (PCBNEW (5.1.5)-3) date 2020-05-12 18:11:06*
%MOMM*%
%LPD*%
G04 APERTURE LIST*
%ADD10C,1.000000*%
%ADD11C,0.010000*%
%ADD12C,0.100000*%
G04 APERTURE END LIST*
D10*
X111419833Y-12152000D02*
X111794833Y-12485333D01*
X112836500Y-12818666D01*
X113503166Y-12818666D01*
X114461500Y-12485333D01*
X115044833Y-11818666D01*
X115294833Y-11152000D01*
X115461500Y-9818666D01*
X115336500Y-8818666D01*
X114836500Y-7485333D01*
X114419833Y-6818666D01*
X113669833Y-6152000D01*
X112628166Y-5818666D01*
X111961500Y-5818666D01*
X111003166Y-6152000D01*
X110711500Y-6485333D01*
X108503166Y-12818666D02*
X107628166Y-5818666D01*
X105961500Y-5818666D01*
X105003166Y-6152000D01*
X104419833Y-6818666D01*
X104169833Y-7485333D01*
X104003166Y-8818666D01*
X104128166Y-9818666D01*
X104628166Y-11152000D01*
X105044833Y-11818666D01*
X105794833Y-12485333D01*
X106836500Y-12818666D01*
X108503166Y-12818666D01*
D11*
G36*
X106949132Y-45501615D02*
G01*
X107112448Y-45657238D01*
X107261122Y-45827030D01*
X107433192Y-46034659D01*
X107197807Y-45827030D01*
X107078603Y-45723853D01*
X107017389Y-45682495D01*
X107017331Y-45715835D01*
X107081595Y-45836750D01*
X107213345Y-46058118D01*
X107282868Y-46173079D01*
X107507556Y-46568521D01*
X107720207Y-46996426D01*
X107925205Y-47469827D01*
X108126934Y-48001754D01*
X108329777Y-48605238D01*
X108538119Y-49293309D01*
X108756344Y-50078998D01*
X108988836Y-50975336D01*
X109235773Y-51977926D01*
X109417349Y-52680192D01*
X109595085Y-53268032D01*
X109766735Y-53735149D01*
X109930054Y-54075247D01*
X110041995Y-54238838D01*
X110150607Y-54343548D01*
X110320267Y-54485158D01*
X110404329Y-54550282D01*
X110547298Y-54650538D01*
X110676695Y-54710772D01*
X110833985Y-54740449D01*
X111060632Y-54749032D01*
X111269452Y-54747724D01*
X111583711Y-54735305D01*
X111857155Y-54699902D01*
X112141927Y-54631183D01*
X112490168Y-54518812D01*
X112575918Y-54488816D01*
X112896043Y-54378570D01*
X113114672Y-54312792D01*
X113259589Y-54286487D01*
X113358579Y-54294665D01*
X113439427Y-54332330D01*
X113441041Y-54333344D01*
X113585426Y-54403705D01*
X113811277Y-54492161D01*
X114043232Y-54570951D01*
X114717808Y-54784943D01*
X115271766Y-54966000D01*
X115717286Y-55120234D01*
X116066548Y-55253757D01*
X116331731Y-55372684D01*
X116525014Y-55483127D01*
X116658578Y-55591199D01*
X116744603Y-55703013D01*
X116795267Y-55824682D01*
X116822750Y-55962319D01*
X116823279Y-55966267D01*
X116821969Y-56069277D01*
X116765151Y-56142745D01*
X116623620Y-56211221D01*
X116465575Y-56266963D01*
X116269026Y-56321209D01*
X115967676Y-56389976D01*
X115593515Y-56466620D01*
X115178534Y-56544497D01*
X114878668Y-56596558D01*
X114486849Y-56663664D01*
X114144322Y-56725211D01*
X113873673Y-56776904D01*
X113697488Y-56814452D01*
X113638659Y-56832239D01*
X113677224Y-56853441D01*
X113814673Y-56865172D01*
X113872514Y-56865995D01*
X114034718Y-56879246D01*
X114083720Y-56915073D01*
X114074376Y-56928529D01*
X113990304Y-56946470D01*
X113790282Y-56964493D01*
X113496778Y-56981995D01*
X113132260Y-56998371D01*
X112719195Y-57013015D01*
X112280051Y-57025322D01*
X111837297Y-57034688D01*
X111413401Y-57040509D01*
X111030829Y-57042179D01*
X110712050Y-57039093D01*
X110479532Y-57030647D01*
X110427019Y-57026713D01*
X110235390Y-56998533D01*
X110116906Y-56960384D01*
X110098273Y-56939809D01*
X110041188Y-56876935D01*
X109902652Y-56801843D01*
X109891390Y-56797094D01*
X109669086Y-56655547D01*
X109431106Y-56425249D01*
X109213129Y-56145987D01*
X109052729Y-55861851D01*
X108999109Y-55712085D01*
X108918939Y-55450723D01*
X108818659Y-55100599D01*
X108704711Y-54684548D01*
X108583532Y-54225405D01*
X108507015Y-53926821D01*
X108361184Y-53360986D01*
X108237613Y-52907372D01*
X108128847Y-52543008D01*
X108027427Y-52244924D01*
X107925899Y-51990148D01*
X107816804Y-51755709D01*
X107776349Y-51675944D01*
X107536616Y-51265583D01*
X107279040Y-50917905D01*
X107017244Y-50643717D01*
X106764853Y-50453827D01*
X106535490Y-50359041D01*
X106342779Y-50370166D01*
X106232887Y-50451600D01*
X106214584Y-50539092D01*
X106195066Y-50748110D01*
X106174879Y-51061775D01*
X106154568Y-51463205D01*
X106134681Y-51935519D01*
X106115763Y-52461835D01*
X106098362Y-53025272D01*
X106083022Y-53608950D01*
X106070292Y-54195988D01*
X106060716Y-54769503D01*
X106054842Y-55312615D01*
X106053216Y-55808443D01*
X106053841Y-55983570D01*
X106054244Y-56311967D01*
X106047850Y-56526225D01*
X106030147Y-56650602D01*
X105996620Y-56709361D01*
X105942757Y-56726761D01*
X105915421Y-56727575D01*
X105878160Y-56724765D01*
X105848010Y-56707487D01*
X105824206Y-56662470D01*
X105805982Y-56576440D01*
X105792573Y-56436127D01*
X105783214Y-56228258D01*
X105777141Y-55939562D01*
X105773587Y-55556766D01*
X105771789Y-55066599D01*
X105770980Y-54455788D01*
X105770795Y-54218719D01*
X105764289Y-53287148D01*
X105746656Y-52417127D01*
X105718587Y-51620213D01*
X105680770Y-50907959D01*
X105633897Y-50291918D01*
X105578658Y-49783646D01*
X105515743Y-49394695D01*
X105471804Y-49213846D01*
X105431969Y-48921008D01*
X105447881Y-48537934D01*
X105512528Y-48097762D01*
X105618897Y-47633630D01*
X105627226Y-47606769D01*
X106580708Y-47606769D01*
X106580744Y-47804395D01*
X106692339Y-47990249D01*
X106904802Y-48139166D01*
X107027439Y-48186489D01*
X107290877Y-48258804D01*
X107437900Y-48277062D01*
X107468300Y-48257319D01*
X107428370Y-48122779D01*
X107325830Y-47926594D01*
X107186560Y-47713566D01*
X107066274Y-47561332D01*
X106927438Y-47410257D01*
X106840621Y-47350672D01*
X106768518Y-47368327D01*
X106702922Y-47422539D01*
X106580708Y-47606769D01*
X105627226Y-47606769D01*
X105759973Y-47178674D01*
X105928745Y-46766033D01*
X106031950Y-46567168D01*
X106149071Y-46376701D01*
X106300160Y-46150336D01*
X106464634Y-45916430D01*
X106621907Y-45703342D01*
X106751395Y-45539428D01*
X106832514Y-45453047D01*
X106845532Y-45446376D01*
X106949132Y-45501615D01*
G37*
X106949132Y-45501615D02*
X107112448Y-45657238D01*
X107261122Y-45827030D01*
X107433192Y-46034659D01*
X107197807Y-45827030D01*
X107078603Y-45723853D01*
X107017389Y-45682495D01*
X107017331Y-45715835D01*
X107081595Y-45836750D01*
X107213345Y-46058118D01*
X107282868Y-46173079D01*
X107507556Y-46568521D01*
X107720207Y-46996426D01*
X107925205Y-47469827D01*
X108126934Y-48001754D01*
X108329777Y-48605238D01*
X108538119Y-49293309D01*
X108756344Y-50078998D01*
X108988836Y-50975336D01*
X109235773Y-51977926D01*
X109417349Y-52680192D01*
X109595085Y-53268032D01*
X109766735Y-53735149D01*
X109930054Y-54075247D01*
X110041995Y-54238838D01*
X110150607Y-54343548D01*
X110320267Y-54485158D01*
X110404329Y-54550282D01*
X110547298Y-54650538D01*
X110676695Y-54710772D01*
X110833985Y-54740449D01*
X111060632Y-54749032D01*
X111269452Y-54747724D01*
X111583711Y-54735305D01*
X111857155Y-54699902D01*
X112141927Y-54631183D01*
X112490168Y-54518812D01*
X112575918Y-54488816D01*
X112896043Y-54378570D01*
X113114672Y-54312792D01*
X113259589Y-54286487D01*
X113358579Y-54294665D01*
X113439427Y-54332330D01*
X113441041Y-54333344D01*
X113585426Y-54403705D01*
X113811277Y-54492161D01*
X114043232Y-54570951D01*
X114717808Y-54784943D01*
X115271766Y-54966000D01*
X115717286Y-55120234D01*
X116066548Y-55253757D01*
X116331731Y-55372684D01*
X116525014Y-55483127D01*
X116658578Y-55591199D01*
X116744603Y-55703013D01*
X116795267Y-55824682D01*
X116822750Y-55962319D01*
X116823279Y-55966267D01*
X116821969Y-56069277D01*
X116765151Y-56142745D01*
X116623620Y-56211221D01*
X116465575Y-56266963D01*
X116269026Y-56321209D01*
X115967676Y-56389976D01*
X115593515Y-56466620D01*
X115178534Y-56544497D01*
X114878668Y-56596558D01*
X114486849Y-56663664D01*
X114144322Y-56725211D01*
X113873673Y-56776904D01*
X113697488Y-56814452D01*
X113638659Y-56832239D01*
X113677224Y-56853441D01*
X113814673Y-56865172D01*
X113872514Y-56865995D01*
X114034718Y-56879246D01*
X114083720Y-56915073D01*
X114074376Y-56928529D01*
X113990304Y-56946470D01*
X113790282Y-56964493D01*
X113496778Y-56981995D01*
X113132260Y-56998371D01*
X112719195Y-57013015D01*
X112280051Y-57025322D01*
X111837297Y-57034688D01*
X111413401Y-57040509D01*
X111030829Y-57042179D01*
X110712050Y-57039093D01*
X110479532Y-57030647D01*
X110427019Y-57026713D01*
X110235390Y-56998533D01*
X110116906Y-56960384D01*
X110098273Y-56939809D01*
X110041188Y-56876935D01*
X109902652Y-56801843D01*
X109891390Y-56797094D01*
X109669086Y-56655547D01*
X109431106Y-56425249D01*
X109213129Y-56145987D01*
X109052729Y-55861851D01*
X108999109Y-55712085D01*
X108918939Y-55450723D01*
X108818659Y-55100599D01*
X108704711Y-54684548D01*
X108583532Y-54225405D01*
X108507015Y-53926821D01*
X108361184Y-53360986D01*
X108237613Y-52907372D01*
X108128847Y-52543008D01*
X108027427Y-52244924D01*
X107925899Y-51990148D01*
X107816804Y-51755709D01*
X107776349Y-51675944D01*
X107536616Y-51265583D01*
X107279040Y-50917905D01*
X107017244Y-50643717D01*
X106764853Y-50453827D01*
X106535490Y-50359041D01*
X106342779Y-50370166D01*
X106232887Y-50451600D01*
X106214584Y-50539092D01*
X106195066Y-50748110D01*
X106174879Y-51061775D01*
X106154568Y-51463205D01*
X106134681Y-51935519D01*
X106115763Y-52461835D01*
X106098362Y-53025272D01*
X106083022Y-53608950D01*
X106070292Y-54195988D01*
X106060716Y-54769503D01*
X106054842Y-55312615D01*
X106053216Y-55808443D01*
X106053841Y-55983570D01*
X106054244Y-56311967D01*
X106047850Y-56526225D01*
X106030147Y-56650602D01*
X105996620Y-56709361D01*
X105942757Y-56726761D01*
X105915421Y-56727575D01*
X105878160Y-56724765D01*
X105848010Y-56707487D01*
X105824206Y-56662470D01*
X105805982Y-56576440D01*
X105792573Y-56436127D01*
X105783214Y-56228258D01*
X105777141Y-55939562D01*
X105773587Y-55556766D01*
X105771789Y-55066599D01*
X105770980Y-54455788D01*
X105770795Y-54218719D01*
X105764289Y-53287148D01*
X105746656Y-52417127D01*
X105718587Y-51620213D01*
X105680770Y-50907959D01*
X105633897Y-50291918D01*
X105578658Y-49783646D01*
X105515743Y-49394695D01*
X105471804Y-49213846D01*
X105431969Y-48921008D01*
X105447881Y-48537934D01*
X105512528Y-48097762D01*
X105618897Y-47633630D01*
X105627226Y-47606769D01*
X106580708Y-47606769D01*
X106580744Y-47804395D01*
X106692339Y-47990249D01*
X106904802Y-48139166D01*
X107027439Y-48186489D01*
X107290877Y-48258804D01*
X107437900Y-48277062D01*
X107468300Y-48257319D01*
X107428370Y-48122779D01*
X107325830Y-47926594D01*
X107186560Y-47713566D01*
X107066274Y-47561332D01*
X106927438Y-47410257D01*
X106840621Y-47350672D01*
X106768518Y-47368327D01*
X106702922Y-47422539D01*
X106580708Y-47606769D01*
X105627226Y-47606769D01*
X105759973Y-47178674D01*
X105928745Y-46766033D01*
X106031950Y-46567168D01*
X106149071Y-46376701D01*
X106300160Y-46150336D01*
X106464634Y-45916430D01*
X106621907Y-45703342D01*
X106751395Y-45539428D01*
X106832514Y-45453047D01*
X106845532Y-45446376D01*
X106949132Y-45501615D01*
G36*
X113115409Y-54115369D02*
G01*
X113124658Y-54116303D01*
X113190148Y-54129136D01*
X113130853Y-54138871D01*
X112960400Y-54143813D01*
X112901270Y-54144102D01*
X112699233Y-54141052D01*
X112599286Y-54132468D01*
X112617730Y-54120050D01*
X112640189Y-54116861D01*
X112869058Y-54105242D01*
X113115409Y-54115369D01*
G37*
X113115409Y-54115369D02*
X113124658Y-54116303D01*
X113190148Y-54129136D01*
X113130853Y-54138871D01*
X112960400Y-54143813D01*
X112901270Y-54144102D01*
X112699233Y-54141052D01*
X112599286Y-54132468D01*
X112617730Y-54120050D01*
X112640189Y-54116861D01*
X112869058Y-54105242D01*
X113115409Y-54115369D01*
G36*
X111620888Y-54062997D02*
G01*
X111586283Y-54097602D01*
X111551679Y-54062997D01*
X111586283Y-54028392D01*
X111620888Y-54062997D01*
G37*
X111620888Y-54062997D02*
X111586283Y-54097602D01*
X111551679Y-54062997D01*
X111586283Y-54028392D01*
X111620888Y-54062997D01*
G36*
X109613804Y-50325668D02*
G01*
X109579199Y-50360273D01*
X109544594Y-50325668D01*
X109579199Y-50291063D01*
X109613804Y-50325668D01*
G37*
X109613804Y-50325668D02*
X109579199Y-50360273D01*
X109544594Y-50325668D01*
X109579199Y-50291063D01*
X109613804Y-50325668D01*
G36*
X109406174Y-49771989D02*
G01*
X109371570Y-49806594D01*
X109336965Y-49771989D01*
X109371570Y-49737384D01*
X109406174Y-49771989D01*
G37*
X109406174Y-49771989D02*
X109371570Y-49806594D01*
X109336965Y-49771989D01*
X109371570Y-49737384D01*
X109406174Y-49771989D01*
G36*
X109336965Y-49633570D02*
G01*
X109302360Y-49668174D01*
X109267755Y-49633570D01*
X109302360Y-49598965D01*
X109336965Y-49633570D01*
G37*
X109336965Y-49633570D02*
X109302360Y-49668174D01*
X109267755Y-49633570D01*
X109302360Y-49598965D01*
X109336965Y-49633570D01*
G36*
X109244685Y-49414405D02*
G01*
X109252968Y-49496541D01*
X109244685Y-49506685D01*
X109203540Y-49497185D01*
X109198545Y-49460545D01*
X109223868Y-49403578D01*
X109244685Y-49414405D01*
G37*
X109244685Y-49414405D02*
X109252968Y-49496541D01*
X109244685Y-49506685D01*
X109203540Y-49497185D01*
X109198545Y-49460545D01*
X109223868Y-49403578D01*
X109244685Y-49414405D01*
G36*
X109198545Y-49287521D02*
G01*
X109163940Y-49322125D01*
X109129335Y-49287521D01*
X109163940Y-49252916D01*
X109198545Y-49287521D01*
G37*
X109198545Y-49287521D02*
X109163940Y-49322125D01*
X109129335Y-49287521D01*
X109163940Y-49252916D01*
X109198545Y-49287521D01*
G36*
X109129335Y-49149101D02*
G01*
X109094730Y-49183706D01*
X109060125Y-49149101D01*
X109094730Y-49114496D01*
X109129335Y-49149101D01*
G37*
X109129335Y-49149101D02*
X109094730Y-49183706D01*
X109060125Y-49149101D01*
X109094730Y-49114496D01*
X109129335Y-49149101D01*
G36*
X109037056Y-48929937D02*
G01*
X109045339Y-49012072D01*
X109037056Y-49022216D01*
X108995910Y-49012716D01*
X108990916Y-48976076D01*
X109016238Y-48919109D01*
X109037056Y-48929937D01*
G37*
X109037056Y-48929937D02*
X109045339Y-49012072D01*
X109037056Y-49022216D01*
X108995910Y-49012716D01*
X108990916Y-48976076D01*
X109016238Y-48919109D01*
X109037056Y-48929937D01*
G36*
X108990916Y-48803052D02*
G01*
X108956311Y-48837657D01*
X108921706Y-48803052D01*
X108956311Y-48768447D01*
X108990916Y-48803052D01*
G37*
X108990916Y-48803052D02*
X108956311Y-48837657D01*
X108921706Y-48803052D01*
X108956311Y-48768447D01*
X108990916Y-48803052D01*
G36*
X108921706Y-48664632D02*
G01*
X108887101Y-48699237D01*
X108852496Y-48664632D01*
X108887101Y-48630027D01*
X108921706Y-48664632D01*
G37*
X108921706Y-48664632D02*
X108887101Y-48699237D01*
X108852496Y-48664632D01*
X108887101Y-48630027D01*
X108921706Y-48664632D01*
G36*
X108644867Y-48041744D02*
G01*
X108610262Y-48076349D01*
X108575657Y-48041744D01*
X108610262Y-48007139D01*
X108644867Y-48041744D01*
G37*
X108644867Y-48041744D02*
X108610262Y-48076349D01*
X108575657Y-48041744D01*
X108610262Y-48007139D01*
X108644867Y-48041744D01*
G36*
X108575657Y-47903324D02*
G01*
X108541052Y-47937929D01*
X108506447Y-47903324D01*
X108541052Y-47868719D01*
X108575657Y-47903324D01*
G37*
X108575657Y-47903324D02*
X108541052Y-47937929D01*
X108506447Y-47903324D01*
X108541052Y-47868719D01*
X108575657Y-47903324D01*
G36*
X108506447Y-47764905D02*
G01*
X108471842Y-47799510D01*
X108437237Y-47764905D01*
X108471842Y-47730300D01*
X108506447Y-47764905D01*
G37*
X108506447Y-47764905D02*
X108471842Y-47799510D01*
X108437237Y-47764905D01*
X108471842Y-47730300D01*
X108506447Y-47764905D01*
G36*
X108437237Y-47626485D02*
G01*
X108402632Y-47661090D01*
X108368027Y-47626485D01*
X108402632Y-47591880D01*
X108437237Y-47626485D01*
G37*
X108437237Y-47626485D02*
X108402632Y-47661090D01*
X108368027Y-47626485D01*
X108402632Y-47591880D01*
X108437237Y-47626485D01*
G36*
X108368027Y-47488065D02*
G01*
X108333422Y-47522670D01*
X108298818Y-47488065D01*
X108333422Y-47453461D01*
X108368027Y-47488065D01*
G37*
X108368027Y-47488065D02*
X108333422Y-47522670D01*
X108298818Y-47488065D01*
X108333422Y-47453461D01*
X108368027Y-47488065D01*
G36*
X107680676Y-46400335D02*
G01*
X107781823Y-46543530D01*
X107913971Y-46746434D01*
X107934232Y-46778665D01*
X108103726Y-47050090D01*
X108211374Y-47225313D01*
X108268976Y-47325337D01*
X108288332Y-47371162D01*
X108281243Y-47383788D01*
X108274501Y-47384251D01*
X108224861Y-47330019D01*
X108123714Y-47186825D01*
X107991566Y-46983920D01*
X107971305Y-46951689D01*
X107801811Y-46680265D01*
X107694163Y-46505041D01*
X107636561Y-46405017D01*
X107617205Y-46359193D01*
X107624294Y-46346566D01*
X107631036Y-46346104D01*
X107680676Y-46400335D01*
G37*
X107680676Y-46400335D02*
X107781823Y-46543530D01*
X107913971Y-46746434D01*
X107934232Y-46778665D01*
X108103726Y-47050090D01*
X108211374Y-47225313D01*
X108268976Y-47325337D01*
X108288332Y-47371162D01*
X108281243Y-47383788D01*
X108274501Y-47384251D01*
X108224861Y-47330019D01*
X108123714Y-47186825D01*
X107991566Y-46983920D01*
X107971305Y-46951689D01*
X107801811Y-46680265D01*
X107694163Y-46505041D01*
X107636561Y-46405017D01*
X107617205Y-46359193D01*
X107624294Y-46346566D01*
X107631036Y-46346104D01*
X107680676Y-46400335D01*
G36*
X107457606Y-46097260D02*
G01*
X107531323Y-46161597D01*
X107537510Y-46177164D01*
X107504664Y-46205610D01*
X107436281Y-46141869D01*
X107427086Y-46127781D01*
X107418929Y-46080421D01*
X107457606Y-46097260D01*
G37*
X107457606Y-46097260D02*
X107531323Y-46161597D01*
X107537510Y-46177164D01*
X107504664Y-46205610D01*
X107436281Y-46141869D01*
X107427086Y-46127781D01*
X107418929Y-46080421D01*
X107457606Y-46097260D01*
D12*
G36*
X108400903Y-225919213D02*
G01*
X108623177Y-225963426D01*
X109041932Y-226136880D01*
X109418802Y-226388696D01*
X109739304Y-226709198D01*
X109991120Y-227086068D01*
X110164574Y-227504823D01*
X110253000Y-227949371D01*
X110253000Y-228402629D01*
X110164574Y-228847177D01*
X109991120Y-229265932D01*
X109739304Y-229642802D01*
X109418802Y-229963304D01*
X109041932Y-230215120D01*
X108623177Y-230388574D01*
X108400903Y-230432787D01*
X108178630Y-230477000D01*
X107725370Y-230477000D01*
X107503097Y-230432787D01*
X107280823Y-230388574D01*
X106862068Y-230215120D01*
X106485198Y-229963304D01*
X106164696Y-229642802D01*
X105912880Y-229265932D01*
X105739426Y-228847177D01*
X105651000Y-228402629D01*
X105651000Y-227949371D01*
X105739426Y-227504823D01*
X105912880Y-227086068D01*
X106164696Y-226709198D01*
X106485198Y-226388696D01*
X106862068Y-226136880D01*
X107280823Y-225963426D01*
X107503097Y-225919213D01*
X107725370Y-225875000D01*
X108178630Y-225875000D01*
X108400903Y-225919213D01*
G37*
G36*
X117365000Y-228953000D02*
G01*
X112763000Y-228953000D01*
X112763000Y-224351000D01*
X117365000Y-224351000D01*
X117365000Y-228953000D01*
G37*
G36*
X104463903Y-220585213D02*
G01*
X104686177Y-220629426D01*
X105104932Y-220802880D01*
X105481802Y-221054696D01*
X105802304Y-221375198D01*
X106054120Y-221752068D01*
X106227574Y-222170823D01*
X106316000Y-222615371D01*
X106316000Y-223068629D01*
X106227574Y-223513177D01*
X106054120Y-223931932D01*
X105802304Y-224308802D01*
X105481802Y-224629304D01*
X105104932Y-224881120D01*
X104686177Y-225054574D01*
X104463903Y-225098787D01*
X104241630Y-225143000D01*
X103788370Y-225143000D01*
X103566097Y-225098787D01*
X103343823Y-225054574D01*
X102925068Y-224881120D01*
X102548198Y-224629304D01*
X102227696Y-224308802D01*
X101975880Y-223931932D01*
X101802426Y-223513177D01*
X101714000Y-223068629D01*
X101714000Y-222615371D01*
X101802426Y-222170823D01*
X101975880Y-221752068D01*
X102227696Y-221375198D01*
X102548198Y-221054696D01*
X102925068Y-220802880D01*
X103343823Y-220629426D01*
X103566097Y-220585213D01*
X103788370Y-220541000D01*
X104241630Y-220541000D01*
X104463903Y-220585213D01*
G37*
G36*
X116528903Y-217283213D02*
G01*
X116751177Y-217327426D01*
X117169932Y-217500880D01*
X117546802Y-217752696D01*
X117867304Y-218073198D01*
X118119120Y-218450068D01*
X118292574Y-218868823D01*
X118381000Y-219313371D01*
X118381000Y-219766629D01*
X118292574Y-220211177D01*
X118119120Y-220629932D01*
X117867304Y-221006802D01*
X117546802Y-221327304D01*
X117169932Y-221579120D01*
X116751177Y-221752574D01*
X116528903Y-221796787D01*
X116306630Y-221841000D01*
X115853370Y-221841000D01*
X115631097Y-221796787D01*
X115408823Y-221752574D01*
X114990068Y-221579120D01*
X114613198Y-221327304D01*
X114292696Y-221006802D01*
X114040880Y-220629932D01*
X113867426Y-220211177D01*
X113779000Y-219766629D01*
X113779000Y-219313371D01*
X113867426Y-218868823D01*
X114040880Y-218450068D01*
X114292696Y-218073198D01*
X114613198Y-217752696D01*
X114990068Y-217500880D01*
X115408823Y-217327426D01*
X115631097Y-217283213D01*
X115853370Y-217239000D01*
X116306630Y-217239000D01*
X116528903Y-217283213D01*
G37*
G36*
X110432903Y-213727213D02*
G01*
X110655177Y-213771426D01*
X111073932Y-213944880D01*
X111450802Y-214196696D01*
X111771304Y-214517198D01*
X112023120Y-214894068D01*
X112196574Y-215312823D01*
X112285000Y-215757371D01*
X112285000Y-216210629D01*
X112196574Y-216655177D01*
X112023120Y-217073932D01*
X111771304Y-217450802D01*
X111450802Y-217771304D01*
X111073932Y-218023120D01*
X110655177Y-218196574D01*
X110432903Y-218240787D01*
X110210630Y-218285000D01*
X109757370Y-218285000D01*
X109535097Y-218240787D01*
X109312823Y-218196574D01*
X108894068Y-218023120D01*
X108517198Y-217771304D01*
X108196696Y-217450802D01*
X107944880Y-217073932D01*
X107771426Y-216655177D01*
X107683000Y-216210629D01*
X107683000Y-215757371D01*
X107771426Y-215312823D01*
X107944880Y-214894068D01*
X108196696Y-214517198D01*
X108517198Y-214196696D01*
X108894068Y-213944880D01*
X109312823Y-213771426D01*
X109535097Y-213727213D01*
X109757370Y-213683000D01*
X110210630Y-213683000D01*
X110432903Y-213727213D01*
G37*
G36*
X108400903Y-207919213D02*
G01*
X108623177Y-207963426D01*
X109041932Y-208136880D01*
X109418802Y-208388696D01*
X109739304Y-208709198D01*
X109991120Y-209086068D01*
X110164574Y-209504823D01*
X110253000Y-209949371D01*
X110253000Y-210402629D01*
X110164574Y-210847177D01*
X109991120Y-211265932D01*
X109739304Y-211642802D01*
X109418802Y-211963304D01*
X109041932Y-212215120D01*
X108623177Y-212388574D01*
X108400903Y-212432787D01*
X108178630Y-212477000D01*
X107725370Y-212477000D01*
X107503097Y-212432787D01*
X107280823Y-212388574D01*
X106862068Y-212215120D01*
X106485198Y-211963304D01*
X106164696Y-211642802D01*
X105912880Y-211265932D01*
X105739426Y-210847177D01*
X105651000Y-210402629D01*
X105651000Y-209949371D01*
X105739426Y-209504823D01*
X105912880Y-209086068D01*
X106164696Y-208709198D01*
X106485198Y-208388696D01*
X106862068Y-208136880D01*
X107280823Y-207963426D01*
X107503097Y-207919213D01*
X107725370Y-207875000D01*
X108178630Y-207875000D01*
X108400903Y-207919213D01*
G37*
G36*
X117365000Y-210953000D02*
G01*
X112763000Y-210953000D01*
X112763000Y-206351000D01*
X117365000Y-206351000D01*
X117365000Y-210953000D01*
G37*
G36*
X104463903Y-202585213D02*
G01*
X104686177Y-202629426D01*
X105104932Y-202802880D01*
X105481802Y-203054696D01*
X105802304Y-203375198D01*
X106054120Y-203752068D01*
X106227574Y-204170823D01*
X106316000Y-204615371D01*
X106316000Y-205068629D01*
X106227574Y-205513177D01*
X106054120Y-205931932D01*
X105802304Y-206308802D01*
X105481802Y-206629304D01*
X105104932Y-206881120D01*
X104686177Y-207054574D01*
X104463903Y-207098787D01*
X104241630Y-207143000D01*
X103788370Y-207143000D01*
X103566097Y-207098787D01*
X103343823Y-207054574D01*
X102925068Y-206881120D01*
X102548198Y-206629304D01*
X102227696Y-206308802D01*
X101975880Y-205931932D01*
X101802426Y-205513177D01*
X101714000Y-205068629D01*
X101714000Y-204615371D01*
X101802426Y-204170823D01*
X101975880Y-203752068D01*
X102227696Y-203375198D01*
X102548198Y-203054696D01*
X102925068Y-202802880D01*
X103343823Y-202629426D01*
X103566097Y-202585213D01*
X103788370Y-202541000D01*
X104241630Y-202541000D01*
X104463903Y-202585213D01*
G37*
G36*
X116528903Y-199283213D02*
G01*
X116751177Y-199327426D01*
X117169932Y-199500880D01*
X117546802Y-199752696D01*
X117867304Y-200073198D01*
X118119120Y-200450068D01*
X118292574Y-200868823D01*
X118381000Y-201313371D01*
X118381000Y-201766629D01*
X118292574Y-202211177D01*
X118119120Y-202629932D01*
X117867304Y-203006802D01*
X117546802Y-203327304D01*
X117169932Y-203579120D01*
X116751177Y-203752574D01*
X116528903Y-203796787D01*
X116306630Y-203841000D01*
X115853370Y-203841000D01*
X115631097Y-203796787D01*
X115408823Y-203752574D01*
X114990068Y-203579120D01*
X114613198Y-203327304D01*
X114292696Y-203006802D01*
X114040880Y-202629932D01*
X113867426Y-202211177D01*
X113779000Y-201766629D01*
X113779000Y-201313371D01*
X113867426Y-200868823D01*
X114040880Y-200450068D01*
X114292696Y-200073198D01*
X114613198Y-199752696D01*
X114990068Y-199500880D01*
X115408823Y-199327426D01*
X115631097Y-199283213D01*
X115853370Y-199239000D01*
X116306630Y-199239000D01*
X116528903Y-199283213D01*
G37*
G36*
X110432903Y-195727213D02*
G01*
X110655177Y-195771426D01*
X111073932Y-195944880D01*
X111450802Y-196196696D01*
X111771304Y-196517198D01*
X112023120Y-196894068D01*
X112196574Y-197312823D01*
X112285000Y-197757371D01*
X112285000Y-198210629D01*
X112196574Y-198655177D01*
X112023120Y-199073932D01*
X111771304Y-199450802D01*
X111450802Y-199771304D01*
X111073932Y-200023120D01*
X110655177Y-200196574D01*
X110432903Y-200240787D01*
X110210630Y-200285000D01*
X109757370Y-200285000D01*
X109535097Y-200240787D01*
X109312823Y-200196574D01*
X108894068Y-200023120D01*
X108517198Y-199771304D01*
X108196696Y-199450802D01*
X107944880Y-199073932D01*
X107771426Y-198655177D01*
X107683000Y-198210629D01*
X107683000Y-197757371D01*
X107771426Y-197312823D01*
X107944880Y-196894068D01*
X108196696Y-196517198D01*
X108517198Y-196196696D01*
X108894068Y-195944880D01*
X109312823Y-195771426D01*
X109535097Y-195727213D01*
X109757370Y-195683000D01*
X110210630Y-195683000D01*
X110432903Y-195727213D01*
G37*
G36*
X107944228Y-192729703D02*
G01*
X108099100Y-192793853D01*
X108238481Y-192886985D01*
X108357015Y-193005519D01*
X108450147Y-193144900D01*
X108514297Y-193299772D01*
X108547000Y-193464184D01*
X108547000Y-193631816D01*
X108514297Y-193796228D01*
X108450147Y-193951100D01*
X108357015Y-194090481D01*
X108238481Y-194209015D01*
X108099100Y-194302147D01*
X107944228Y-194366297D01*
X107779816Y-194399000D01*
X107612184Y-194399000D01*
X107447772Y-194366297D01*
X107292900Y-194302147D01*
X107153519Y-194209015D01*
X107034985Y-194090481D01*
X106941853Y-193951100D01*
X106877703Y-193796228D01*
X106845000Y-193631816D01*
X106845000Y-193464184D01*
X106877703Y-193299772D01*
X106941853Y-193144900D01*
X107034985Y-193005519D01*
X107153519Y-192886985D01*
X107292900Y-192793853D01*
X107447772Y-192729703D01*
X107612184Y-192697000D01*
X107779816Y-192697000D01*
X107944228Y-192729703D01*
G37*
G36*
X103626228Y-192729703D02*
G01*
X103781100Y-192793853D01*
X103920481Y-192886985D01*
X104039015Y-193005519D01*
X104132147Y-193144900D01*
X104196297Y-193299772D01*
X104229000Y-193464184D01*
X104229000Y-193631816D01*
X104196297Y-193796228D01*
X104132147Y-193951100D01*
X104039015Y-194090481D01*
X103920481Y-194209015D01*
X103781100Y-194302147D01*
X103626228Y-194366297D01*
X103461816Y-194399000D01*
X103294184Y-194399000D01*
X103129772Y-194366297D01*
X102974900Y-194302147D01*
X102835519Y-194209015D01*
X102716985Y-194090481D01*
X102623853Y-193951100D01*
X102559703Y-193796228D01*
X102527000Y-193631816D01*
X102527000Y-193464184D01*
X102559703Y-193299772D01*
X102623853Y-193144900D01*
X102716985Y-193005519D01*
X102835519Y-192886985D01*
X102974900Y-192793853D01*
X103129772Y-192729703D01*
X103294184Y-192697000D01*
X103461816Y-192697000D01*
X103626228Y-192729703D01*
G37*
G36*
X107944228Y-185109703D02*
G01*
X108099100Y-185173853D01*
X108238481Y-185266985D01*
X108357015Y-185385519D01*
X108450147Y-185524900D01*
X108514297Y-185679772D01*
X108547000Y-185844184D01*
X108547000Y-186011816D01*
X108514297Y-186176228D01*
X108450147Y-186331100D01*
X108357015Y-186470481D01*
X108238481Y-186589015D01*
X108099100Y-186682147D01*
X107944228Y-186746297D01*
X107779816Y-186779000D01*
X107612184Y-186779000D01*
X107447772Y-186746297D01*
X107292900Y-186682147D01*
X107153519Y-186589015D01*
X107034985Y-186470481D01*
X106941853Y-186331100D01*
X106877703Y-186176228D01*
X106845000Y-186011816D01*
X106845000Y-185844184D01*
X106877703Y-185679772D01*
X106941853Y-185524900D01*
X107034985Y-185385519D01*
X107153519Y-185266985D01*
X107292900Y-185173853D01*
X107447772Y-185109703D01*
X107612184Y-185077000D01*
X107779816Y-185077000D01*
X107944228Y-185109703D01*
G37*
G36*
X103626228Y-185109703D02*
G01*
X103781100Y-185173853D01*
X103920481Y-185266985D01*
X104039015Y-185385519D01*
X104132147Y-185524900D01*
X104196297Y-185679772D01*
X104229000Y-185844184D01*
X104229000Y-186011816D01*
X104196297Y-186176228D01*
X104132147Y-186331100D01*
X104039015Y-186470481D01*
X103920481Y-186589015D01*
X103781100Y-186682147D01*
X103626228Y-186746297D01*
X103461816Y-186779000D01*
X103294184Y-186779000D01*
X103129772Y-186746297D01*
X102974900Y-186682147D01*
X102835519Y-186589015D01*
X102716985Y-186470481D01*
X102623853Y-186331100D01*
X102559703Y-186176228D01*
X102527000Y-186011816D01*
X102527000Y-185844184D01*
X102559703Y-185679772D01*
X102623853Y-185524900D01*
X102716985Y-185385519D01*
X102835519Y-185266985D01*
X102974900Y-185173853D01*
X103129772Y-185109703D01*
X103294184Y-185077000D01*
X103461816Y-185077000D01*
X103626228Y-185109703D01*
G37*
G36*
X105676778Y-175904547D02*
G01*
X105843224Y-175973491D01*
X105993022Y-176073583D01*
X106120417Y-176200978D01*
X106220509Y-176350776D01*
X106289453Y-176517222D01*
X106324600Y-176693918D01*
X106324600Y-176874082D01*
X106289453Y-177050778D01*
X106220509Y-177217224D01*
X106120417Y-177367022D01*
X105993022Y-177494417D01*
X105843224Y-177594509D01*
X105676778Y-177663453D01*
X105500082Y-177698600D01*
X105319918Y-177698600D01*
X105143222Y-177663453D01*
X104976776Y-177594509D01*
X104826978Y-177494417D01*
X104699583Y-177367022D01*
X104599491Y-177217224D01*
X104530547Y-177050778D01*
X104495400Y-176874082D01*
X104495400Y-176693918D01*
X104530547Y-176517222D01*
X104599491Y-176350776D01*
X104699583Y-176200978D01*
X104826978Y-176073583D01*
X104976776Y-175973491D01*
X105143222Y-175904547D01*
X105319918Y-175869400D01*
X105500082Y-175869400D01*
X105676778Y-175904547D01*
G37*
G36*
X108216778Y-175904547D02*
G01*
X108383224Y-175973491D01*
X108533022Y-176073583D01*
X108660417Y-176200978D01*
X108760509Y-176350776D01*
X108829453Y-176517222D01*
X108864600Y-176693918D01*
X108864600Y-176874082D01*
X108829453Y-177050778D01*
X108760509Y-177217224D01*
X108660417Y-177367022D01*
X108533022Y-177494417D01*
X108383224Y-177594509D01*
X108216778Y-177663453D01*
X108040082Y-177698600D01*
X107859918Y-177698600D01*
X107683222Y-177663453D01*
X107516776Y-177594509D01*
X107366978Y-177494417D01*
X107239583Y-177367022D01*
X107139491Y-177217224D01*
X107070547Y-177050778D01*
X107035400Y-176874082D01*
X107035400Y-176693918D01*
X107070547Y-176517222D01*
X107139491Y-176350776D01*
X107239583Y-176200978D01*
X107366978Y-176073583D01*
X107516776Y-175973491D01*
X107683222Y-175904547D01*
X107859918Y-175869400D01*
X108040082Y-175869400D01*
X108216778Y-175904547D01*
G37*
G36*
X108216778Y-173364547D02*
G01*
X108383224Y-173433491D01*
X108533022Y-173533583D01*
X108660417Y-173660978D01*
X108760509Y-173810776D01*
X108829453Y-173977222D01*
X108864600Y-174153918D01*
X108864600Y-174334082D01*
X108829453Y-174510778D01*
X108760509Y-174677224D01*
X108660417Y-174827022D01*
X108533022Y-174954417D01*
X108383224Y-175054509D01*
X108216778Y-175123453D01*
X108040082Y-175158600D01*
X107859918Y-175158600D01*
X107683222Y-175123453D01*
X107516776Y-175054509D01*
X107366978Y-174954417D01*
X107239583Y-174827022D01*
X107139491Y-174677224D01*
X107070547Y-174510778D01*
X107035400Y-174334082D01*
X107035400Y-174153918D01*
X107070547Y-173977222D01*
X107139491Y-173810776D01*
X107239583Y-173660978D01*
X107366978Y-173533583D01*
X107516776Y-173433491D01*
X107683222Y-173364547D01*
X107859918Y-173329400D01*
X108040082Y-173329400D01*
X108216778Y-173364547D01*
G37*
G36*
X105676778Y-173364547D02*
G01*
X105843224Y-173433491D01*
X105993022Y-173533583D01*
X106120417Y-173660978D01*
X106220509Y-173810776D01*
X106289453Y-173977222D01*
X106324600Y-174153918D01*
X106324600Y-174334082D01*
X106289453Y-174510778D01*
X106220509Y-174677224D01*
X106120417Y-174827022D01*
X105993022Y-174954417D01*
X105843224Y-175054509D01*
X105676778Y-175123453D01*
X105500082Y-175158600D01*
X105319918Y-175158600D01*
X105143222Y-175123453D01*
X104976776Y-175054509D01*
X104826978Y-174954417D01*
X104699583Y-174827022D01*
X104599491Y-174677224D01*
X104530547Y-174510778D01*
X104495400Y-174334082D01*
X104495400Y-174153918D01*
X104530547Y-173977222D01*
X104599491Y-173810776D01*
X104699583Y-173660978D01*
X104826978Y-173533583D01*
X104976776Y-173433491D01*
X105143222Y-173364547D01*
X105319918Y-173329400D01*
X105500082Y-173329400D01*
X105676778Y-173364547D01*
G37*
G36*
X108216778Y-170824547D02*
G01*
X108383224Y-170893491D01*
X108533022Y-170993583D01*
X108660417Y-171120978D01*
X108760509Y-171270776D01*
X108829453Y-171437222D01*
X108864600Y-171613918D01*
X108864600Y-171794082D01*
X108829453Y-171970778D01*
X108760509Y-172137224D01*
X108660417Y-172287022D01*
X108533022Y-172414417D01*
X108383224Y-172514509D01*
X108216778Y-172583453D01*
X108040082Y-172618600D01*
X107859918Y-172618600D01*
X107683222Y-172583453D01*
X107516776Y-172514509D01*
X107366978Y-172414417D01*
X107239583Y-172287022D01*
X107139491Y-172137224D01*
X107070547Y-171970778D01*
X107035400Y-171794082D01*
X107035400Y-171613918D01*
X107070547Y-171437222D01*
X107139491Y-171270776D01*
X107239583Y-171120978D01*
X107366978Y-170993583D01*
X107516776Y-170893491D01*
X107683222Y-170824547D01*
X107859918Y-170789400D01*
X108040082Y-170789400D01*
X108216778Y-170824547D01*
G37*
G36*
X105676778Y-170824547D02*
G01*
X105843224Y-170893491D01*
X105993022Y-170993583D01*
X106120417Y-171120978D01*
X106220509Y-171270776D01*
X106289453Y-171437222D01*
X106324600Y-171613918D01*
X106324600Y-171794082D01*
X106289453Y-171970778D01*
X106220509Y-172137224D01*
X106120417Y-172287022D01*
X105993022Y-172414417D01*
X105843224Y-172514509D01*
X105676778Y-172583453D01*
X105500082Y-172618600D01*
X105319918Y-172618600D01*
X105143222Y-172583453D01*
X104976776Y-172514509D01*
X104826978Y-172414417D01*
X104699583Y-172287022D01*
X104599491Y-172137224D01*
X104530547Y-171970778D01*
X104495400Y-171794082D01*
X104495400Y-171613918D01*
X104530547Y-171437222D01*
X104599491Y-171270776D01*
X104699583Y-171120978D01*
X104826978Y-170993583D01*
X104976776Y-170893491D01*
X105143222Y-170824547D01*
X105319918Y-170789400D01*
X105500082Y-170789400D01*
X105676778Y-170824547D01*
G37*
G36*
X105676778Y-168284547D02*
G01*
X105843224Y-168353491D01*
X105993022Y-168453583D01*
X106120417Y-168580978D01*
X106220509Y-168730776D01*
X106289453Y-168897222D01*
X106324600Y-169073918D01*
X106324600Y-169254082D01*
X106289453Y-169430778D01*
X106220509Y-169597224D01*
X106120417Y-169747022D01*
X105993022Y-169874417D01*
X105843224Y-169974509D01*
X105676778Y-170043453D01*
X105500082Y-170078600D01*
X105319918Y-170078600D01*
X105143222Y-170043453D01*
X104976776Y-169974509D01*
X104826978Y-169874417D01*
X104699583Y-169747022D01*
X104599491Y-169597224D01*
X104530547Y-169430778D01*
X104495400Y-169254082D01*
X104495400Y-169073918D01*
X104530547Y-168897222D01*
X104599491Y-168730776D01*
X104699583Y-168580978D01*
X104826978Y-168453583D01*
X104976776Y-168353491D01*
X105143222Y-168284547D01*
X105319918Y-168249400D01*
X105500082Y-168249400D01*
X105676778Y-168284547D01*
G37*
G36*
X108216778Y-168284547D02*
G01*
X108383224Y-168353491D01*
X108533022Y-168453583D01*
X108660417Y-168580978D01*
X108760509Y-168730776D01*
X108829453Y-168897222D01*
X108864600Y-169073918D01*
X108864600Y-169254082D01*
X108829453Y-169430778D01*
X108760509Y-169597224D01*
X108660417Y-169747022D01*
X108533022Y-169874417D01*
X108383224Y-169974509D01*
X108216778Y-170043453D01*
X108040082Y-170078600D01*
X107859918Y-170078600D01*
X107683222Y-170043453D01*
X107516776Y-169974509D01*
X107366978Y-169874417D01*
X107239583Y-169747022D01*
X107139491Y-169597224D01*
X107070547Y-169430778D01*
X107035400Y-169254082D01*
X107035400Y-169073918D01*
X107070547Y-168897222D01*
X107139491Y-168730776D01*
X107239583Y-168580978D01*
X107366978Y-168453583D01*
X107516776Y-168353491D01*
X107683222Y-168284547D01*
X107859918Y-168249400D01*
X108040082Y-168249400D01*
X108216778Y-168284547D01*
G37*
G36*
X105676778Y-165744547D02*
G01*
X105843224Y-165813491D01*
X105993022Y-165913583D01*
X106120417Y-166040978D01*
X106220509Y-166190776D01*
X106289453Y-166357222D01*
X106324600Y-166533918D01*
X106324600Y-166714082D01*
X106289453Y-166890778D01*
X106220509Y-167057224D01*
X106120417Y-167207022D01*
X105993022Y-167334417D01*
X105843224Y-167434509D01*
X105676778Y-167503453D01*
X105500082Y-167538600D01*
X105319918Y-167538600D01*
X105143222Y-167503453D01*
X104976776Y-167434509D01*
X104826978Y-167334417D01*
X104699583Y-167207022D01*
X104599491Y-167057224D01*
X104530547Y-166890778D01*
X104495400Y-166714082D01*
X104495400Y-166533918D01*
X104530547Y-166357222D01*
X104599491Y-166190776D01*
X104699583Y-166040978D01*
X104826978Y-165913583D01*
X104976776Y-165813491D01*
X105143222Y-165744547D01*
X105319918Y-165709400D01*
X105500082Y-165709400D01*
X105676778Y-165744547D01*
G37*
G36*
X108864600Y-167538600D02*
G01*
X107035400Y-167538600D01*
X107035400Y-165709400D01*
X108864600Y-165709400D01*
X108864600Y-167538600D01*
G37*
G36*
X102356228Y-157423703D02*
G01*
X102511100Y-157487853D01*
X102650481Y-157580985D01*
X102769015Y-157699519D01*
X102862147Y-157838900D01*
X102926297Y-157993772D01*
X102959000Y-158158184D01*
X102959000Y-158325816D01*
X102926297Y-158490228D01*
X102862147Y-158645100D01*
X102769015Y-158784481D01*
X102650481Y-158903015D01*
X102511100Y-158996147D01*
X102356228Y-159060297D01*
X102191816Y-159093000D01*
X102024184Y-159093000D01*
X101859772Y-159060297D01*
X101704900Y-158996147D01*
X101565519Y-158903015D01*
X101446985Y-158784481D01*
X101353853Y-158645100D01*
X101289703Y-158490228D01*
X101257000Y-158325816D01*
X101257000Y-158158184D01*
X101289703Y-157993772D01*
X101353853Y-157838900D01*
X101446985Y-157699519D01*
X101565519Y-157580985D01*
X101704900Y-157487853D01*
X101859772Y-157423703D01*
X102024184Y-157391000D01*
X102191816Y-157391000D01*
X102356228Y-157423703D01*
G37*
G36*
X108125589Y-156238876D02*
G01*
X108224893Y-156258629D01*
X108365206Y-156316748D01*
X108491484Y-156401125D01*
X108598875Y-156508516D01*
X108683252Y-156634794D01*
X108741371Y-156775107D01*
X108771000Y-156924063D01*
X108771000Y-157075937D01*
X108741371Y-157224893D01*
X108683252Y-157365206D01*
X108598875Y-157491484D01*
X108491484Y-157598875D01*
X108365206Y-157683252D01*
X108224893Y-157741371D01*
X108125589Y-157761124D01*
X108075938Y-157771000D01*
X107924062Y-157771000D01*
X107874411Y-157761124D01*
X107775107Y-157741371D01*
X107634794Y-157683252D01*
X107508516Y-157598875D01*
X107401125Y-157491484D01*
X107316748Y-157365206D01*
X107258629Y-157224893D01*
X107229000Y-157075937D01*
X107229000Y-156924063D01*
X107258629Y-156775107D01*
X107316748Y-156634794D01*
X107401125Y-156508516D01*
X107508516Y-156401125D01*
X107634794Y-156316748D01*
X107775107Y-156258629D01*
X107874411Y-156238876D01*
X107924062Y-156229000D01*
X108075938Y-156229000D01*
X108125589Y-156238876D01*
G37*
G36*
X113205589Y-156238876D02*
G01*
X113304893Y-156258629D01*
X113445206Y-156316748D01*
X113571484Y-156401125D01*
X113678875Y-156508516D01*
X113763252Y-156634794D01*
X113821371Y-156775107D01*
X113851000Y-156924063D01*
X113851000Y-157075937D01*
X113821371Y-157224893D01*
X113763252Y-157365206D01*
X113678875Y-157491484D01*
X113571484Y-157598875D01*
X113445206Y-157683252D01*
X113304893Y-157741371D01*
X113205589Y-157761124D01*
X113155938Y-157771000D01*
X113004062Y-157771000D01*
X112954411Y-157761124D01*
X112855107Y-157741371D01*
X112714794Y-157683252D01*
X112588516Y-157598875D01*
X112481125Y-157491484D01*
X112396748Y-157365206D01*
X112338629Y-157224893D01*
X112309000Y-157075937D01*
X112309000Y-156924063D01*
X112338629Y-156775107D01*
X112396748Y-156634794D01*
X112481125Y-156508516D01*
X112588516Y-156401125D01*
X112714794Y-156316748D01*
X112855107Y-156258629D01*
X112954411Y-156238876D01*
X113004062Y-156229000D01*
X113155938Y-156229000D01*
X113205589Y-156238876D01*
G37*
G36*
X110665589Y-156238876D02*
G01*
X110764893Y-156258629D01*
X110905206Y-156316748D01*
X111031484Y-156401125D01*
X111138875Y-156508516D01*
X111223252Y-156634794D01*
X111281371Y-156775107D01*
X111311000Y-156924063D01*
X111311000Y-157075937D01*
X111281371Y-157224893D01*
X111223252Y-157365206D01*
X111138875Y-157491484D01*
X111031484Y-157598875D01*
X110905206Y-157683252D01*
X110764893Y-157741371D01*
X110665589Y-157761124D01*
X110615938Y-157771000D01*
X110464062Y-157771000D01*
X110414411Y-157761124D01*
X110315107Y-157741371D01*
X110174794Y-157683252D01*
X110048516Y-157598875D01*
X109941125Y-157491484D01*
X109856748Y-157365206D01*
X109798629Y-157224893D01*
X109769000Y-157075937D01*
X109769000Y-156924063D01*
X109798629Y-156775107D01*
X109856748Y-156634794D01*
X109941125Y-156508516D01*
X110048516Y-156401125D01*
X110174794Y-156316748D01*
X110315107Y-156258629D01*
X110414411Y-156238876D01*
X110464062Y-156229000D01*
X110615938Y-156229000D01*
X110665589Y-156238876D01*
G37*
G36*
X102356228Y-149803703D02*
G01*
X102511100Y-149867853D01*
X102650481Y-149960985D01*
X102769015Y-150079519D01*
X102862147Y-150218900D01*
X102926297Y-150373772D01*
X102959000Y-150538184D01*
X102959000Y-150705816D01*
X102926297Y-150870228D01*
X102862147Y-151025100D01*
X102769015Y-151164481D01*
X102650481Y-151283015D01*
X102511100Y-151376147D01*
X102356228Y-151440297D01*
X102191816Y-151473000D01*
X102024184Y-151473000D01*
X101859772Y-151440297D01*
X101704900Y-151376147D01*
X101565519Y-151283015D01*
X101446985Y-151164481D01*
X101353853Y-151025100D01*
X101289703Y-150870228D01*
X101257000Y-150705816D01*
X101257000Y-150538184D01*
X101289703Y-150373772D01*
X101353853Y-150218900D01*
X101446985Y-150079519D01*
X101565519Y-149960985D01*
X101704900Y-149867853D01*
X101859772Y-149803703D01*
X102024184Y-149771000D01*
X102191816Y-149771000D01*
X102356228Y-149803703D01*
G37*
G36*
X115310228Y-148025703D02*
G01*
X115465100Y-148089853D01*
X115604481Y-148182985D01*
X115723015Y-148301519D01*
X115816147Y-148440900D01*
X115880297Y-148595772D01*
X115913000Y-148760184D01*
X115913000Y-148927816D01*
X115880297Y-149092228D01*
X115816147Y-149247100D01*
X115723015Y-149386481D01*
X115604481Y-149505015D01*
X115465100Y-149598147D01*
X115310228Y-149662297D01*
X115145816Y-149695000D01*
X114978184Y-149695000D01*
X114813772Y-149662297D01*
X114658900Y-149598147D01*
X114519519Y-149505015D01*
X114400985Y-149386481D01*
X114307853Y-149247100D01*
X114243703Y-149092228D01*
X114211000Y-148927816D01*
X114211000Y-148760184D01*
X114243703Y-148595772D01*
X114307853Y-148440900D01*
X114400985Y-148301519D01*
X114519519Y-148182985D01*
X114658900Y-148089853D01*
X114813772Y-148025703D01*
X114978184Y-147993000D01*
X115145816Y-147993000D01*
X115310228Y-148025703D01*
G37*
G36*
X108293000Y-149695000D02*
G01*
X106591000Y-149695000D01*
X106591000Y-147993000D01*
X108293000Y-147993000D01*
X108293000Y-149695000D01*
G37*
G36*
X102356228Y-146755703D02*
G01*
X102511100Y-146819853D01*
X102650481Y-146912985D01*
X102769015Y-147031519D01*
X102862147Y-147170900D01*
X102926297Y-147325772D01*
X102959000Y-147490184D01*
X102959000Y-147657816D01*
X102926297Y-147822228D01*
X102862147Y-147977100D01*
X102769015Y-148116481D01*
X102650481Y-148235015D01*
X102511100Y-148328147D01*
X102356228Y-148392297D01*
X102191816Y-148425000D01*
X102024184Y-148425000D01*
X101859772Y-148392297D01*
X101704900Y-148328147D01*
X101565519Y-148235015D01*
X101446985Y-148116481D01*
X101353853Y-147977100D01*
X101289703Y-147822228D01*
X101257000Y-147657816D01*
X101257000Y-147490184D01*
X101289703Y-147325772D01*
X101353853Y-147170900D01*
X101446985Y-147031519D01*
X101565519Y-146912985D01*
X101704900Y-146819853D01*
X101859772Y-146755703D01*
X102024184Y-146723000D01*
X102191816Y-146723000D01*
X102356228Y-146755703D01*
G37*
G36*
X107690228Y-145485703D02*
G01*
X107845100Y-145549853D01*
X107984481Y-145642985D01*
X108103015Y-145761519D01*
X108196147Y-145900900D01*
X108260297Y-146055772D01*
X108293000Y-146220184D01*
X108293000Y-146387816D01*
X108260297Y-146552228D01*
X108196147Y-146707100D01*
X108103015Y-146846481D01*
X107984481Y-146965015D01*
X107845100Y-147058147D01*
X107690228Y-147122297D01*
X107525816Y-147155000D01*
X107358184Y-147155000D01*
X107193772Y-147122297D01*
X107038900Y-147058147D01*
X106899519Y-146965015D01*
X106780985Y-146846481D01*
X106687853Y-146707100D01*
X106623703Y-146552228D01*
X106591000Y-146387816D01*
X106591000Y-146220184D01*
X106623703Y-146055772D01*
X106687853Y-145900900D01*
X106780985Y-145761519D01*
X106899519Y-145642985D01*
X107038900Y-145549853D01*
X107193772Y-145485703D01*
X107358184Y-145453000D01*
X107525816Y-145453000D01*
X107690228Y-145485703D01*
G37*
G36*
X115310228Y-145485703D02*
G01*
X115465100Y-145549853D01*
X115604481Y-145642985D01*
X115723015Y-145761519D01*
X115816147Y-145900900D01*
X115880297Y-146055772D01*
X115913000Y-146220184D01*
X115913000Y-146387816D01*
X115880297Y-146552228D01*
X115816147Y-146707100D01*
X115723015Y-146846481D01*
X115604481Y-146965015D01*
X115465100Y-147058147D01*
X115310228Y-147122297D01*
X115145816Y-147155000D01*
X114978184Y-147155000D01*
X114813772Y-147122297D01*
X114658900Y-147058147D01*
X114519519Y-146965015D01*
X114400985Y-146846481D01*
X114307853Y-146707100D01*
X114243703Y-146552228D01*
X114211000Y-146387816D01*
X114211000Y-146220184D01*
X114243703Y-146055772D01*
X114307853Y-145900900D01*
X114400985Y-145761519D01*
X114519519Y-145642985D01*
X114658900Y-145549853D01*
X114813772Y-145485703D01*
X114978184Y-145453000D01*
X115145816Y-145453000D01*
X115310228Y-145485703D01*
G37*
G36*
X115310228Y-142945703D02*
G01*
X115465100Y-143009853D01*
X115604481Y-143102985D01*
X115723015Y-143221519D01*
X115816147Y-143360900D01*
X115880297Y-143515772D01*
X115913000Y-143680184D01*
X115913000Y-143847816D01*
X115880297Y-144012228D01*
X115816147Y-144167100D01*
X115723015Y-144306481D01*
X115604481Y-144425015D01*
X115465100Y-144518147D01*
X115310228Y-144582297D01*
X115145816Y-144615000D01*
X114978184Y-144615000D01*
X114813772Y-144582297D01*
X114658900Y-144518147D01*
X114519519Y-144425015D01*
X114400985Y-144306481D01*
X114307853Y-144167100D01*
X114243703Y-144012228D01*
X114211000Y-143847816D01*
X114211000Y-143680184D01*
X114243703Y-143515772D01*
X114307853Y-143360900D01*
X114400985Y-143221519D01*
X114519519Y-143102985D01*
X114658900Y-143009853D01*
X114813772Y-142945703D01*
X114978184Y-142913000D01*
X115145816Y-142913000D01*
X115310228Y-142945703D01*
G37*
G36*
X107690228Y-142945703D02*
G01*
X107845100Y-143009853D01*
X107984481Y-143102985D01*
X108103015Y-143221519D01*
X108196147Y-143360900D01*
X108260297Y-143515772D01*
X108293000Y-143680184D01*
X108293000Y-143847816D01*
X108260297Y-144012228D01*
X108196147Y-144167100D01*
X108103015Y-144306481D01*
X107984481Y-144425015D01*
X107845100Y-144518147D01*
X107690228Y-144582297D01*
X107525816Y-144615000D01*
X107358184Y-144615000D01*
X107193772Y-144582297D01*
X107038900Y-144518147D01*
X106899519Y-144425015D01*
X106780985Y-144306481D01*
X106687853Y-144167100D01*
X106623703Y-144012228D01*
X106591000Y-143847816D01*
X106591000Y-143680184D01*
X106623703Y-143515772D01*
X106687853Y-143360900D01*
X106780985Y-143221519D01*
X106899519Y-143102985D01*
X107038900Y-143009853D01*
X107193772Y-142945703D01*
X107358184Y-142913000D01*
X107525816Y-142913000D01*
X107690228Y-142945703D01*
G37*
G36*
X115310228Y-140405703D02*
G01*
X115465100Y-140469853D01*
X115604481Y-140562985D01*
X115723015Y-140681519D01*
X115816147Y-140820900D01*
X115880297Y-140975772D01*
X115913000Y-141140184D01*
X115913000Y-141307816D01*
X115880297Y-141472228D01*
X115816147Y-141627100D01*
X115723015Y-141766481D01*
X115604481Y-141885015D01*
X115465100Y-141978147D01*
X115310228Y-142042297D01*
X115145816Y-142075000D01*
X114978184Y-142075000D01*
X114813772Y-142042297D01*
X114658900Y-141978147D01*
X114519519Y-141885015D01*
X114400985Y-141766481D01*
X114307853Y-141627100D01*
X114243703Y-141472228D01*
X114211000Y-141307816D01*
X114211000Y-141140184D01*
X114243703Y-140975772D01*
X114307853Y-140820900D01*
X114400985Y-140681519D01*
X114519519Y-140562985D01*
X114658900Y-140469853D01*
X114813772Y-140405703D01*
X114978184Y-140373000D01*
X115145816Y-140373000D01*
X115310228Y-140405703D01*
G37*
G36*
X107690228Y-140405703D02*
G01*
X107845100Y-140469853D01*
X107984481Y-140562985D01*
X108103015Y-140681519D01*
X108196147Y-140820900D01*
X108260297Y-140975772D01*
X108293000Y-141140184D01*
X108293000Y-141307816D01*
X108260297Y-141472228D01*
X108196147Y-141627100D01*
X108103015Y-141766481D01*
X107984481Y-141885015D01*
X107845100Y-141978147D01*
X107690228Y-142042297D01*
X107525816Y-142075000D01*
X107358184Y-142075000D01*
X107193772Y-142042297D01*
X107038900Y-141978147D01*
X106899519Y-141885015D01*
X106780985Y-141766481D01*
X106687853Y-141627100D01*
X106623703Y-141472228D01*
X106591000Y-141307816D01*
X106591000Y-141140184D01*
X106623703Y-140975772D01*
X106687853Y-140820900D01*
X106780985Y-140681519D01*
X106899519Y-140562985D01*
X107038900Y-140469853D01*
X107193772Y-140405703D01*
X107358184Y-140373000D01*
X107525816Y-140373000D01*
X107690228Y-140405703D01*
G37*
G36*
X102356228Y-139135703D02*
G01*
X102511100Y-139199853D01*
X102650481Y-139292985D01*
X102769015Y-139411519D01*
X102862147Y-139550900D01*
X102926297Y-139705772D01*
X102959000Y-139870184D01*
X102959000Y-140037816D01*
X102926297Y-140202228D01*
X102862147Y-140357100D01*
X102769015Y-140496481D01*
X102650481Y-140615015D01*
X102511100Y-140708147D01*
X102356228Y-140772297D01*
X102191816Y-140805000D01*
X102024184Y-140805000D01*
X101859772Y-140772297D01*
X101704900Y-140708147D01*
X101565519Y-140615015D01*
X101446985Y-140496481D01*
X101353853Y-140357100D01*
X101289703Y-140202228D01*
X101257000Y-140037816D01*
X101257000Y-139870184D01*
X101289703Y-139705772D01*
X101353853Y-139550900D01*
X101446985Y-139411519D01*
X101565519Y-139292985D01*
X101704900Y-139199853D01*
X101859772Y-139135703D01*
X102024184Y-139103000D01*
X102191816Y-139103000D01*
X102356228Y-139135703D01*
G37*
G36*
X107690228Y-137865703D02*
G01*
X107845100Y-137929853D01*
X107984481Y-138022985D01*
X108103015Y-138141519D01*
X108196147Y-138280900D01*
X108260297Y-138435772D01*
X108293000Y-138600184D01*
X108293000Y-138767816D01*
X108260297Y-138932228D01*
X108196147Y-139087100D01*
X108103015Y-139226481D01*
X107984481Y-139345015D01*
X107845100Y-139438147D01*
X107690228Y-139502297D01*
X107525816Y-139535000D01*
X107358184Y-139535000D01*
X107193772Y-139502297D01*
X107038900Y-139438147D01*
X106899519Y-139345015D01*
X106780985Y-139226481D01*
X106687853Y-139087100D01*
X106623703Y-138932228D01*
X106591000Y-138767816D01*
X106591000Y-138600184D01*
X106623703Y-138435772D01*
X106687853Y-138280900D01*
X106780985Y-138141519D01*
X106899519Y-138022985D01*
X107038900Y-137929853D01*
X107193772Y-137865703D01*
X107358184Y-137833000D01*
X107525816Y-137833000D01*
X107690228Y-137865703D01*
G37*
G36*
X115310228Y-137865703D02*
G01*
X115465100Y-137929853D01*
X115604481Y-138022985D01*
X115723015Y-138141519D01*
X115816147Y-138280900D01*
X115880297Y-138435772D01*
X115913000Y-138600184D01*
X115913000Y-138767816D01*
X115880297Y-138932228D01*
X115816147Y-139087100D01*
X115723015Y-139226481D01*
X115604481Y-139345015D01*
X115465100Y-139438147D01*
X115310228Y-139502297D01*
X115145816Y-139535000D01*
X114978184Y-139535000D01*
X114813772Y-139502297D01*
X114658900Y-139438147D01*
X114519519Y-139345015D01*
X114400985Y-139226481D01*
X114307853Y-139087100D01*
X114243703Y-138932228D01*
X114211000Y-138767816D01*
X114211000Y-138600184D01*
X114243703Y-138435772D01*
X114307853Y-138280900D01*
X114400985Y-138141519D01*
X114519519Y-138022985D01*
X114658900Y-137929853D01*
X114813772Y-137865703D01*
X114978184Y-137833000D01*
X115145816Y-137833000D01*
X115310228Y-137865703D01*
G37*
G36*
X102356228Y-135579703D02*
G01*
X102511100Y-135643853D01*
X102650481Y-135736985D01*
X102769015Y-135855519D01*
X102862147Y-135994900D01*
X102926297Y-136149772D01*
X102959000Y-136314184D01*
X102959000Y-136481816D01*
X102926297Y-136646228D01*
X102862147Y-136801100D01*
X102769015Y-136940481D01*
X102650481Y-137059015D01*
X102511100Y-137152147D01*
X102356228Y-137216297D01*
X102191816Y-137249000D01*
X102024184Y-137249000D01*
X101859772Y-137216297D01*
X101704900Y-137152147D01*
X101565519Y-137059015D01*
X101446985Y-136940481D01*
X101353853Y-136801100D01*
X101289703Y-136646228D01*
X101257000Y-136481816D01*
X101257000Y-136314184D01*
X101289703Y-136149772D01*
X101353853Y-135994900D01*
X101446985Y-135855519D01*
X101565519Y-135736985D01*
X101704900Y-135643853D01*
X101859772Y-135579703D01*
X102024184Y-135547000D01*
X102191816Y-135547000D01*
X102356228Y-135579703D01*
G37*
G36*
X107690228Y-135325703D02*
G01*
X107845100Y-135389853D01*
X107984481Y-135482985D01*
X108103015Y-135601519D01*
X108196147Y-135740900D01*
X108260297Y-135895772D01*
X108293000Y-136060184D01*
X108293000Y-136227816D01*
X108260297Y-136392228D01*
X108196147Y-136547100D01*
X108103015Y-136686481D01*
X107984481Y-136805015D01*
X107845100Y-136898147D01*
X107690228Y-136962297D01*
X107525816Y-136995000D01*
X107358184Y-136995000D01*
X107193772Y-136962297D01*
X107038900Y-136898147D01*
X106899519Y-136805015D01*
X106780985Y-136686481D01*
X106687853Y-136547100D01*
X106623703Y-136392228D01*
X106591000Y-136227816D01*
X106591000Y-136060184D01*
X106623703Y-135895772D01*
X106687853Y-135740900D01*
X106780985Y-135601519D01*
X106899519Y-135482985D01*
X107038900Y-135389853D01*
X107193772Y-135325703D01*
X107358184Y-135293000D01*
X107525816Y-135293000D01*
X107690228Y-135325703D01*
G37*
G36*
X115310228Y-135325703D02*
G01*
X115465100Y-135389853D01*
X115604481Y-135482985D01*
X115723015Y-135601519D01*
X115816147Y-135740900D01*
X115880297Y-135895772D01*
X115913000Y-136060184D01*
X115913000Y-136227816D01*
X115880297Y-136392228D01*
X115816147Y-136547100D01*
X115723015Y-136686481D01*
X115604481Y-136805015D01*
X115465100Y-136898147D01*
X115310228Y-136962297D01*
X115145816Y-136995000D01*
X114978184Y-136995000D01*
X114813772Y-136962297D01*
X114658900Y-136898147D01*
X114519519Y-136805015D01*
X114400985Y-136686481D01*
X114307853Y-136547100D01*
X114243703Y-136392228D01*
X114211000Y-136227816D01*
X114211000Y-136060184D01*
X114243703Y-135895772D01*
X114307853Y-135740900D01*
X114400985Y-135601519D01*
X114519519Y-135482985D01*
X114658900Y-135389853D01*
X114813772Y-135325703D01*
X114978184Y-135293000D01*
X115145816Y-135293000D01*
X115310228Y-135325703D01*
G37*
G36*
X115310228Y-132785703D02*
G01*
X115465100Y-132849853D01*
X115604481Y-132942985D01*
X115723015Y-133061519D01*
X115816147Y-133200900D01*
X115880297Y-133355772D01*
X115913000Y-133520184D01*
X115913000Y-133687816D01*
X115880297Y-133852228D01*
X115816147Y-134007100D01*
X115723015Y-134146481D01*
X115604481Y-134265015D01*
X115465100Y-134358147D01*
X115310228Y-134422297D01*
X115145816Y-134455000D01*
X114978184Y-134455000D01*
X114813772Y-134422297D01*
X114658900Y-134358147D01*
X114519519Y-134265015D01*
X114400985Y-134146481D01*
X114307853Y-134007100D01*
X114243703Y-133852228D01*
X114211000Y-133687816D01*
X114211000Y-133520184D01*
X114243703Y-133355772D01*
X114307853Y-133200900D01*
X114400985Y-133061519D01*
X114519519Y-132942985D01*
X114658900Y-132849853D01*
X114813772Y-132785703D01*
X114978184Y-132753000D01*
X115145816Y-132753000D01*
X115310228Y-132785703D01*
G37*
G36*
X107690228Y-132785703D02*
G01*
X107845100Y-132849853D01*
X107984481Y-132942985D01*
X108103015Y-133061519D01*
X108196147Y-133200900D01*
X108260297Y-133355772D01*
X108293000Y-133520184D01*
X108293000Y-133687816D01*
X108260297Y-133852228D01*
X108196147Y-134007100D01*
X108103015Y-134146481D01*
X107984481Y-134265015D01*
X107845100Y-134358147D01*
X107690228Y-134422297D01*
X107525816Y-134455000D01*
X107358184Y-134455000D01*
X107193772Y-134422297D01*
X107038900Y-134358147D01*
X106899519Y-134265015D01*
X106780985Y-134146481D01*
X106687853Y-134007100D01*
X106623703Y-133852228D01*
X106591000Y-133687816D01*
X106591000Y-133520184D01*
X106623703Y-133355772D01*
X106687853Y-133200900D01*
X106780985Y-133061519D01*
X106899519Y-132942985D01*
X107038900Y-132849853D01*
X107193772Y-132785703D01*
X107358184Y-132753000D01*
X107525816Y-132753000D01*
X107690228Y-132785703D01*
G37*
G36*
X102356228Y-127959703D02*
G01*
X102511100Y-128023853D01*
X102650481Y-128116985D01*
X102769015Y-128235519D01*
X102862147Y-128374900D01*
X102926297Y-128529772D01*
X102959000Y-128694184D01*
X102959000Y-128861816D01*
X102926297Y-129026228D01*
X102862147Y-129181100D01*
X102769015Y-129320481D01*
X102650481Y-129439015D01*
X102511100Y-129532147D01*
X102356228Y-129596297D01*
X102191816Y-129629000D01*
X102024184Y-129629000D01*
X101859772Y-129596297D01*
X101704900Y-129532147D01*
X101565519Y-129439015D01*
X101446985Y-129320481D01*
X101353853Y-129181100D01*
X101289703Y-129026228D01*
X101257000Y-128861816D01*
X101257000Y-128694184D01*
X101289703Y-128529772D01*
X101353853Y-128374900D01*
X101446985Y-128235519D01*
X101565519Y-128116985D01*
X101704900Y-128023853D01*
X101859772Y-127959703D01*
X102024184Y-127927000D01*
X102191816Y-127927000D01*
X102356228Y-127959703D01*
G37*
G36*
X102356228Y-125419703D02*
G01*
X102511100Y-125483853D01*
X102650481Y-125576985D01*
X102769015Y-125695519D01*
X102862147Y-125834900D01*
X102926297Y-125989772D01*
X102959000Y-126154184D01*
X102959000Y-126321816D01*
X102926297Y-126486228D01*
X102862147Y-126641100D01*
X102769015Y-126780481D01*
X102650481Y-126899015D01*
X102511100Y-126992147D01*
X102356228Y-127056297D01*
X102191816Y-127089000D01*
X102024184Y-127089000D01*
X101859772Y-127056297D01*
X101704900Y-126992147D01*
X101565519Y-126899015D01*
X101446985Y-126780481D01*
X101353853Y-126641100D01*
X101289703Y-126486228D01*
X101257000Y-126321816D01*
X101257000Y-126154184D01*
X101289703Y-125989772D01*
X101353853Y-125834900D01*
X101446985Y-125695519D01*
X101565519Y-125576985D01*
X101704900Y-125483853D01*
X101859772Y-125419703D01*
X102024184Y-125387000D01*
X102191816Y-125387000D01*
X102356228Y-125419703D01*
G37*
G36*
X110095512Y-124103927D02*
G01*
X110244812Y-124133624D01*
X110408784Y-124201544D01*
X110556354Y-124300147D01*
X110681853Y-124425646D01*
X110780456Y-124573216D01*
X110848376Y-124737188D01*
X110883000Y-124911259D01*
X110883000Y-125088741D01*
X110848376Y-125262812D01*
X110780456Y-125426784D01*
X110681853Y-125574354D01*
X110556354Y-125699853D01*
X110408784Y-125798456D01*
X110244812Y-125866376D01*
X110095512Y-125896073D01*
X110070742Y-125901000D01*
X109893258Y-125901000D01*
X109868488Y-125896073D01*
X109719188Y-125866376D01*
X109555216Y-125798456D01*
X109407646Y-125699853D01*
X109282147Y-125574354D01*
X109183544Y-125426784D01*
X109115624Y-125262812D01*
X109081000Y-125088741D01*
X109081000Y-124911259D01*
X109115624Y-124737188D01*
X109183544Y-124573216D01*
X109282147Y-124425646D01*
X109407646Y-124300147D01*
X109555216Y-124201544D01*
X109719188Y-124133624D01*
X109868488Y-124103927D01*
X109893258Y-124099000D01*
X110070742Y-124099000D01*
X110095512Y-124103927D01*
G37*
G36*
X108343000Y-125901000D02*
G01*
X106541000Y-125901000D01*
X106541000Y-124099000D01*
X108343000Y-124099000D01*
X108343000Y-125901000D01*
G37*
G36*
X112635512Y-124103927D02*
G01*
X112784812Y-124133624D01*
X112948784Y-124201544D01*
X113096354Y-124300147D01*
X113221853Y-124425646D01*
X113320456Y-124573216D01*
X113388376Y-124737188D01*
X113423000Y-124911259D01*
X113423000Y-125088741D01*
X113388376Y-125262812D01*
X113320456Y-125426784D01*
X113221853Y-125574354D01*
X113096354Y-125699853D01*
X112948784Y-125798456D01*
X112784812Y-125866376D01*
X112635512Y-125896073D01*
X112610742Y-125901000D01*
X112433258Y-125901000D01*
X112408488Y-125896073D01*
X112259188Y-125866376D01*
X112095216Y-125798456D01*
X111947646Y-125699853D01*
X111822147Y-125574354D01*
X111723544Y-125426784D01*
X111655624Y-125262812D01*
X111621000Y-125088741D01*
X111621000Y-124911259D01*
X111655624Y-124737188D01*
X111723544Y-124573216D01*
X111822147Y-124425646D01*
X111947646Y-124300147D01*
X112095216Y-124201544D01*
X112259188Y-124133624D01*
X112408488Y-124103927D01*
X112433258Y-124099000D01*
X112610742Y-124099000D01*
X112635512Y-124103927D01*
G37*
G36*
X102356228Y-117799703D02*
G01*
X102511100Y-117863853D01*
X102650481Y-117956985D01*
X102769015Y-118075519D01*
X102862147Y-118214900D01*
X102926297Y-118369772D01*
X102959000Y-118534184D01*
X102959000Y-118701816D01*
X102926297Y-118866228D01*
X102862147Y-119021100D01*
X102769015Y-119160481D01*
X102650481Y-119279015D01*
X102511100Y-119372147D01*
X102356228Y-119436297D01*
X102191816Y-119469000D01*
X102024184Y-119469000D01*
X101859772Y-119436297D01*
X101704900Y-119372147D01*
X101565519Y-119279015D01*
X101446985Y-119160481D01*
X101353853Y-119021100D01*
X101289703Y-118866228D01*
X101257000Y-118701816D01*
X101257000Y-118534184D01*
X101289703Y-118369772D01*
X101353853Y-118214900D01*
X101446985Y-118075519D01*
X101565519Y-117956985D01*
X101704900Y-117863853D01*
X101859772Y-117799703D01*
X102024184Y-117767000D01*
X102191816Y-117767000D01*
X102356228Y-117799703D01*
G37*
G36*
X116580228Y-117037703D02*
G01*
X116735100Y-117101853D01*
X116874481Y-117194985D01*
X116993015Y-117313519D01*
X117086147Y-117452900D01*
X117150297Y-117607772D01*
X117183000Y-117772184D01*
X117183000Y-117939816D01*
X117150297Y-118104228D01*
X117086147Y-118259100D01*
X116993015Y-118398481D01*
X116874481Y-118517015D01*
X116735100Y-118610147D01*
X116580228Y-118674297D01*
X116415816Y-118707000D01*
X116248184Y-118707000D01*
X116083772Y-118674297D01*
X115928900Y-118610147D01*
X115789519Y-118517015D01*
X115670985Y-118398481D01*
X115577853Y-118259100D01*
X115513703Y-118104228D01*
X115481000Y-117939816D01*
X115481000Y-117772184D01*
X115513703Y-117607772D01*
X115577853Y-117452900D01*
X115670985Y-117313519D01*
X115789519Y-117194985D01*
X115928900Y-117101853D01*
X116083772Y-117037703D01*
X116248184Y-117005000D01*
X116415816Y-117005000D01*
X116580228Y-117037703D01*
G37*
G36*
X109563000Y-118707000D02*
G01*
X107861000Y-118707000D01*
X107861000Y-117005000D01*
X109563000Y-117005000D01*
X109563000Y-118707000D01*
G37*
G36*
X102102228Y-114711703D02*
G01*
X102257100Y-114775853D01*
X102396481Y-114868985D01*
X102515015Y-114987519D01*
X102608147Y-115126900D01*
X102672297Y-115281772D01*
X102705000Y-115446184D01*
X102705000Y-115613816D01*
X102672297Y-115778228D01*
X102608147Y-115933100D01*
X102515015Y-116072481D01*
X102396481Y-116191015D01*
X102257100Y-116284147D01*
X102102228Y-116348297D01*
X101937816Y-116381000D01*
X101770184Y-116381000D01*
X101605772Y-116348297D01*
X101450900Y-116284147D01*
X101311519Y-116191015D01*
X101192985Y-116072481D01*
X101099853Y-115933100D01*
X101035703Y-115778228D01*
X101003000Y-115613816D01*
X101003000Y-115446184D01*
X101035703Y-115281772D01*
X101099853Y-115126900D01*
X101192985Y-114987519D01*
X101311519Y-114868985D01*
X101450900Y-114775853D01*
X101605772Y-114711703D01*
X101770184Y-114679000D01*
X101937816Y-114679000D01*
X102102228Y-114711703D01*
G37*
G36*
X116580228Y-114497703D02*
G01*
X116735100Y-114561853D01*
X116874481Y-114654985D01*
X116993015Y-114773519D01*
X117086147Y-114912900D01*
X117150297Y-115067772D01*
X117183000Y-115232184D01*
X117183000Y-115399816D01*
X117150297Y-115564228D01*
X117086147Y-115719100D01*
X116993015Y-115858481D01*
X116874481Y-115977015D01*
X116735100Y-116070147D01*
X116580228Y-116134297D01*
X116415816Y-116167000D01*
X116248184Y-116167000D01*
X116083772Y-116134297D01*
X115928900Y-116070147D01*
X115789519Y-115977015D01*
X115670985Y-115858481D01*
X115577853Y-115719100D01*
X115513703Y-115564228D01*
X115481000Y-115399816D01*
X115481000Y-115232184D01*
X115513703Y-115067772D01*
X115577853Y-114912900D01*
X115670985Y-114773519D01*
X115789519Y-114654985D01*
X115928900Y-114561853D01*
X116083772Y-114497703D01*
X116248184Y-114465000D01*
X116415816Y-114465000D01*
X116580228Y-114497703D01*
G37*
G36*
X108960228Y-114497703D02*
G01*
X109115100Y-114561853D01*
X109254481Y-114654985D01*
X109373015Y-114773519D01*
X109466147Y-114912900D01*
X109530297Y-115067772D01*
X109563000Y-115232184D01*
X109563000Y-115399816D01*
X109530297Y-115564228D01*
X109466147Y-115719100D01*
X109373015Y-115858481D01*
X109254481Y-115977015D01*
X109115100Y-116070147D01*
X108960228Y-116134297D01*
X108795816Y-116167000D01*
X108628184Y-116167000D01*
X108463772Y-116134297D01*
X108308900Y-116070147D01*
X108169519Y-115977015D01*
X108050985Y-115858481D01*
X107957853Y-115719100D01*
X107893703Y-115564228D01*
X107861000Y-115399816D01*
X107861000Y-115232184D01*
X107893703Y-115067772D01*
X107957853Y-114912900D01*
X108050985Y-114773519D01*
X108169519Y-114654985D01*
X108308900Y-114561853D01*
X108463772Y-114497703D01*
X108628184Y-114465000D01*
X108795816Y-114465000D01*
X108960228Y-114497703D01*
G37*
G36*
X102102228Y-112211703D02*
G01*
X102257100Y-112275853D01*
X102396481Y-112368985D01*
X102515015Y-112487519D01*
X102608147Y-112626900D01*
X102672297Y-112781772D01*
X102705000Y-112946184D01*
X102705000Y-113113816D01*
X102672297Y-113278228D01*
X102608147Y-113433100D01*
X102515015Y-113572481D01*
X102396481Y-113691015D01*
X102257100Y-113784147D01*
X102102228Y-113848297D01*
X101937816Y-113881000D01*
X101770184Y-113881000D01*
X101605772Y-113848297D01*
X101450900Y-113784147D01*
X101311519Y-113691015D01*
X101192985Y-113572481D01*
X101099853Y-113433100D01*
X101035703Y-113278228D01*
X101003000Y-113113816D01*
X101003000Y-112946184D01*
X101035703Y-112781772D01*
X101099853Y-112626900D01*
X101192985Y-112487519D01*
X101311519Y-112368985D01*
X101450900Y-112275853D01*
X101605772Y-112211703D01*
X101770184Y-112179000D01*
X101937816Y-112179000D01*
X102102228Y-112211703D01*
G37*
G36*
X116580228Y-111957703D02*
G01*
X116735100Y-112021853D01*
X116874481Y-112114985D01*
X116993015Y-112233519D01*
X117086147Y-112372900D01*
X117150297Y-112527772D01*
X117183000Y-112692184D01*
X117183000Y-112859816D01*
X117150297Y-113024228D01*
X117086147Y-113179100D01*
X116993015Y-113318481D01*
X116874481Y-113437015D01*
X116735100Y-113530147D01*
X116580228Y-113594297D01*
X116415816Y-113627000D01*
X116248184Y-113627000D01*
X116083772Y-113594297D01*
X115928900Y-113530147D01*
X115789519Y-113437015D01*
X115670985Y-113318481D01*
X115577853Y-113179100D01*
X115513703Y-113024228D01*
X115481000Y-112859816D01*
X115481000Y-112692184D01*
X115513703Y-112527772D01*
X115577853Y-112372900D01*
X115670985Y-112233519D01*
X115789519Y-112114985D01*
X115928900Y-112021853D01*
X116083772Y-111957703D01*
X116248184Y-111925000D01*
X116415816Y-111925000D01*
X116580228Y-111957703D01*
G37*
G36*
X108960228Y-111957703D02*
G01*
X109115100Y-112021853D01*
X109254481Y-112114985D01*
X109373015Y-112233519D01*
X109466147Y-112372900D01*
X109530297Y-112527772D01*
X109563000Y-112692184D01*
X109563000Y-112859816D01*
X109530297Y-113024228D01*
X109466147Y-113179100D01*
X109373015Y-113318481D01*
X109254481Y-113437015D01*
X109115100Y-113530147D01*
X108960228Y-113594297D01*
X108795816Y-113627000D01*
X108628184Y-113627000D01*
X108463772Y-113594297D01*
X108308900Y-113530147D01*
X108169519Y-113437015D01*
X108050985Y-113318481D01*
X107957853Y-113179100D01*
X107893703Y-113024228D01*
X107861000Y-112859816D01*
X107861000Y-112692184D01*
X107893703Y-112527772D01*
X107957853Y-112372900D01*
X108050985Y-112233519D01*
X108169519Y-112114985D01*
X108308900Y-112021853D01*
X108463772Y-111957703D01*
X108628184Y-111925000D01*
X108795816Y-111925000D01*
X108960228Y-111957703D01*
G37*
G36*
X116580228Y-109417703D02*
G01*
X116735100Y-109481853D01*
X116874481Y-109574985D01*
X116993015Y-109693519D01*
X117086147Y-109832900D01*
X117150297Y-109987772D01*
X117183000Y-110152184D01*
X117183000Y-110319816D01*
X117150297Y-110484228D01*
X117086147Y-110639100D01*
X116993015Y-110778481D01*
X116874481Y-110897015D01*
X116735100Y-110990147D01*
X116580228Y-111054297D01*
X116415816Y-111087000D01*
X116248184Y-111087000D01*
X116083772Y-111054297D01*
X115928900Y-110990147D01*
X115789519Y-110897015D01*
X115670985Y-110778481D01*
X115577853Y-110639100D01*
X115513703Y-110484228D01*
X115481000Y-110319816D01*
X115481000Y-110152184D01*
X115513703Y-109987772D01*
X115577853Y-109832900D01*
X115670985Y-109693519D01*
X115789519Y-109574985D01*
X115928900Y-109481853D01*
X116083772Y-109417703D01*
X116248184Y-109385000D01*
X116415816Y-109385000D01*
X116580228Y-109417703D01*
G37*
G36*
X108960228Y-109417703D02*
G01*
X109115100Y-109481853D01*
X109254481Y-109574985D01*
X109373015Y-109693519D01*
X109466147Y-109832900D01*
X109530297Y-109987772D01*
X109563000Y-110152184D01*
X109563000Y-110319816D01*
X109530297Y-110484228D01*
X109466147Y-110639100D01*
X109373015Y-110778481D01*
X109254481Y-110897015D01*
X109115100Y-110990147D01*
X108960228Y-111054297D01*
X108795816Y-111087000D01*
X108628184Y-111087000D01*
X108463772Y-111054297D01*
X108308900Y-110990147D01*
X108169519Y-110897015D01*
X108050985Y-110778481D01*
X107957853Y-110639100D01*
X107893703Y-110484228D01*
X107861000Y-110319816D01*
X107861000Y-110152184D01*
X107893703Y-109987772D01*
X107957853Y-109832900D01*
X108050985Y-109693519D01*
X108169519Y-109574985D01*
X108308900Y-109481853D01*
X108463772Y-109417703D01*
X108628184Y-109385000D01*
X108795816Y-109385000D01*
X108960228Y-109417703D01*
G37*
G36*
X102356228Y-109163703D02*
G01*
X102511100Y-109227853D01*
X102650481Y-109320985D01*
X102769015Y-109439519D01*
X102862147Y-109578900D01*
X102926297Y-109733772D01*
X102959000Y-109898184D01*
X102959000Y-110065816D01*
X102926297Y-110230228D01*
X102862147Y-110385100D01*
X102769015Y-110524481D01*
X102650481Y-110643015D01*
X102511100Y-110736147D01*
X102356228Y-110800297D01*
X102191816Y-110833000D01*
X102024184Y-110833000D01*
X101859772Y-110800297D01*
X101704900Y-110736147D01*
X101565519Y-110643015D01*
X101446985Y-110524481D01*
X101353853Y-110385100D01*
X101289703Y-110230228D01*
X101257000Y-110065816D01*
X101257000Y-109898184D01*
X101289703Y-109733772D01*
X101353853Y-109578900D01*
X101446985Y-109439519D01*
X101565519Y-109320985D01*
X101704900Y-109227853D01*
X101859772Y-109163703D01*
X102024184Y-109131000D01*
X102191816Y-109131000D01*
X102356228Y-109163703D01*
G37*
G36*
X116580228Y-106877703D02*
G01*
X116735100Y-106941853D01*
X116874481Y-107034985D01*
X116993015Y-107153519D01*
X117086147Y-107292900D01*
X117150297Y-107447772D01*
X117183000Y-107612184D01*
X117183000Y-107779816D01*
X117150297Y-107944228D01*
X117086147Y-108099100D01*
X116993015Y-108238481D01*
X116874481Y-108357015D01*
X116735100Y-108450147D01*
X116580228Y-108514297D01*
X116415816Y-108547000D01*
X116248184Y-108547000D01*
X116083772Y-108514297D01*
X115928900Y-108450147D01*
X115789519Y-108357015D01*
X115670985Y-108238481D01*
X115577853Y-108099100D01*
X115513703Y-107944228D01*
X115481000Y-107779816D01*
X115481000Y-107612184D01*
X115513703Y-107447772D01*
X115577853Y-107292900D01*
X115670985Y-107153519D01*
X115789519Y-107034985D01*
X115928900Y-106941853D01*
X116083772Y-106877703D01*
X116248184Y-106845000D01*
X116415816Y-106845000D01*
X116580228Y-106877703D01*
G37*
G36*
X108960228Y-106877703D02*
G01*
X109115100Y-106941853D01*
X109254481Y-107034985D01*
X109373015Y-107153519D01*
X109466147Y-107292900D01*
X109530297Y-107447772D01*
X109563000Y-107612184D01*
X109563000Y-107779816D01*
X109530297Y-107944228D01*
X109466147Y-108099100D01*
X109373015Y-108238481D01*
X109254481Y-108357015D01*
X109115100Y-108450147D01*
X108960228Y-108514297D01*
X108795816Y-108547000D01*
X108628184Y-108547000D01*
X108463772Y-108514297D01*
X108308900Y-108450147D01*
X108169519Y-108357015D01*
X108050985Y-108238481D01*
X107957853Y-108099100D01*
X107893703Y-107944228D01*
X107861000Y-107779816D01*
X107861000Y-107612184D01*
X107893703Y-107447772D01*
X107957853Y-107292900D01*
X108050985Y-107153519D01*
X108169519Y-107034985D01*
X108308900Y-106941853D01*
X108463772Y-106877703D01*
X108628184Y-106845000D01*
X108795816Y-106845000D01*
X108960228Y-106877703D01*
G37*
G36*
X116580228Y-104337703D02*
G01*
X116735100Y-104401853D01*
X116874481Y-104494985D01*
X116993015Y-104613519D01*
X117086147Y-104752900D01*
X117150297Y-104907772D01*
X117183000Y-105072184D01*
X117183000Y-105239816D01*
X117150297Y-105404228D01*
X117086147Y-105559100D01*
X116993015Y-105698481D01*
X116874481Y-105817015D01*
X116735100Y-105910147D01*
X116580228Y-105974297D01*
X116415816Y-106007000D01*
X116248184Y-106007000D01*
X116083772Y-105974297D01*
X115928900Y-105910147D01*
X115789519Y-105817015D01*
X115670985Y-105698481D01*
X115577853Y-105559100D01*
X115513703Y-105404228D01*
X115481000Y-105239816D01*
X115481000Y-105072184D01*
X115513703Y-104907772D01*
X115577853Y-104752900D01*
X115670985Y-104613519D01*
X115789519Y-104494985D01*
X115928900Y-104401853D01*
X116083772Y-104337703D01*
X116248184Y-104305000D01*
X116415816Y-104305000D01*
X116580228Y-104337703D01*
G37*
G36*
X108960228Y-104337703D02*
G01*
X109115100Y-104401853D01*
X109254481Y-104494985D01*
X109373015Y-104613519D01*
X109466147Y-104752900D01*
X109530297Y-104907772D01*
X109563000Y-105072184D01*
X109563000Y-105239816D01*
X109530297Y-105404228D01*
X109466147Y-105559100D01*
X109373015Y-105698481D01*
X109254481Y-105817015D01*
X109115100Y-105910147D01*
X108960228Y-105974297D01*
X108795816Y-106007000D01*
X108628184Y-106007000D01*
X108463772Y-105974297D01*
X108308900Y-105910147D01*
X108169519Y-105817015D01*
X108050985Y-105698481D01*
X107957853Y-105559100D01*
X107893703Y-105404228D01*
X107861000Y-105239816D01*
X107861000Y-105072184D01*
X107893703Y-104907772D01*
X107957853Y-104752900D01*
X108050985Y-104613519D01*
X108169519Y-104494985D01*
X108308900Y-104401853D01*
X108463772Y-104337703D01*
X108628184Y-104305000D01*
X108795816Y-104305000D01*
X108960228Y-104337703D01*
G37*
G36*
X108960228Y-101797703D02*
G01*
X109115100Y-101861853D01*
X109254481Y-101954985D01*
X109373015Y-102073519D01*
X109466147Y-102212900D01*
X109530297Y-102367772D01*
X109563000Y-102532184D01*
X109563000Y-102699816D01*
X109530297Y-102864228D01*
X109466147Y-103019100D01*
X109373015Y-103158481D01*
X109254481Y-103277015D01*
X109115100Y-103370147D01*
X108960228Y-103434297D01*
X108795816Y-103467000D01*
X108628184Y-103467000D01*
X108463772Y-103434297D01*
X108308900Y-103370147D01*
X108169519Y-103277015D01*
X108050985Y-103158481D01*
X107957853Y-103019100D01*
X107893703Y-102864228D01*
X107861000Y-102699816D01*
X107861000Y-102532184D01*
X107893703Y-102367772D01*
X107957853Y-102212900D01*
X108050985Y-102073519D01*
X108169519Y-101954985D01*
X108308900Y-101861853D01*
X108463772Y-101797703D01*
X108628184Y-101765000D01*
X108795816Y-101765000D01*
X108960228Y-101797703D01*
G37*
G36*
X116580228Y-101797703D02*
G01*
X116735100Y-101861853D01*
X116874481Y-101954985D01*
X116993015Y-102073519D01*
X117086147Y-102212900D01*
X117150297Y-102367772D01*
X117183000Y-102532184D01*
X117183000Y-102699816D01*
X117150297Y-102864228D01*
X117086147Y-103019100D01*
X116993015Y-103158481D01*
X116874481Y-103277015D01*
X116735100Y-103370147D01*
X116580228Y-103434297D01*
X116415816Y-103467000D01*
X116248184Y-103467000D01*
X116083772Y-103434297D01*
X115928900Y-103370147D01*
X115789519Y-103277015D01*
X115670985Y-103158481D01*
X115577853Y-103019100D01*
X115513703Y-102864228D01*
X115481000Y-102699816D01*
X115481000Y-102532184D01*
X115513703Y-102367772D01*
X115577853Y-102212900D01*
X115670985Y-102073519D01*
X115789519Y-101954985D01*
X115928900Y-101861853D01*
X116083772Y-101797703D01*
X116248184Y-101765000D01*
X116415816Y-101765000D01*
X116580228Y-101797703D01*
G37*
G36*
X102356228Y-101543703D02*
G01*
X102511100Y-101607853D01*
X102650481Y-101700985D01*
X102769015Y-101819519D01*
X102862147Y-101958900D01*
X102926297Y-102113772D01*
X102959000Y-102278184D01*
X102959000Y-102445816D01*
X102926297Y-102610228D01*
X102862147Y-102765100D01*
X102769015Y-102904481D01*
X102650481Y-103023015D01*
X102511100Y-103116147D01*
X102356228Y-103180297D01*
X102191816Y-103213000D01*
X102024184Y-103213000D01*
X101859772Y-103180297D01*
X101704900Y-103116147D01*
X101565519Y-103023015D01*
X101446985Y-102904481D01*
X101353853Y-102765100D01*
X101289703Y-102610228D01*
X101257000Y-102445816D01*
X101257000Y-102278184D01*
X101289703Y-102113772D01*
X101353853Y-101958900D01*
X101446985Y-101819519D01*
X101565519Y-101700985D01*
X101704900Y-101607853D01*
X101859772Y-101543703D01*
X102024184Y-101511000D01*
X102191816Y-101511000D01*
X102356228Y-101543703D01*
G37*
G36*
X116580228Y-99257703D02*
G01*
X116735100Y-99321853D01*
X116874481Y-99414985D01*
X116993015Y-99533519D01*
X117086147Y-99672900D01*
X117150297Y-99827772D01*
X117183000Y-99992184D01*
X117183000Y-100159816D01*
X117150297Y-100324228D01*
X117086147Y-100479100D01*
X116993015Y-100618481D01*
X116874481Y-100737015D01*
X116735100Y-100830147D01*
X116580228Y-100894297D01*
X116415816Y-100927000D01*
X116248184Y-100927000D01*
X116083772Y-100894297D01*
X115928900Y-100830147D01*
X115789519Y-100737015D01*
X115670985Y-100618481D01*
X115577853Y-100479100D01*
X115513703Y-100324228D01*
X115481000Y-100159816D01*
X115481000Y-99992184D01*
X115513703Y-99827772D01*
X115577853Y-99672900D01*
X115670985Y-99533519D01*
X115789519Y-99414985D01*
X115928900Y-99321853D01*
X116083772Y-99257703D01*
X116248184Y-99225000D01*
X116415816Y-99225000D01*
X116580228Y-99257703D01*
G37*
G36*
X108960228Y-99257703D02*
G01*
X109115100Y-99321853D01*
X109254481Y-99414985D01*
X109373015Y-99533519D01*
X109466147Y-99672900D01*
X109530297Y-99827772D01*
X109563000Y-99992184D01*
X109563000Y-100159816D01*
X109530297Y-100324228D01*
X109466147Y-100479100D01*
X109373015Y-100618481D01*
X109254481Y-100737015D01*
X109115100Y-100830147D01*
X108960228Y-100894297D01*
X108795816Y-100927000D01*
X108628184Y-100927000D01*
X108463772Y-100894297D01*
X108308900Y-100830147D01*
X108169519Y-100737015D01*
X108050985Y-100618481D01*
X107957853Y-100479100D01*
X107893703Y-100324228D01*
X107861000Y-100159816D01*
X107861000Y-99992184D01*
X107893703Y-99827772D01*
X107957853Y-99672900D01*
X108050985Y-99533519D01*
X108169519Y-99414985D01*
X108308900Y-99321853D01*
X108463772Y-99257703D01*
X108628184Y-99225000D01*
X108795816Y-99225000D01*
X108960228Y-99257703D01*
G37*
G36*
X103626228Y-98241703D02*
G01*
X103781100Y-98305853D01*
X103920481Y-98398985D01*
X104039015Y-98517519D01*
X104132147Y-98656900D01*
X104196297Y-98811772D01*
X104229000Y-98976184D01*
X104229000Y-99143816D01*
X104196297Y-99308228D01*
X104132147Y-99463100D01*
X104039015Y-99602481D01*
X103920481Y-99721015D01*
X103781100Y-99814147D01*
X103626228Y-99878297D01*
X103461816Y-99911000D01*
X103294184Y-99911000D01*
X103129772Y-99878297D01*
X102974900Y-99814147D01*
X102835519Y-99721015D01*
X102716985Y-99602481D01*
X102623853Y-99463100D01*
X102559703Y-99308228D01*
X102527000Y-99143816D01*
X102527000Y-98976184D01*
X102559703Y-98811772D01*
X102623853Y-98656900D01*
X102716985Y-98517519D01*
X102835519Y-98398985D01*
X102974900Y-98305853D01*
X103129772Y-98241703D01*
X103294184Y-98209000D01*
X103461816Y-98209000D01*
X103626228Y-98241703D01*
G37*
G36*
X114802228Y-94685703D02*
G01*
X114957100Y-94749853D01*
X115096481Y-94842985D01*
X115215015Y-94961519D01*
X115308147Y-95100900D01*
X115372297Y-95255772D01*
X115405000Y-95420184D01*
X115405000Y-95587816D01*
X115372297Y-95752228D01*
X115308147Y-95907100D01*
X115215015Y-96046481D01*
X115096481Y-96165015D01*
X114957100Y-96258147D01*
X114802228Y-96322297D01*
X114637816Y-96355000D01*
X114470184Y-96355000D01*
X114305772Y-96322297D01*
X114150900Y-96258147D01*
X114011519Y-96165015D01*
X113892985Y-96046481D01*
X113799853Y-95907100D01*
X113735703Y-95752228D01*
X113703000Y-95587816D01*
X113703000Y-95420184D01*
X113735703Y-95255772D01*
X113799853Y-95100900D01*
X113892985Y-94961519D01*
X114011519Y-94842985D01*
X114150900Y-94749853D01*
X114305772Y-94685703D01*
X114470184Y-94653000D01*
X114637816Y-94653000D01*
X114802228Y-94685703D01*
G37*
G36*
X107182228Y-94685703D02*
G01*
X107337100Y-94749853D01*
X107476481Y-94842985D01*
X107595015Y-94961519D01*
X107688147Y-95100900D01*
X107752297Y-95255772D01*
X107785000Y-95420184D01*
X107785000Y-95587816D01*
X107752297Y-95752228D01*
X107688147Y-95907100D01*
X107595015Y-96046481D01*
X107476481Y-96165015D01*
X107337100Y-96258147D01*
X107182228Y-96322297D01*
X107017816Y-96355000D01*
X106850184Y-96355000D01*
X106685772Y-96322297D01*
X106530900Y-96258147D01*
X106391519Y-96165015D01*
X106272985Y-96046481D01*
X106179853Y-95907100D01*
X106115703Y-95752228D01*
X106083000Y-95587816D01*
X106083000Y-95420184D01*
X106115703Y-95255772D01*
X106179853Y-95100900D01*
X106272985Y-94961519D01*
X106391519Y-94842985D01*
X106530900Y-94749853D01*
X106685772Y-94685703D01*
X106850184Y-94653000D01*
X107017816Y-94653000D01*
X107182228Y-94685703D01*
G37*
G36*
X109722228Y-91129703D02*
G01*
X109877100Y-91193853D01*
X110016481Y-91286985D01*
X110135015Y-91405519D01*
X110228147Y-91544900D01*
X110292297Y-91699772D01*
X110325000Y-91864184D01*
X110325000Y-92031816D01*
X110292297Y-92196228D01*
X110228147Y-92351100D01*
X110135015Y-92490481D01*
X110016481Y-92609015D01*
X109877100Y-92702147D01*
X109722228Y-92766297D01*
X109557816Y-92799000D01*
X109390184Y-92799000D01*
X109225772Y-92766297D01*
X109070900Y-92702147D01*
X108931519Y-92609015D01*
X108812985Y-92490481D01*
X108719853Y-92351100D01*
X108655703Y-92196228D01*
X108623000Y-92031816D01*
X108623000Y-91864184D01*
X108655703Y-91699772D01*
X108719853Y-91544900D01*
X108812985Y-91405519D01*
X108931519Y-91286985D01*
X109070900Y-91193853D01*
X109225772Y-91129703D01*
X109390184Y-91097000D01*
X109557816Y-91097000D01*
X109722228Y-91129703D01*
G37*
G36*
X112222228Y-91129703D02*
G01*
X112377100Y-91193853D01*
X112516481Y-91286985D01*
X112635015Y-91405519D01*
X112728147Y-91544900D01*
X112792297Y-91699772D01*
X112825000Y-91864184D01*
X112825000Y-92031816D01*
X112792297Y-92196228D01*
X112728147Y-92351100D01*
X112635015Y-92490481D01*
X112516481Y-92609015D01*
X112377100Y-92702147D01*
X112222228Y-92766297D01*
X112057816Y-92799000D01*
X111890184Y-92799000D01*
X111725772Y-92766297D01*
X111570900Y-92702147D01*
X111431519Y-92609015D01*
X111312985Y-92490481D01*
X111219853Y-92351100D01*
X111155703Y-92196228D01*
X111123000Y-92031816D01*
X111123000Y-91864184D01*
X111155703Y-91699772D01*
X111219853Y-91544900D01*
X111312985Y-91405519D01*
X111431519Y-91286985D01*
X111570900Y-91193853D01*
X111725772Y-91129703D01*
X111890184Y-91097000D01*
X112057816Y-91097000D01*
X112222228Y-91129703D01*
G37*
G36*
X103626228Y-90621703D02*
G01*
X103781100Y-90685853D01*
X103920481Y-90778985D01*
X104039015Y-90897519D01*
X104132147Y-91036900D01*
X104196297Y-91191772D01*
X104229000Y-91356184D01*
X104229000Y-91523816D01*
X104196297Y-91688228D01*
X104132147Y-91843100D01*
X104039015Y-91982481D01*
X103920481Y-92101015D01*
X103781100Y-92194147D01*
X103626228Y-92258297D01*
X103461816Y-92291000D01*
X103294184Y-92291000D01*
X103129772Y-92258297D01*
X102974900Y-92194147D01*
X102835519Y-92101015D01*
X102716985Y-91982481D01*
X102623853Y-91843100D01*
X102559703Y-91688228D01*
X102527000Y-91523816D01*
X102527000Y-91356184D01*
X102559703Y-91191772D01*
X102623853Y-91036900D01*
X102716985Y-90897519D01*
X102835519Y-90778985D01*
X102974900Y-90685853D01*
X103129772Y-90621703D01*
X103294184Y-90589000D01*
X103461816Y-90589000D01*
X103626228Y-90621703D01*
G37*
G36*
X112907512Y-87103927D02*
G01*
X113056812Y-87133624D01*
X113220784Y-87201544D01*
X113368354Y-87300147D01*
X113493853Y-87425646D01*
X113592456Y-87573216D01*
X113660376Y-87737188D01*
X113695000Y-87911259D01*
X113695000Y-88088741D01*
X113660376Y-88262812D01*
X113592456Y-88426784D01*
X113493853Y-88574354D01*
X113368354Y-88699853D01*
X113220784Y-88798456D01*
X113056812Y-88866376D01*
X112907512Y-88896073D01*
X112882742Y-88901000D01*
X112705258Y-88901000D01*
X112680488Y-88896073D01*
X112531188Y-88866376D01*
X112367216Y-88798456D01*
X112219646Y-88699853D01*
X112094147Y-88574354D01*
X111995544Y-88426784D01*
X111927624Y-88262812D01*
X111893000Y-88088741D01*
X111893000Y-87911259D01*
X111927624Y-87737188D01*
X111995544Y-87573216D01*
X112094147Y-87425646D01*
X112219646Y-87300147D01*
X112367216Y-87201544D01*
X112531188Y-87133624D01*
X112680488Y-87103927D01*
X112705258Y-87099000D01*
X112882742Y-87099000D01*
X112907512Y-87103927D01*
G37*
G36*
X108615000Y-88901000D02*
G01*
X106813000Y-88901000D01*
X106813000Y-87099000D01*
X108615000Y-87099000D01*
X108615000Y-88901000D01*
G37*
G36*
X110367512Y-87103927D02*
G01*
X110516812Y-87133624D01*
X110680784Y-87201544D01*
X110828354Y-87300147D01*
X110953853Y-87425646D01*
X111052456Y-87573216D01*
X111120376Y-87737188D01*
X111155000Y-87911259D01*
X111155000Y-88088741D01*
X111120376Y-88262812D01*
X111052456Y-88426784D01*
X110953853Y-88574354D01*
X110828354Y-88699853D01*
X110680784Y-88798456D01*
X110516812Y-88866376D01*
X110367512Y-88896073D01*
X110342742Y-88901000D01*
X110165258Y-88901000D01*
X110140488Y-88896073D01*
X109991188Y-88866376D01*
X109827216Y-88798456D01*
X109679646Y-88699853D01*
X109554147Y-88574354D01*
X109455544Y-88426784D01*
X109387624Y-88262812D01*
X109353000Y-88088741D01*
X109353000Y-87911259D01*
X109387624Y-87737188D01*
X109455544Y-87573216D01*
X109554147Y-87425646D01*
X109679646Y-87300147D01*
X109827216Y-87201544D01*
X109991188Y-87133624D01*
X110140488Y-87103927D01*
X110165258Y-87099000D01*
X110342742Y-87099000D01*
X110367512Y-87103927D01*
G37*
G36*
X103372228Y-86811703D02*
G01*
X103527100Y-86875853D01*
X103666481Y-86968985D01*
X103785015Y-87087519D01*
X103878147Y-87226900D01*
X103942297Y-87381772D01*
X103975000Y-87546184D01*
X103975000Y-87713816D01*
X103942297Y-87878228D01*
X103878147Y-88033100D01*
X103785015Y-88172481D01*
X103666481Y-88291015D01*
X103527100Y-88384147D01*
X103372228Y-88448297D01*
X103207816Y-88481000D01*
X103040184Y-88481000D01*
X102875772Y-88448297D01*
X102720900Y-88384147D01*
X102581519Y-88291015D01*
X102462985Y-88172481D01*
X102369853Y-88033100D01*
X102305703Y-87878228D01*
X102273000Y-87713816D01*
X102273000Y-87546184D01*
X102305703Y-87381772D01*
X102369853Y-87226900D01*
X102462985Y-87087519D01*
X102581519Y-86968985D01*
X102720900Y-86875853D01*
X102875772Y-86811703D01*
X103040184Y-86779000D01*
X103207816Y-86779000D01*
X103372228Y-86811703D01*
G37*
G36*
X115310228Y-79699703D02*
G01*
X115465100Y-79763853D01*
X115604481Y-79856985D01*
X115723015Y-79975519D01*
X115816147Y-80114900D01*
X115880297Y-80269772D01*
X115913000Y-80434184D01*
X115913000Y-80601816D01*
X115880297Y-80766228D01*
X115816147Y-80921100D01*
X115723015Y-81060481D01*
X115604481Y-81179015D01*
X115465100Y-81272147D01*
X115310228Y-81336297D01*
X115145816Y-81369000D01*
X114978184Y-81369000D01*
X114813772Y-81336297D01*
X114658900Y-81272147D01*
X114519519Y-81179015D01*
X114400985Y-81060481D01*
X114307853Y-80921100D01*
X114243703Y-80766228D01*
X114211000Y-80601816D01*
X114211000Y-80434184D01*
X114243703Y-80269772D01*
X114307853Y-80114900D01*
X114400985Y-79975519D01*
X114519519Y-79856985D01*
X114658900Y-79763853D01*
X114813772Y-79699703D01*
X114978184Y-79667000D01*
X115145816Y-79667000D01*
X115310228Y-79699703D01*
G37*
G36*
X107690228Y-79699703D02*
G01*
X107845100Y-79763853D01*
X107984481Y-79856985D01*
X108103015Y-79975519D01*
X108196147Y-80114900D01*
X108260297Y-80269772D01*
X108293000Y-80434184D01*
X108293000Y-80601816D01*
X108260297Y-80766228D01*
X108196147Y-80921100D01*
X108103015Y-81060481D01*
X107984481Y-81179015D01*
X107845100Y-81272147D01*
X107690228Y-81336297D01*
X107525816Y-81369000D01*
X107358184Y-81369000D01*
X107193772Y-81336297D01*
X107038900Y-81272147D01*
X106899519Y-81179015D01*
X106780985Y-81060481D01*
X106687853Y-80921100D01*
X106623703Y-80766228D01*
X106591000Y-80601816D01*
X106591000Y-80434184D01*
X106623703Y-80269772D01*
X106687853Y-80114900D01*
X106780985Y-79975519D01*
X106899519Y-79856985D01*
X107038900Y-79763853D01*
X107193772Y-79699703D01*
X107358184Y-79667000D01*
X107525816Y-79667000D01*
X107690228Y-79699703D01*
G37*
G36*
X103372228Y-79191703D02*
G01*
X103527100Y-79255853D01*
X103666481Y-79348985D01*
X103785015Y-79467519D01*
X103878147Y-79606900D01*
X103942297Y-79761772D01*
X103975000Y-79926184D01*
X103975000Y-80093816D01*
X103942297Y-80258228D01*
X103878147Y-80413100D01*
X103785015Y-80552481D01*
X103666481Y-80671015D01*
X103527100Y-80764147D01*
X103372228Y-80828297D01*
X103207816Y-80861000D01*
X103040184Y-80861000D01*
X102875772Y-80828297D01*
X102720900Y-80764147D01*
X102581519Y-80671015D01*
X102462985Y-80552481D01*
X102369853Y-80413100D01*
X102305703Y-80258228D01*
X102273000Y-80093816D01*
X102273000Y-79926184D01*
X102305703Y-79761772D01*
X102369853Y-79606900D01*
X102462985Y-79467519D01*
X102581519Y-79348985D01*
X102720900Y-79255853D01*
X102875772Y-79191703D01*
X103040184Y-79159000D01*
X103207816Y-79159000D01*
X103372228Y-79191703D01*
G37*
G36*
X108400903Y-72919213D02*
G01*
X108623177Y-72963426D01*
X109041932Y-73136880D01*
X109418802Y-73388696D01*
X109739304Y-73709198D01*
X109991120Y-74086068D01*
X110164574Y-74504823D01*
X110253000Y-74949371D01*
X110253000Y-75402629D01*
X110164574Y-75847177D01*
X109991120Y-76265932D01*
X109739304Y-76642802D01*
X109418802Y-76963304D01*
X109041932Y-77215120D01*
X108623177Y-77388574D01*
X108400903Y-77432787D01*
X108178630Y-77477000D01*
X107725370Y-77477000D01*
X107503097Y-77432787D01*
X107280823Y-77388574D01*
X106862068Y-77215120D01*
X106485198Y-76963304D01*
X106164696Y-76642802D01*
X105912880Y-76265932D01*
X105739426Y-75847177D01*
X105651000Y-75402629D01*
X105651000Y-74949371D01*
X105739426Y-74504823D01*
X105912880Y-74086068D01*
X106164696Y-73709198D01*
X106485198Y-73388696D01*
X106862068Y-73136880D01*
X107280823Y-72963426D01*
X107503097Y-72919213D01*
X107725370Y-72875000D01*
X108178630Y-72875000D01*
X108400903Y-72919213D01*
G37*
G36*
X117365000Y-75953000D02*
G01*
X112763000Y-75953000D01*
X112763000Y-71351000D01*
X117365000Y-71351000D01*
X117365000Y-75953000D01*
G37*
G36*
X104463903Y-67585213D02*
G01*
X104686177Y-67629426D01*
X105104932Y-67802880D01*
X105481802Y-68054696D01*
X105802304Y-68375198D01*
X106054120Y-68752068D01*
X106227574Y-69170823D01*
X106316000Y-69615371D01*
X106316000Y-70068629D01*
X106227574Y-70513177D01*
X106054120Y-70931932D01*
X105802304Y-71308802D01*
X105481802Y-71629304D01*
X105104932Y-71881120D01*
X104686177Y-72054574D01*
X104463903Y-72098787D01*
X104241630Y-72143000D01*
X103788370Y-72143000D01*
X103566097Y-72098787D01*
X103343823Y-72054574D01*
X102925068Y-71881120D01*
X102548198Y-71629304D01*
X102227696Y-71308802D01*
X101975880Y-70931932D01*
X101802426Y-70513177D01*
X101714000Y-70068629D01*
X101714000Y-69615371D01*
X101802426Y-69170823D01*
X101975880Y-68752068D01*
X102227696Y-68375198D01*
X102548198Y-68054696D01*
X102925068Y-67802880D01*
X103343823Y-67629426D01*
X103566097Y-67585213D01*
X103788370Y-67541000D01*
X104241630Y-67541000D01*
X104463903Y-67585213D01*
G37*
G36*
X116528903Y-64283213D02*
G01*
X116751177Y-64327426D01*
X117169932Y-64500880D01*
X117546802Y-64752696D01*
X117867304Y-65073198D01*
X118119120Y-65450068D01*
X118292574Y-65868823D01*
X118381000Y-66313371D01*
X118381000Y-66766629D01*
X118292574Y-67211177D01*
X118119120Y-67629932D01*
X117867304Y-68006802D01*
X117546802Y-68327304D01*
X117169932Y-68579120D01*
X116751177Y-68752574D01*
X116528903Y-68796787D01*
X116306630Y-68841000D01*
X115853370Y-68841000D01*
X115631097Y-68796787D01*
X115408823Y-68752574D01*
X114990068Y-68579120D01*
X114613198Y-68327304D01*
X114292696Y-68006802D01*
X114040880Y-67629932D01*
X113867426Y-67211177D01*
X113779000Y-66766629D01*
X113779000Y-66313371D01*
X113867426Y-65868823D01*
X114040880Y-65450068D01*
X114292696Y-65073198D01*
X114613198Y-64752696D01*
X114990068Y-64500880D01*
X115408823Y-64327426D01*
X115631097Y-64283213D01*
X115853370Y-64239000D01*
X116306630Y-64239000D01*
X116528903Y-64283213D01*
G37*
G36*
X110432903Y-60727213D02*
G01*
X110655177Y-60771426D01*
X111073932Y-60944880D01*
X111450802Y-61196696D01*
X111771304Y-61517198D01*
X112023120Y-61894068D01*
X112196574Y-62312823D01*
X112285000Y-62757371D01*
X112285000Y-63210629D01*
X112196574Y-63655177D01*
X112023120Y-64073932D01*
X111771304Y-64450802D01*
X111450802Y-64771304D01*
X111073932Y-65023120D01*
X110655177Y-65196574D01*
X110432903Y-65240787D01*
X110210630Y-65285000D01*
X109757370Y-65285000D01*
X109535097Y-65240787D01*
X109312823Y-65196574D01*
X108894068Y-65023120D01*
X108517198Y-64771304D01*
X108196696Y-64450802D01*
X107944880Y-64073932D01*
X107771426Y-63655177D01*
X107683000Y-63210629D01*
X107683000Y-62757371D01*
X107771426Y-62312823D01*
X107944880Y-61894068D01*
X108196696Y-61517198D01*
X108517198Y-61196696D01*
X108894068Y-60944880D01*
X109312823Y-60771426D01*
X109535097Y-60727213D01*
X109757370Y-60683000D01*
X110210630Y-60683000D01*
X110432903Y-60727213D01*
G37*
G36*
X108615000Y-38901000D02*
G01*
X106813000Y-38901000D01*
X106813000Y-37099000D01*
X108615000Y-37099000D01*
X108615000Y-38901000D01*
G37*
G36*
X112907512Y-37103927D02*
G01*
X113056812Y-37133624D01*
X113220784Y-37201544D01*
X113368354Y-37300147D01*
X113493853Y-37425646D01*
X113592456Y-37573216D01*
X113660376Y-37737188D01*
X113695000Y-37911259D01*
X113695000Y-38088741D01*
X113660376Y-38262812D01*
X113592456Y-38426784D01*
X113493853Y-38574354D01*
X113368354Y-38699853D01*
X113220784Y-38798456D01*
X113056812Y-38866376D01*
X112907512Y-38896073D01*
X112882742Y-38901000D01*
X112705258Y-38901000D01*
X112680488Y-38896073D01*
X112531188Y-38866376D01*
X112367216Y-38798456D01*
X112219646Y-38699853D01*
X112094147Y-38574354D01*
X111995544Y-38426784D01*
X111927624Y-38262812D01*
X111893000Y-38088741D01*
X111893000Y-37911259D01*
X111927624Y-37737188D01*
X111995544Y-37573216D01*
X112094147Y-37425646D01*
X112219646Y-37300147D01*
X112367216Y-37201544D01*
X112531188Y-37133624D01*
X112680488Y-37103927D01*
X112705258Y-37099000D01*
X112882742Y-37099000D01*
X112907512Y-37103927D01*
G37*
G36*
X110367512Y-37103927D02*
G01*
X110516812Y-37133624D01*
X110680784Y-37201544D01*
X110828354Y-37300147D01*
X110953853Y-37425646D01*
X111052456Y-37573216D01*
X111120376Y-37737188D01*
X111155000Y-37911259D01*
X111155000Y-38088741D01*
X111120376Y-38262812D01*
X111052456Y-38426784D01*
X110953853Y-38574354D01*
X110828354Y-38699853D01*
X110680784Y-38798456D01*
X110516812Y-38866376D01*
X110367512Y-38896073D01*
X110342742Y-38901000D01*
X110165258Y-38901000D01*
X110140488Y-38896073D01*
X109991188Y-38866376D01*
X109827216Y-38798456D01*
X109679646Y-38699853D01*
X109554147Y-38574354D01*
X109455544Y-38426784D01*
X109387624Y-38262812D01*
X109353000Y-38088741D01*
X109353000Y-37911259D01*
X109387624Y-37737188D01*
X109455544Y-37573216D01*
X109554147Y-37425646D01*
X109679646Y-37300147D01*
X109827216Y-37201544D01*
X109991188Y-37133624D01*
X110140488Y-37103927D01*
X110165258Y-37099000D01*
X110342742Y-37099000D01*
X110367512Y-37103927D01*
G37*
G36*
X115338604Y-24513416D02*
G01*
X115604579Y-24594099D01*
X115604581Y-24594100D01*
X115849701Y-24725119D01*
X116064556Y-24901444D01*
X116240881Y-25116299D01*
X116371900Y-25361418D01*
X116371900Y-25361419D01*
X116371901Y-25361421D01*
X116452584Y-25627397D01*
X116473000Y-25834685D01*
X116473000Y-26493316D01*
X116452584Y-26700604D01*
X116371901Y-26966578D01*
X116371900Y-26966581D01*
X116240881Y-27211701D01*
X116064556Y-27426556D01*
X115849700Y-27602881D01*
X115604580Y-27733900D01*
X115604578Y-27733901D01*
X115338603Y-27814584D01*
X115062000Y-27841827D01*
X114785396Y-27814584D01*
X114519421Y-27733901D01*
X114519419Y-27733900D01*
X114274299Y-27602881D01*
X114059444Y-27426556D01*
X113883119Y-27211700D01*
X113752100Y-26966580D01*
X113752099Y-26966578D01*
X113671416Y-26700603D01*
X113651000Y-26493315D01*
X113651000Y-25834684D01*
X113671416Y-25627396D01*
X113752099Y-25361421D01*
X113883120Y-25116298D01*
X114059444Y-24901444D01*
X114274300Y-24725119D01*
X114519420Y-24594100D01*
X114519422Y-24594099D01*
X114785397Y-24513416D01*
X115062000Y-24486173D01*
X115338604Y-24513416D01*
G37*
G36*
X105738604Y-24513416D02*
G01*
X106004579Y-24594099D01*
X106004581Y-24594100D01*
X106249701Y-24725119D01*
X106464556Y-24901444D01*
X106640881Y-25116299D01*
X106771900Y-25361418D01*
X106771900Y-25361419D01*
X106771901Y-25361421D01*
X106852584Y-25627397D01*
X106873000Y-25834685D01*
X106873000Y-26493316D01*
X106852584Y-26700604D01*
X106771901Y-26966578D01*
X106771900Y-26966581D01*
X106640881Y-27211701D01*
X106464556Y-27426556D01*
X106249700Y-27602881D01*
X106004580Y-27733900D01*
X106004578Y-27733901D01*
X105738603Y-27814584D01*
X105462000Y-27841827D01*
X105185396Y-27814584D01*
X104919421Y-27733901D01*
X104919419Y-27733900D01*
X104674299Y-27602881D01*
X104459444Y-27426556D01*
X104283119Y-27211700D01*
X104152100Y-26966580D01*
X104152099Y-26966578D01*
X104071416Y-26700603D01*
X104051000Y-26493315D01*
X104051000Y-25834684D01*
X104071416Y-25627396D01*
X104152099Y-25361421D01*
X104283120Y-25116298D01*
X104459444Y-24901444D01*
X104674300Y-24725119D01*
X104919420Y-24594100D01*
X104919422Y-24594099D01*
X105185397Y-24513416D01*
X105462000Y-24486173D01*
X105738604Y-24513416D01*
G37*
G36*
X113039395Y-17749546D02*
G01*
X113212466Y-17821234D01*
X113212467Y-17821235D01*
X113368227Y-17925310D01*
X113500690Y-18057773D01*
X113500691Y-18057775D01*
X113604766Y-18213534D01*
X113676454Y-18386605D01*
X113713000Y-18570333D01*
X113713000Y-18757667D01*
X113676454Y-18941395D01*
X113604766Y-19114466D01*
X113604765Y-19114467D01*
X113500690Y-19270227D01*
X113368227Y-19402690D01*
X113289818Y-19455081D01*
X113212466Y-19506766D01*
X113039395Y-19578454D01*
X112855667Y-19615000D01*
X112668333Y-19615000D01*
X112484605Y-19578454D01*
X112311534Y-19506766D01*
X112234182Y-19455081D01*
X112155773Y-19402690D01*
X112023310Y-19270227D01*
X111919235Y-19114467D01*
X111919234Y-19114466D01*
X111847546Y-18941395D01*
X111811000Y-18757667D01*
X111811000Y-18570333D01*
X111847546Y-18386605D01*
X111919234Y-18213534D01*
X112023309Y-18057775D01*
X112023310Y-18057773D01*
X112155773Y-17925310D01*
X112311533Y-17821235D01*
X112311534Y-17821234D01*
X112484605Y-17749546D01*
X112668333Y-17713000D01*
X112855667Y-17713000D01*
X113039395Y-17749546D01*
G37*
G36*
X110539395Y-17749546D02*
G01*
X110712466Y-17821234D01*
X110712467Y-17821235D01*
X110868227Y-17925310D01*
X111000690Y-18057773D01*
X111000691Y-18057775D01*
X111104766Y-18213534D01*
X111176454Y-18386605D01*
X111213000Y-18570333D01*
X111213000Y-18757667D01*
X111176454Y-18941395D01*
X111104766Y-19114466D01*
X111104765Y-19114467D01*
X111000690Y-19270227D01*
X110868227Y-19402690D01*
X110789818Y-19455081D01*
X110712466Y-19506766D01*
X110539395Y-19578454D01*
X110355667Y-19615000D01*
X110168333Y-19615000D01*
X109984605Y-19578454D01*
X109811534Y-19506766D01*
X109734182Y-19455081D01*
X109655773Y-19402690D01*
X109523310Y-19270227D01*
X109419235Y-19114467D01*
X109419234Y-19114466D01*
X109347546Y-18941395D01*
X109311000Y-18757667D01*
X109311000Y-18570333D01*
X109347546Y-18386605D01*
X109419234Y-18213534D01*
X109523309Y-18057775D01*
X109523310Y-18057773D01*
X109655773Y-17925310D01*
X109811533Y-17821235D01*
X109811534Y-17821234D01*
X109984605Y-17749546D01*
X110168333Y-17713000D01*
X110355667Y-17713000D01*
X110539395Y-17749546D01*
G37*
G36*
X108713000Y-19615000D02*
G01*
X106811000Y-19615000D01*
X106811000Y-17713000D01*
X108713000Y-17713000D01*
X108713000Y-19615000D01*
G37*
G36*
X108615000Y-1901000D02*
G01*
X106813000Y-1901000D01*
X106813000Y-99000D01*
X108615000Y-99000D01*
X108615000Y-1901000D01*
G37*
G36*
X110367512Y-103927D02*
G01*
X110516812Y-133624D01*
X110680784Y-201544D01*
X110828354Y-300147D01*
X110953853Y-425646D01*
X111052456Y-573216D01*
X111120376Y-737188D01*
X111155000Y-911259D01*
X111155000Y-1088741D01*
X111120376Y-1262812D01*
X111052456Y-1426784D01*
X110953853Y-1574354D01*
X110828354Y-1699853D01*
X110680784Y-1798456D01*
X110516812Y-1866376D01*
X110367512Y-1896073D01*
X110342742Y-1901000D01*
X110165258Y-1901000D01*
X110140488Y-1896073D01*
X109991188Y-1866376D01*
X109827216Y-1798456D01*
X109679646Y-1699853D01*
X109554147Y-1574354D01*
X109455544Y-1426784D01*
X109387624Y-1262812D01*
X109353000Y-1088741D01*
X109353000Y-911259D01*
X109387624Y-737188D01*
X109455544Y-573216D01*
X109554147Y-425646D01*
X109679646Y-300147D01*
X109827216Y-201544D01*
X109991188Y-133624D01*
X110140488Y-103927D01*
X110165258Y-99000D01*
X110342742Y-99000D01*
X110367512Y-103927D01*
G37*
G36*
X112907512Y-103927D02*
G01*
X113056812Y-133624D01*
X113220784Y-201544D01*
X113368354Y-300147D01*
X113493853Y-425646D01*
X113592456Y-573216D01*
X113660376Y-737188D01*
X113695000Y-911259D01*
X113695000Y-1088741D01*
X113660376Y-1262812D01*
X113592456Y-1426784D01*
X113493853Y-1574354D01*
X113368354Y-1699853D01*
X113220784Y-1798456D01*
X113056812Y-1866376D01*
X112907512Y-1896073D01*
X112882742Y-1901000D01*
X112705258Y-1901000D01*
X112680488Y-1896073D01*
X112531188Y-1866376D01*
X112367216Y-1798456D01*
X112219646Y-1699853D01*
X112094147Y-1574354D01*
X111995544Y-1426784D01*
X111927624Y-1262812D01*
X111893000Y-1088741D01*
X111893000Y-911259D01*
X111927624Y-737188D01*
X111995544Y-573216D01*
X112094147Y-425646D01*
X112219646Y-300147D01*
X112367216Y-201544D01*
X112531188Y-133624D01*
X112680488Y-103927D01*
X112705258Y-99000D01*
X112882742Y-99000D01*
X112907512Y-103927D01*
G37*
M02*
