M48
; DRILL file {KiCad (5.1.5)-3} date 12/05/2020 18:11:22
; FORMAT={-:-/ absolute / metric / decimal}
; #@! TF.CreationDate,2020-05-12T18:11:22+01:00
; #@! TF.GenerationSoftware,Kicad,Pcbnew,(5.1.5)-3
FMAT,2
METRIC
T1C0.800
T2C1.000
T3C1.016
T4C1.100
T5C2.700
%
G90
G05
T1
X109.474Y-91.948
X111.974Y-91.948
X103.378Y-185.928
X103.378Y-193.548
X102.108Y-150.622
X102.108Y-158.242
X102.108Y-102.362
X102.108Y-109.982
X108.712Y-100.076
X108.712Y-102.616
X108.712Y-105.156
X108.712Y-107.696
X108.712Y-110.236
X108.712Y-112.776
X108.712Y-115.316
X108.712Y-117.856
X116.332Y-100.076
X116.332Y-102.616
X116.332Y-105.156
X116.332Y-107.696
X116.332Y-110.236
X116.332Y-112.776
X116.332Y-115.316
X116.332Y-117.856
X106.934Y-95.504
X114.554Y-95.504
X103.378Y-91.44
X103.378Y-99.06
X107.442Y-133.604
X107.442Y-136.144
X107.442Y-138.684
X107.442Y-141.224
X107.442Y-143.764
X107.442Y-146.304
X107.442Y-148.844
X115.062Y-133.604
X115.062Y-136.144
X115.062Y-138.684
X115.062Y-141.224
X115.062Y-143.764
X115.062Y-146.304
X115.062Y-148.844
X108.0Y-157.0
X110.54Y-157.0
X113.08Y-157.0
X102.108Y-128.778
X102.108Y-136.398
X102.108Y-139.954
X102.108Y-147.574
X107.696Y-185.928
X107.696Y-193.548
X107.442Y-80.518
X115.062Y-80.518
X102.108Y-118.618
X102.108Y-126.238
X101.854Y-113.03
X101.854Y-115.53
X103.124Y-80.01
X103.124Y-87.63
T2
X107.714Y-1.0
X110.254Y-1.0
X112.794Y-1.0
X107.442Y-125.0
X109.982Y-125.0
X112.522Y-125.0
X107.762Y-18.664
X110.262Y-18.664
X112.762Y-18.664
X107.714Y-88.0
X110.254Y-88.0
X112.794Y-88.0
X107.714Y-38.0
X110.254Y-38.0
X112.794Y-38.0
T3
X105.41Y-166.624
X105.41Y-169.164
X105.41Y-171.704
X105.41Y-174.244
X105.41Y-176.784
X107.95Y-166.624
X107.95Y-169.164
X107.95Y-171.704
X107.95Y-174.244
X107.95Y-176.784
T5
X104.015Y-222.842
X107.952Y-228.176
X109.984Y-215.984
X115.064Y-226.652
X116.08Y-219.54
X104.015Y-69.842
X107.952Y-75.176
X109.984Y-62.984
X115.064Y-73.652
X116.08Y-66.54
X104.015Y-204.842
X107.952Y-210.176
X109.984Y-197.984
X115.064Y-208.652
X116.08Y-201.54
T4
G00X105.462Y-26.514
M15
G01X105.462Y-25.814
M16
G05
G00X115.062Y-26.514
M15
G01X115.062Y-25.814
M16
G05
T0
M30
